<?xml version="1.0" encoding="UTF-8"?>
<svg width="200px" height="178px" viewBox="0 0 200 178" version="1.1" xmlns="http://www.w3.org/2000/svg" xmlns:xlink="http://www.w3.org/1999/xlink">
    <title>react</title>
    <g id="Page-1" stroke="none" stroke-width="1" fill="none" fill-rule="evenodd">
        <g id="react" transform="translate(0.000000, 0.000000)" fill="#00D8FF" fill-rule="nonzero">
            <path d="M164.440141,57.6747167 C162.365389,56.9605862 160.215521,56.2849032 158.00193,55.6458881 C158.365759,54.1610233 158.699684,52.6953823 158.996587,51.2546612 C163.87019,27.597572 160.683658,8.53925609 149.8026,2.26444752 C139.36903,-3.75226298 122.305724,2.52112162 105.072606,17.5185762 C103.415438,18.9607213 101.753642,20.4875938 100.09256,22.0878016 C98.9857633,21.0290656 97.8807484,20.0059295 96.7785813,19.0272928 C78.7177695,2.99103799 60.6145939,-3.76685888 49.7442161,2.52610558 C39.3206148,8.56026 36.2337622,26.4768925 40.620717,48.8968911 C41.0443538,51.0624227 41.539546,53.273878 42.0995298,55.522357 C39.5374173,56.2496595 37.063948,57.0250216 34.6972778,57.8498674 C13.5229138,65.2321836 0,76.8020959 0,88.8031211 C0,101.19788 14.5168583,113.630018 36.5716036,121.16826 C38.3120745,121.763132 40.1180488,122.325608 41.9792028,122.859604 C41.3750754,125.291422 40.8496234,127.674467 40.4085426,129.998774 C36.2255743,152.029668 39.4922055,169.523019 49.888039,175.519082 C60.6259859,181.7113 78.6472813,175.346423 96.195457,160.007212 C97.5824227,158.794684 98.9743719,157.508823 100.368813,156.161017 C102.176212,157.901487 103.980762,159.548687 105.775701,161.093715 C122.773148,175.720577 139.560913,181.626929 149.947134,175.614134 C160.674402,169.404116 164.160684,150.612086 159.634533,127.748516 C159.288859,126.002348 158.886583,124.218445 158.434823,122.40286 C159.700393,122.028705 160.942823,121.642449 162.154283,121.240884 C185.08229,113.644258 200,101.363418 200,88.8031211 C200,76.7586645 186.040989,65.1107885 164.440141,57.6747167 L164.440141,57.6747167 Z M159.467215,113.13091 C158.373591,113.492959 157.251487,113.842905 156.108024,114.18217 C153.576884,106.169027 150.160734,97.6482305 145.980257,88.8447734 C149.969563,80.2509977 153.253638,71.8391377 155.713935,63.8779698 C157.759852,64.4699934 159.745605,65.0944127 161.659091,65.7533637 C180.166678,72.1246475 191.456065,81.5446922 191.456065,88.8031211 C191.456065,96.5346711 179.26387,106.571303 159.467215,113.13091 L159.467215,113.13091 Z M151.252933,129.407818 C153.254349,139.517786 153.540215,148.658373 152.214481,155.803951 C151.023315,162.224719 148.627809,166.505586 145.665911,168.22007 C139.362978,171.86833 125.884209,167.12609 111.34777,154.617056 C109.681347,153.183098 108.00282,151.651955 106.318952,150.031454 C111.95439,143.868073 117.586623,136.702916 123.083578,128.745307 C132.752109,127.887355 141.886645,126.484724 150.170345,124.569815 C150.578318,126.215591 150.940723,127.829682 151.252933,129.407818 L151.252933,129.407818 Z M68.1845208,167.589598 C62.0264792,169.764386 57.1219043,169.826685 54.1571587,168.117186 C47.8485304,164.478537 45.2258983,150.43302 48.8033152,131.592218 C49.2130681,129.434518 49.7007845,127.21808 50.2629041,124.952512 C58.4558262,126.764183 67.5234337,128.067845 77.2151042,128.85353 C82.7490828,136.640261 88.544007,143.797586 94.3837867,150.064562 C93.1078922,151.296312 91.8369813,152.468969 90.5731914,153.573984 C82.813518,160.356801 75.0374691,165.169172 68.1845208,167.589598 L68.1845208,167.589598 Z M39.3348548,113.083562 C29.5826645,109.750359 21.5289373,105.418228 16.008487,100.69094 C11.0480206,96.4428242 8.54357945,92.2253242 8.54357945,88.8031211 C8.54357945,81.5204844 19.4011415,72.2314466 37.5096566,65.9178345 C39.706872,65.1517282 42.0069705,64.4297657 44.3939326,63.7515909 C46.8965936,71.8925373 50.1796008,80.4040766 54.1414949,89.0110234 C50.1283372,97.7457734 46.7986944,106.392949 44.2714695,114.629302 C42.5698023,114.140162 40.9211788,113.62539 39.3348548,113.083562 L39.3348548,113.083562 Z M49.0055217,47.2560995 C45.246902,28.0471967 47.7431552,13.5566822 54.0247277,9.9205257 C60.7156972,6.04691894 75.511301,11.5698611 91.1054078,25.4163765 C92.1022,26.3013859 93.1029086,27.2276908 94.1064648,28.1860356 C88.2955211,34.4256005 82.5536406,41.5291708 77.0687902,49.2699762 C67.6626286,50.1418137 58.6587446,51.5423071 50.3803834,53.4177009 C49.8599152,51.3240807 49.3988987,49.2671283 49.0055217,47.2560995 L49.0055217,47.2560995 Z M135.276485,68.5586224 C133.297497,65.1403362 131.26582,61.8028615 129.194628,58.5565221 C135.57588,59.363212 141.689777,60.4340519 147.431302,61.744478 C145.707562,67.2688442 143.55912,73.0449006 141.030114,78.9662039 C139.215952,75.5219298 137.297127,72.0491761 135.276485,68.5586224 L135.276485,68.5586224 Z M100.095407,34.2921015 C104.036298,38.5615773 107.982884,43.3283812 111.864679,48.50031 C107.95298,48.3155474 103.992866,48.2194281 100.000001,48.2194281 C96.0448703,48.2194281 92.1139484,48.3134115 88.226457,48.4949701 C92.112168,43.3711008 96.0929297,38.6107048 100.095407,34.2921015 L100.095407,34.2921015 Z M64.6889831,68.617718 C62.7121301,72.0456161 60.8289043,75.4995021 59.0432218,78.9597961 C56.5551566,73.0591405 54.4266487,67.2567403 52.6879578,61.6540546 C58.3942387,60.3770923 64.4793007,59.3329523 70.8199688,58.5415702 C68.7195847,61.8178134 66.6711761,65.179852 64.6889831,68.617006 L64.6889831,68.617718 L64.6889831,68.617718 Z M71.0025954,119.67414 C64.4515329,118.943277 58.2749796,117.952894 52.5701227,116.711174 C54.3365814,111.008453 56.5120809,105.082166 59.0528337,99.0544195 C60.8431442,102.512222 62.7338459,105.967532 64.7228029,109.402906 L64.7231588,109.402906 C66.7491396,112.902716 68.8480997,116.330969 71.0025954,119.67414 L71.0025954,119.67414 Z M100.33179,143.916488 C96.2823203,139.547334 92.243175,134.714315 88.2983687,129.515686 C92.1278312,129.665916 96.0320539,129.742812 100.000001,129.742812 C104.076526,129.742812 108.106415,129.650965 112.072938,129.47439 C108.178326,134.766647 104.24598,139.607141 100.33179,143.916488 L100.33179,143.916488 Z M141.111637,98.7471945 C143.784821,104.840088 146.038284,110.735404 147.827527,116.340937 C142.028687,117.663823 135.767762,118.729323 129.171132,119.521062 C131.247309,116.230934 133.296784,112.836143 135.310661,109.344166 C137.348034,105.811249 139.282523,102.272992 141.111637,98.7471945 L141.111637,98.7471945 Z M127.909833,105.075759 C124.783465,110.496529 121.573793,115.671305 118.31535,120.555946 C112.380518,120.980294 106.249177,121.198877 100.000001,121.198877 C93.7761,121.198877 87.7220086,121.00557 81.8921977,120.627145 C78.5023906,115.678427 75.2229438,110.488342 72.116511,105.122394 L72.117223,105.122394 C69.0189784,99.771043 66.16744,94.3744789 63.5836116,89.0081766 C66.166728,83.6294125 69.0107904,78.2267977 72.0912352,72.8850578 L72.0905232,72.8861258 C75.1791557,67.5301462 78.4297672,62.3653373 81.7882453,57.4475904 C87.7362484,56.9979659 93.8355508,56.7633637 99.9996445,56.7633637 L100.000001,56.7633637 C106.191862,56.7633637 112.298995,56.9997458 118.245218,57.4532865 C121.552433,62.3350776 124.780973,67.4831545 127.881709,72.8398462 C131.017691,78.2567016 133.89842,83.6233602 136.503608,88.8867812 C133.906252,94.2406242 131.03193,99.6613961 127.909833,105.075759 L127.909833,105.075759 Z M145.534904,9.66634359 C152.232282,13.5285584 154.836757,29.1048647 150.62887,49.5302103 C150.360447,50.8335165 150.058206,52.1610304 149.729976,53.5063442 C141.432391,51.5917907 132.422098,50.1670895 122.988527,49.2820802 C117.492996,41.4561913 111.798107,34.3415851 106.081858,28.1821195 C107.618698,26.7036629 109.153403,25.2939134 110.681699,23.9635516 C125.447044,11.1138287 139.24728,6.04051098 145.534904,9.66634359 L145.534904,9.66634359 Z M100.000001,70.9438044 C109.863262,70.9438044 117.859317,78.9395039 117.859317,88.8031211 C117.859317,98.666382 109.863262,106.662439 100.000001,106.662439 C90.1367391,106.662439 82.1406836,98.666382 82.1406836,88.8031211 C82.1406836,78.9395039 90.1367391,70.9438044 100.000001,70.9438044 L100.000001,70.9438044 Z" id="Shape"></path>
        </g>
    </g>
</svg>