<svg id="facebook-icon" xmlns="http://www.w3.org/2000/svg" width="48" height="48" viewBox="0 0 48 48">
  <path id="Path_169" data-name="Path 169" d="M45.351,48A2.649,2.649,0,0,0,48,45.351V2.649A2.649,2.649,0,0,0,45.351,0H2.649A2.649,2.649,0,0,0,0,2.649v42.7A2.649,2.649,0,0,0,2.649,48h42.7Z" fill="#d3d4ed"/>
  <path id="Path_170" data-name="Path 170" d="M121.681,81.568V62.748H128l.946-7.334h-7.263V50.731c0-2.123.59-3.571,3.635-3.571l3.884,0V40.6a51.974,51.974,0,0,0-5.659-.289c-5.6,0-9.433,3.418-9.433,9.7v5.409h-6.333v7.334h6.333v18.82h7.574Z" transform="translate(-88.581 -33.568)" fill="#172e3d"/>
</svg>
