<svg xmlns="http://www.w3.org/2000/svg" width="48" height="48" viewBox="0 0 48 48">
  <path id="github-1" d="M24,0A24.178,24.178,0,0,0,0,24.366,24.3,24.3,0,0,0,18.181,48,3.335,3.335,0,0,1,18,46.843V42.7H15a4.086,4.086,0,0,1-3.781-2.072c-.78-1.462-.9-3.716-2.88-5.118-.6-.487-.121-.975.539-.915a6.3,6.3,0,0,1,3.239,2.5,3.051,3.051,0,0,0,3.18,1.584,23.836,23.836,0,0,0,3.36-.245,7.528,7.528,0,0,1,3.18-3.959c-8.039-.975-11.879-5-11.879-10.478a10.135,10.135,0,0,1,2.7-6.58c-.539-1.889-1.26-5.788.241-7.31a8.475,8.475,0,0,1,6.3,2.984,18.225,18.225,0,0,1,5.819-.975,17.94,17.94,0,0,1,5.819.975,8.472,8.472,0,0,1,6.3-2.984c1.44,1.462.78,5.421.18,7.31a9.945,9.945,0,0,1,2.641,6.58c0,5.483-3.781,9.5-11.759,10.356,2.22,1.157,3.781,4.446,3.781,6.883v5.549c0,.182-.059.365-.059.547A24.248,24.248,0,0,0,48,24.366,24.178,24.178,0,0,0,24,0Z" fill="#d3d4ed"/>
</svg>
