<svg id="instagram-2016" xmlns="http://www.w3.org/2000/svg" width="48" height="48.002" viewBox="0 0 48 48.002">
  <path id="Path_167" data-name="Path 167" d="M16,24a8,8,0,1,1,8,8,8,8,0,0,1-8-8m-4.325,0A12.324,12.324,0,1,0,24,11.677,12.324,12.324,0,0,0,11.677,24M33.933,11.188a2.88,2.88,0,1,0,2.881-2.879h0a2.881,2.881,0,0,0-2.88,2.879M14.3,43.537a13.265,13.265,0,0,1-4.457-.826,7.459,7.459,0,0,1-2.761-1.8,7.405,7.405,0,0,1-1.8-2.759A13.253,13.253,0,0,1,4.466,33.7c-.116-2.53-.14-3.29-.14-9.7s.025-7.167.14-9.7a13.353,13.353,0,0,1,.826-4.457,7.459,7.459,0,0,1,1.8-2.761,7.4,7.4,0,0,1,2.761-1.8A13.253,13.253,0,0,1,14.3,4.463c2.53-.116,3.29-.14,9.7-.14s7.167.025,9.7.14a13.353,13.353,0,0,1,4.457.826,7.436,7.436,0,0,1,2.761,1.8,7.436,7.436,0,0,1,1.8,2.761,13.253,13.253,0,0,1,.826,4.457c.116,2.532.14,3.29.14,9.7s-.023,7.167-.14,9.7a13.315,13.315,0,0,1-.826,4.457,7.947,7.947,0,0,1-4.556,4.554,13.253,13.253,0,0,1-4.457.826c-2.53.116-3.29.14-9.7.14s-7.167-.023-9.7-.14M14.106.145A17.6,17.6,0,0,0,8.28,1.26,11.772,11.772,0,0,0,4.029,4.029,11.727,11.727,0,0,0,1.26,8.28,17.6,17.6,0,0,0,.145,14.106C.027,16.665,0,17.483,0,24s.027,7.336.145,9.9A17.6,17.6,0,0,0,1.26,39.722a11.732,11.732,0,0,0,2.768,4.252A11.8,11.8,0,0,0,8.28,46.742a17.615,17.615,0,0,0,5.826,1.115c2.56.116,3.377.145,9.9.145s7.336-.027,9.9-.145a17.6,17.6,0,0,0,5.826-1.115,12.271,12.271,0,0,0,7.02-7.02A17.555,17.555,0,0,0,47.857,33.9c.116-2.561.143-3.377.143-9.9s-.027-7.336-.143-9.9A17.6,17.6,0,0,0,46.742,8.28a11.8,11.8,0,0,0-2.768-4.252,11.744,11.744,0,0,0-4.25-2.768A17.576,17.576,0,0,0,33.9.145C31.339.029,30.521,0,24,0s-7.337.027-9.9.145" transform="translate(0 0)" fill="#d3d4ed"/>
  <path id="Path_168" data-name="Path 168" d="M16,24a8,8,0,1,1,8,8,8,8,0,0,1-8-8m-4.325,0A12.324,12.324,0,1,0,24,11.677,12.324,12.324,0,0,0,11.677,24M33.933,11.188a2.88,2.88,0,1,0,2.881-2.879h0a2.881,2.881,0,0,0-2.88,2.879M14.3,43.537a13.265,13.265,0,0,1-4.457-.826,7.459,7.459,0,0,1-2.761-1.8,7.405,7.405,0,0,1-1.8-2.759A13.253,13.253,0,0,1,4.466,33.7c-.116-2.53-.14-3.29-.14-9.7s.025-7.167.14-9.7a13.353,13.353,0,0,1,.826-4.457,7.459,7.459,0,0,1,1.8-2.761,7.4,7.4,0,0,1,2.761-1.8A13.253,13.253,0,0,1,14.3,4.463c2.53-.116,3.29-.14,9.7-.14s7.167.025,9.7.14a13.353,13.353,0,0,1,4.457.826,7.436,7.436,0,0,1,2.761,1.8,7.436,7.436,0,0,1,1.8,2.761,13.253,13.253,0,0,1,.826,4.457c.116,2.532.14,3.29.14,9.7s-.023,7.167-.14,9.7a13.315,13.315,0,0,1-.826,4.457,7.947,7.947,0,0,1-4.556,4.554,13.253,13.253,0,0,1-4.457.826c-2.53.116-3.29.14-9.7.14s-7.167-.023-9.7-.14M14.106.145A17.6,17.6,0,0,0,8.28,1.26,11.772,11.772,0,0,0,4.029,4.029,11.727,11.727,0,0,0,1.26,8.28,17.6,17.6,0,0,0,.145,14.106C.027,16.665,0,17.483,0,24s.027,7.336.145,9.9A17.6,17.6,0,0,0,1.26,39.722a11.732,11.732,0,0,0,2.768,4.252A11.8,11.8,0,0,0,8.28,46.742a17.615,17.615,0,0,0,5.826,1.115c2.56.116,3.377.145,9.9.145s7.336-.027,9.9-.145a17.6,17.6,0,0,0,5.826-1.115,12.271,12.271,0,0,0,7.02-7.02A17.555,17.555,0,0,0,47.857,33.9c.116-2.561.143-3.377.143-9.9s-.027-7.336-.143-9.9A17.6,17.6,0,0,0,46.742,8.28a11.8,11.8,0,0,0-2.768-4.252,11.744,11.744,0,0,0-4.25-2.768A17.576,17.576,0,0,0,33.9.145C31.339.029,30.521,0,24,0s-7.337.027-9.9.145" transform="translate(0 0)" fill="#d3d4ed"/>
</svg>
