<svg id="linkedin-icon-2" xmlns="http://www.w3.org/2000/svg" width="48" height="48" viewBox="0 0 48 48">
  <path id="Path_171" data-name="Path 171" d="M0,3.438A3.5,3.5,0,0,1,3.548,0h40.9A3.5,3.5,0,0,1,48,3.438V44.562A3.494,3.494,0,0,1,44.452,48H3.548A3.494,3.494,0,0,1,0,44.563V3.438Z" fill="#d3d4ed"/>
  <path id="Path_172" data-name="Path 172" d="M42.38,63.529V49.966H37.517V63.529H42.38Zm-2.43-15.414a2.371,2.371,0,1,0,.032-4.687,2.369,2.369,0,1,0-.064,4.687h.031Zm5.122,15.414h4.863V55.956a2.879,2.879,0,0,1,.16-1.1,2.649,2.649,0,0,1,2.5-1.649c1.759,0,2.463,1.244,2.463,3.067v7.255h4.862V55.752c0-4.166-2.4-6.1-5.6-6.1A4.91,4.91,0,0,0,49.9,51.933h.032V49.967H45.071c.063,1.272,0,13.563,0,13.563Z" transform="translate(-25.037 -29.205)" fill="#172e3d"/>
</svg>
