<svg id="_16_Handset" data-name="16 Handset" xmlns="http://www.w3.org/2000/svg" width="42" height="42" viewBox="0 0 42 42">
  <path id="Path_148" data-name="Path 148" d="M257.468,1623.13l.273-.272a4.05,4.05,0,0,1,6.182.541l5.5,7.857a4.05,4.05,0,0,1-.454,5.186l-.335.335a3.08,3.08,0,0,0-.5,3.748,25.417,25.417,0,0,0,8.849,8.849,3.08,3.08,0,0,0,3.748-.5l.335-.335a4.05,4.05,0,0,1,5.186-.454l7.857,5.5a4.051,4.051,0,0,1,.542,6.182l-.273.273a12.4,12.4,0,0,1-15.369,1.724,72.939,72.939,0,0,1-23.269-23.269A12.405,12.405,0,0,1,257.468,1623.13Z" transform="translate(-253.841 -1621.672)" fill="#d3d4ed"/>
</svg>
