<svg xmlns="http://www.w3.org/2000/svg" xmlns:xlink="http://www.w3.org/1999/xlink" width="275.471" height="167.576" viewBox="0 0 275.471 167.576">
  <defs>
    <linearGradient id="linear-gradient" x1="-0.106" y1="0.72" x2="3.122" y2="-0.179" gradientUnits="objectBoundingBox">
      <stop offset="0.006" stop-color="#e9c037"/>
      <stop offset="0.253" stop-color="#faf7ca"/>
      <stop offset="0.306" stop-color="#f2ebb8"/>
      <stop offset="0.411" stop-color="#e0cc8b"/>
      <stop offset="0.558" stop-color="#c29a44"/>
      <stop offset="0.596" stop-color="#bb8d31"/>
      <stop offset="0.871" stop-color="#e6cf85"/>
      <stop offset="1" stop-color="#faf7ca"/>
    </linearGradient>
    <linearGradient id="linear-gradient-2" x1="-1.863" y1="1.11" x2="1.365" y2="0.212" xlink:href="#linear-gradient"/>
  </defs>
  <g id="Component_36_1" data-name="Component 36 – 1" transform="translate(0.429 0.576)">
    <g id="Group_19" data-name="Group 19">
      <g id="Group_18" data-name="Group 18">
        <g id="Group_14" data-name="Group 14">
          <g id="Group_12" data-name="Group 12">
            <path id="Path_39" data-name="Path 39" d="M183.339,719.477c.242-.376-.032-.838,0-1.62-.472-.087-5.247-.17-5.725-.238a20.8,20.8,0,0,0-3.5-12.582,14.941,14.941,0,0,0-10.682-6.174c-.207,5.2.894,9.928,3.5,13.545a14.339,14.339,0,0,0,3.993,3.823,56.979,56.979,0,0,1-8.8-4.1,22.105,22.105,0,0,0-.529-13.714,16.966,16.966,0,0,0-9.017-9.231,22.116,22.116,0,0,0,.454,14.153,17.414,17.414,0,0,0,2.791,4.65,70.209,70.209,0,0,1-7.911-6.976,21.859,21.859,0,0,0,2.795-13.729,19.427,19.427,0,0,0-6.58-11.807,21.641,21.641,0,0,0-2.761,13.765,18.965,18.965,0,0,0,3.049,7.856,74.363,74.363,0,0,1-7.326-10.572c.391-.472.351-.438,1.1-1.391a19.965,19.965,0,0,0,4.452-11.214,21.315,21.315,0,0,0-3.924-13.375,19.74,19.74,0,0,0-4.063,21.371c-.568-1.183-1.134-2.389-1.665-3.619a21.53,21.53,0,0,0-1.087-2.72,68.37,68.37,0,0,1-2.415-7.19c.259-.108.531-.223.78-.35,3.714-1.809,6.186-5.616,7.53-9.78a22.434,22.434,0,0,0-.56-14.147,17.8,17.8,0,0,0-8.319,10.119,21.11,21.11,0,0,0-.492,10.185A85.122,85.122,0,0,1,126.2,649.2a15.2,15.2,0,0,0,10.218-6.589c2.508-3.724,3.432-8.5,3.074-13.683a15.3,15.3,0,0,0-10.5,6.633,19.121,19.121,0,0,0-2.965,8.647c-.041-3,.994-13.658.957-13.473a14.069,14.069,0,0,0,11.449-3.792c3.081-3,4.88-7.419,5.416-12.584a14.628,14.628,0,0,0-11.426,3.792,15.017,15.017,0,0,0-4.806,9.024,75.715,75.715,0,0,1,3.151-12.1,13.922,13.922,0,0,0,11.38-3.795c3.106-3,4.918-7.421,5.448-12.585a14.045,14.045,0,0,0-11.249,3.634,77.73,77.73,0,0,1,4.138-6.727,14.514,14.514,0,0,0,3.432,1.58,12.48,12.48,0,0,0,8.728-.673c3.718-1.678,6.583-5.193,8.487-9.881-4.027-2.023-8.132-2.4-11.843-.718a11.845,11.845,0,0,0-1.832,1.017A66.634,66.634,0,0,1,153,581.7a13.72,13.72,0,0,0,11.527-2.736c3.29-2.7,5.335-6.943,6.259-12.039a13.8,13.8,0,0,0-11.67,2.715c-3.033,2.514-5.017,6.347-6.008,10.962-.782.626-1.522,1.269-2.262,1.93a17.963,17.963,0,0,0,2.612-6.231,21.725,21.725,0,0,0-1.906-13.986,18.758,18.758,0,0,0-7.274,11.165,21.893,21.893,0,0,0,1.83,13.817q-2.176,2.386-4.134,5a18.636,18.636,0,0,0,1.41-6.234,21.015,21.015,0,0,0-3.925-13.351,20.2,20.2,0,0,0-5.512,12.542,21,21,0,0,0,3.85,13.2c-1.205,1.93-2.3,3.925-3.319,5.975a19.934,19.934,0,0,0,.243-7.794,19.068,19.068,0,0,0-6.861-11.581,21.879,21.879,0,0,0-2.441,13.857,19.085,19.085,0,0,0,6.335,11.147c-.745,2.419-1.628,4.761-2.4,7.185a19.909,19.909,0,0,0-1-9.308,17.239,17.239,0,0,0-8.693-9.628,22.326,22.326,0,0,0,0,14.163,17.251,17.251,0,0,0,8.413,9.475q-.894,3.493-1.478,7.093a19.194,19.194,0,0,0-1.421-5.323,16.718,16.718,0,0,0-9.263-8.9,22.466,22.466,0,0,0,.847,14.13,16.564,16.564,0,0,0,8.85,8.727c-.146,2.028-.255,4.066-.255,6.119a17.449,17.449,0,0,0-3.081-6.3,14.677,14.677,0,0,0-10.883-5.6c-.032,5.206,1.232,9.873,3.956,13.347a14.623,14.623,0,0,0,10.291,5.543,83.971,83.971,0,0,0,1.1,8.816,16.954,16.954,0,0,0-4.491-6.436,13.819,13.819,0,0,0-11.6-2.977c.812,5.117,2.833,9.4,6.049,12.178a13.75,13.75,0,0,0,11.243,3.031c.037.087.037.171.071.256.533,2.283,1.2,4.51,1.913,6.68a15.083,15.083,0,0,0-3.435-3.287,13.531,13.531,0,0,0-11.808-1.452c1.276,4.981,3.643,8.976,7.141,11.318a13.379,13.379,0,0,0,11.286,1.6c.879,2.026,1.87,4,2.93,5.9a13.713,13.713,0,0,0-4.347-2.9c-3.788-1.528-7.879-.985-11.85,1.2,2.056,4.608,5.028,8,8.775,9.529,3.712,1.495,7.7,1.007,11.6-1.076,1.135,1.613,2.3,3.167,3.531,4.657a12.422,12.422,0,0,0-4.349-1.6c-3.958-.641-7.88.819-11.416,3.863,2.723,4.063,6.181,6.723,10.144,7.363,3.819.625,7.638-.736,11.107-3.613a66.656,66.656,0,0,0,5.727,4.942,11.989,11.989,0,0,0-5.485-.737c-3.958.412-7.53,2.871-10.393,6.771,3.391,3.246,7.25,4.928,11.24,4.515,3.9-.408,7.429-2.81,10.292-6.632a58.911,58.911,0,0,0,5.871,3.143,12.035,12.035,0,0,0-5.443.955c-3.753,1.613-6.648,5.074-8.631,9.727,3.992,2.1,8.091,2.541,11.843.93,3.4-1.463,6.112-4.447,8.056-8.464A95.31,95.31,0,0,1,183.339,719.477Z" transform="translate(-110.641 -562.319)" fill-rule="evenodd" fill="url(#linear-gradient)"/>
          </g>
          <g id="Group_13" data-name="Group 13">
            <path id="Path_40" data-name="Path 40" d="M183.339,719.477c.242-.376-.032-.838,0-1.62-.472-.087-5.247-.17-5.725-.238a20.8,20.8,0,0,0-3.5-12.582,14.941,14.941,0,0,0-10.682-6.174c-.207,5.2.894,9.928,3.5,13.545a14.339,14.339,0,0,0,3.993,3.823,56.979,56.979,0,0,1-8.8-4.1,22.105,22.105,0,0,0-.529-13.714,16.966,16.966,0,0,0-9.017-9.231,22.116,22.116,0,0,0,.454,14.153,17.414,17.414,0,0,0,2.791,4.65,70.209,70.209,0,0,1-7.911-6.976,21.859,21.859,0,0,0,2.795-13.729,19.427,19.427,0,0,0-6.58-11.807,21.641,21.641,0,0,0-2.761,13.765,18.965,18.965,0,0,0,3.049,7.856,74.363,74.363,0,0,1-7.326-10.572c.391-.472.351-.438,1.1-1.391a19.965,19.965,0,0,0,4.452-11.214,21.315,21.315,0,0,0-3.924-13.375,19.74,19.74,0,0,0-4.063,21.371c-.568-1.183-1.134-2.389-1.665-3.619a21.53,21.53,0,0,0-1.087-2.72,68.37,68.37,0,0,1-2.415-7.19c.259-.108.531-.223.78-.35,3.714-1.809,6.186-5.616,7.53-9.78a22.434,22.434,0,0,0-.56-14.147,17.8,17.8,0,0,0-8.319,10.119,21.11,21.11,0,0,0-.492,10.185A85.122,85.122,0,0,1,126.2,649.2a15.2,15.2,0,0,0,10.218-6.589c2.508-3.724,3.432-8.5,3.074-13.683a15.3,15.3,0,0,0-10.5,6.633,19.121,19.121,0,0,0-2.965,8.647c-.041-3,.994-13.658.957-13.473a14.069,14.069,0,0,0,11.449-3.792c3.081-3,4.88-7.419,5.416-12.584a14.628,14.628,0,0,0-11.426,3.792,15.017,15.017,0,0,0-4.806,9.024,75.715,75.715,0,0,1,3.151-12.1,13.922,13.922,0,0,0,11.38-3.795c3.106-3,4.918-7.421,5.448-12.585a14.045,14.045,0,0,0-11.249,3.634,77.73,77.73,0,0,1,4.138-6.727,14.514,14.514,0,0,0,3.432,1.58,12.48,12.48,0,0,0,8.728-.673c3.718-1.678,6.583-5.193,8.487-9.881-4.027-2.023-8.132-2.4-11.843-.718a11.845,11.845,0,0,0-1.832,1.017A66.634,66.634,0,0,1,153,581.7a13.72,13.72,0,0,0,11.527-2.736c3.29-2.7,5.335-6.943,6.259-12.039a13.8,13.8,0,0,0-11.67,2.715c-3.033,2.514-5.017,6.347-6.008,10.962-.782.626-1.522,1.269-2.262,1.93a17.963,17.963,0,0,0,2.612-6.231,21.725,21.725,0,0,0-1.906-13.986,18.758,18.758,0,0,0-7.274,11.165,21.893,21.893,0,0,0,1.83,13.817q-2.176,2.386-4.134,5a18.636,18.636,0,0,0,1.41-6.234,21.015,21.015,0,0,0-3.925-13.351,20.2,20.2,0,0,0-5.512,12.542,21,21,0,0,0,3.85,13.2c-1.205,1.93-2.3,3.925-3.319,5.975a19.934,19.934,0,0,0,.243-7.794,19.068,19.068,0,0,0-6.861-11.581,21.879,21.879,0,0,0-2.441,13.857,19.085,19.085,0,0,0,6.335,11.147c-.745,2.419-1.628,4.761-2.4,7.185a19.909,19.909,0,0,0-1-9.308,17.239,17.239,0,0,0-8.693-9.628,22.326,22.326,0,0,0,0,14.163,17.251,17.251,0,0,0,8.413,9.475q-.894,3.493-1.478,7.093a19.194,19.194,0,0,0-1.421-5.323,16.718,16.718,0,0,0-9.263-8.9,22.466,22.466,0,0,0,.847,14.13,16.564,16.564,0,0,0,8.85,8.727c-.146,2.028-.255,4.066-.255,6.119a17.449,17.449,0,0,0-3.081-6.3,14.677,14.677,0,0,0-10.883-5.6c-.032,5.206,1.232,9.873,3.956,13.347a14.623,14.623,0,0,0,10.291,5.543,83.971,83.971,0,0,0,1.1,8.816,16.954,16.954,0,0,0-4.491-6.436,13.819,13.819,0,0,0-11.6-2.977c.812,5.117,2.833,9.4,6.049,12.178a13.75,13.75,0,0,0,11.243,3.031c.037.087.037.171.071.256.533,2.283,1.2,4.51,1.913,6.68a15.083,15.083,0,0,0-3.435-3.287,13.531,13.531,0,0,0-11.808-1.452c1.276,4.981,3.643,8.976,7.141,11.318a13.379,13.379,0,0,0,11.286,1.6c.879,2.026,1.87,4,2.93,5.9a13.713,13.713,0,0,0-4.347-2.9c-3.788-1.528-7.879-.985-11.85,1.2,2.056,4.608,5.028,8,8.775,9.529,3.712,1.495,7.7,1.007,11.6-1.076,1.135,1.613,2.3,3.167,3.531,4.657a12.422,12.422,0,0,0-4.349-1.6c-3.958-.641-7.88.819-11.416,3.863,2.723,4.063,6.181,6.723,10.144,7.363,3.819.625,7.638-.736,11.107-3.613a66.656,66.656,0,0,0,5.727,4.942,11.989,11.989,0,0,0-5.485-.737c-3.958.412-7.53,2.871-10.393,6.771,3.391,3.246,7.25,4.928,11.24,4.515,3.9-.408,7.429-2.81,10.292-6.632a58.911,58.911,0,0,0,5.871,3.143,12.035,12.035,0,0,0-5.443.955c-3.753,1.613-6.648,5.074-8.631,9.727,3.992,2.1,8.091,2.541,11.843.93,3.4-1.463,6.112-4.447,8.056-8.464A95.31,95.31,0,0,1,183.339,719.477Z" transform="translate(-110.641 -562.319)" fill="none" stroke="#b2711e" stroke-miterlimit="10" stroke-width="0.75"/>
          </g>
        </g>
        <g id="Group_17" data-name="Group 17" transform="translate(201.814)">
          <g id="Group_15" data-name="Group 15">
            <path id="Path_41" data-name="Path 41" d="M278.6,718.972c1.943,4.017,4.66,7,8.056,8.464,3.752,1.611,7.851,1.166,11.843-.93-1.983-4.653-4.878-8.114-8.631-9.727a12.035,12.035,0,0,0-5.443-.955,58.914,58.914,0,0,0,5.871-3.143c2.863,3.822,6.395,6.224,10.292,6.632,3.99.413,7.849-1.269,11.24-4.515-2.863-3.9-6.435-6.359-10.393-6.771a11.987,11.987,0,0,0-5.485.737,66.652,66.652,0,0,0,5.727-4.942c3.469,2.878,7.288,4.238,11.107,3.613,3.963-.64,7.421-3.3,10.144-7.363-3.536-3.044-7.458-4.5-11.416-3.863a12.422,12.422,0,0,0-4.349,1.6c1.234-1.49,2.4-3.044,3.531-4.657,3.9,2.083,7.883,2.571,11.6,1.076,3.747-1.526,6.719-4.921,8.775-9.529-3.971-2.185-8.062-2.729-11.85-1.2a13.712,13.712,0,0,0-4.347,2.9c1.06-1.9,2.051-3.869,2.93-5.9a13.379,13.379,0,0,0,11.286-1.6c3.5-2.342,5.865-6.337,7.141-11.318a13.531,13.531,0,0,0-11.808,1.452,15.083,15.083,0,0,0-3.435,3.287c.711-2.17,1.38-4.4,1.913-6.68.034-.085.034-.168.071-.256a13.75,13.75,0,0,0,11.243-3.031c3.216-2.779,5.237-7.061,6.049-12.178a13.819,13.819,0,0,0-11.6,2.977,16.954,16.954,0,0,0-4.491,6.436,83.969,83.969,0,0,0,1.1-8.816,14.625,14.625,0,0,0,10.291-5.543c2.724-3.474,3.988-8.14,3.956-13.347a14.68,14.68,0,0,0-10.884,5.6,17.464,17.464,0,0,0-3.08,6.3c0-2.053-.109-4.091-.255-6.119a16.564,16.564,0,0,0,8.85-8.727,22.466,22.466,0,0,0,.847-14.13,16.718,16.718,0,0,0-9.263,8.9,19.2,19.2,0,0,0-1.421,5.323q-.584-3.595-1.478-7.093a17.251,17.251,0,0,0,8.413-9.475,22.326,22.326,0,0,0,0-14.163,17.239,17.239,0,0,0-8.693,9.628,19.909,19.909,0,0,0-1,9.308c-.776-2.424-1.659-4.766-2.4-7.185a19.085,19.085,0,0,0,6.335-11.147,21.879,21.879,0,0,0-2.441-13.857,19.068,19.068,0,0,0-6.861,11.581,19.934,19.934,0,0,0,.242,7.794c-1.021-2.05-2.113-4.046-3.318-5.975a21,21,0,0,0,3.85-13.2,20.2,20.2,0,0,0-5.513-12.542,21.014,21.014,0,0,0-3.924,13.351,18.637,18.637,0,0,0,1.41,6.234q-1.962-2.6-4.134-5a21.9,21.9,0,0,0,1.83-13.817,18.758,18.758,0,0,0-7.274-11.165,21.732,21.732,0,0,0-1.907,13.986,17.984,17.984,0,0,0,2.613,6.231c-.74-.66-1.48-1.3-2.262-1.93-.991-4.615-2.975-8.448-6.008-10.962a13.8,13.8,0,0,0-11.67-2.715c.924,5.1,2.969,9.334,6.259,12.039A13.721,13.721,0,0,0,297.9,581.7a66.627,66.627,0,0,1,5.543,5.23,11.844,11.844,0,0,0-1.832-1.017c-3.711-1.679-7.817-1.305-11.843.718,1.9,4.688,4.769,8.2,8.486,9.881a12.483,12.483,0,0,0,8.729.673,14.514,14.514,0,0,0,3.432-1.58,77.733,77.733,0,0,1,4.138,6.727A14.045,14.045,0,0,0,303.3,598.7c.53,5.163,2.342,9.584,5.448,12.585a13.922,13.922,0,0,0,11.38,3.795,75.712,75.712,0,0,1,3.151,12.1,15.017,15.017,0,0,0-4.806-9.024,14.628,14.628,0,0,0-11.426-3.792c.535,5.165,2.335,9.582,5.416,12.584a14.067,14.067,0,0,0,11.449,3.792c-.038-.185,1,10.471.957,13.473a19.12,19.12,0,0,0-2.965-8.647,15.3,15.3,0,0,0-10.5-6.633c-.358,5.187.566,9.959,3.074,13.683a15.2,15.2,0,0,0,10.218,6.589,85.121,85.121,0,0,1-2.224,15.213,21.11,21.11,0,0,0-.492-10.185,17.8,17.8,0,0,0-8.319-10.119,22.427,22.427,0,0,0-.56,14.147c1.344,4.164,3.816,7.971,7.53,9.78.249.127.521.242.78.35a68.363,68.363,0,0,1-2.415,7.19,21.529,21.529,0,0,0-1.087,2.72c-.531,1.23-1.1,2.436-1.665,3.619a19.746,19.746,0,0,0-4.063-21.371,21.309,21.309,0,0,0-3.924,13.375,19.957,19.957,0,0,0,4.452,11.214c.747.953.707.92,1.1,1.391a74.363,74.363,0,0,1-7.326,10.572,18.979,18.979,0,0,0,3.049-7.856,21.641,21.641,0,0,0-2.761-13.765,19.433,19.433,0,0,0-6.581,11.807,21.866,21.866,0,0,0,2.8,13.729,70.21,70.21,0,0,1-7.911,6.976,17.415,17.415,0,0,0,2.791-4.65,22.116,22.116,0,0,0,.454-14.153,16.966,16.966,0,0,0-9.017,9.231,22.112,22.112,0,0,0-.53,13.714,56.926,56.926,0,0,1-8.8,4.1,14.339,14.339,0,0,0,3.993-3.823c2.608-3.617,3.709-8.343,3.5-13.545a14.941,14.941,0,0,0-10.682,6.174,20.8,20.8,0,0,0-3.5,12.582c-.478.068-5.253.151-5.725.238.032.782-.243,1.244,0,1.62A95.31,95.31,0,0,1,278.6,718.972Z" transform="translate(-267.455 -562.319)" fill-rule="evenodd" fill="url(#linear-gradient-2)"/>
          </g>
          <g id="Group_16" data-name="Group 16">
            <path id="Path_42" data-name="Path 42" d="M278.6,718.972c1.943,4.017,4.66,7,8.056,8.464,3.752,1.611,7.851,1.166,11.843-.93-1.983-4.653-4.878-8.114-8.631-9.727a12.035,12.035,0,0,0-5.443-.955,58.914,58.914,0,0,0,5.871-3.143c2.863,3.822,6.395,6.224,10.292,6.632,3.99.413,7.849-1.269,11.24-4.515-2.863-3.9-6.435-6.359-10.393-6.771a11.987,11.987,0,0,0-5.485.737,66.652,66.652,0,0,0,5.727-4.942c3.469,2.878,7.288,4.238,11.107,3.613,3.963-.64,7.421-3.3,10.144-7.363-3.536-3.044-7.458-4.5-11.416-3.863a12.422,12.422,0,0,0-4.349,1.6c1.234-1.49,2.4-3.044,3.531-4.657,3.9,2.083,7.883,2.571,11.6,1.076,3.747-1.526,6.719-4.921,8.775-9.529-3.971-2.185-8.062-2.729-11.85-1.2a13.712,13.712,0,0,0-4.347,2.9c1.06-1.9,2.051-3.869,2.93-5.9a13.379,13.379,0,0,0,11.286-1.6c3.5-2.342,5.865-6.337,7.141-11.318a13.531,13.531,0,0,0-11.808,1.452,15.083,15.083,0,0,0-3.435,3.287c.711-2.17,1.38-4.4,1.913-6.68.034-.085.034-.168.071-.256a13.75,13.75,0,0,0,11.243-3.031c3.216-2.779,5.237-7.061,6.049-12.178a13.819,13.819,0,0,0-11.6,2.977,16.954,16.954,0,0,0-4.491,6.436,83.969,83.969,0,0,0,1.1-8.816,14.625,14.625,0,0,0,10.291-5.543c2.724-3.474,3.988-8.14,3.956-13.347a14.68,14.68,0,0,0-10.884,5.6,17.464,17.464,0,0,0-3.08,6.3c0-2.053-.109-4.091-.255-6.119a16.564,16.564,0,0,0,8.85-8.727,22.466,22.466,0,0,0,.847-14.13,16.718,16.718,0,0,0-9.263,8.9,19.2,19.2,0,0,0-1.421,5.323q-.584-3.595-1.478-7.093a17.251,17.251,0,0,0,8.413-9.475,22.326,22.326,0,0,0,0-14.163,17.239,17.239,0,0,0-8.693,9.628,19.909,19.909,0,0,0-1,9.308c-.776-2.424-1.659-4.766-2.4-7.185a19.085,19.085,0,0,0,6.335-11.147,21.879,21.879,0,0,0-2.441-13.857,19.068,19.068,0,0,0-6.861,11.581,19.934,19.934,0,0,0,.242,7.794c-1.021-2.05-2.113-4.046-3.318-5.975a21,21,0,0,0,3.85-13.2,20.2,20.2,0,0,0-5.513-12.542,21.014,21.014,0,0,0-3.924,13.351,18.637,18.637,0,0,0,1.41,6.234q-1.962-2.6-4.134-5a21.9,21.9,0,0,0,1.83-13.817,18.758,18.758,0,0,0-7.274-11.165,21.732,21.732,0,0,0-1.907,13.986,17.984,17.984,0,0,0,2.613,6.231c-.74-.66-1.48-1.3-2.262-1.93-.991-4.615-2.975-8.448-6.008-10.962a13.8,13.8,0,0,0-11.67-2.715c.924,5.1,2.969,9.334,6.259,12.039A13.721,13.721,0,0,0,297.9,581.7a66.627,66.627,0,0,1,5.543,5.23,11.844,11.844,0,0,0-1.832-1.017c-3.711-1.679-7.817-1.305-11.843.718,1.9,4.688,4.769,8.2,8.486,9.881a12.483,12.483,0,0,0,8.729.673,14.514,14.514,0,0,0,3.432-1.58,77.733,77.733,0,0,1,4.138,6.727A14.045,14.045,0,0,0,303.3,598.7c.53,5.163,2.342,9.584,5.448,12.585a13.922,13.922,0,0,0,11.38,3.795,75.712,75.712,0,0,1,3.151,12.1,15.017,15.017,0,0,0-4.806-9.024,14.628,14.628,0,0,0-11.426-3.792c.535,5.165,2.335,9.582,5.416,12.584a14.067,14.067,0,0,0,11.449,3.792c-.038-.185,1,10.471.957,13.473a19.12,19.12,0,0,0-2.965-8.647,15.3,15.3,0,0,0-10.5-6.633c-.358,5.187.566,9.959,3.074,13.683a15.2,15.2,0,0,0,10.218,6.589,85.121,85.121,0,0,1-2.224,15.213,21.11,21.11,0,0,0-.492-10.185,17.8,17.8,0,0,0-8.319-10.119,22.427,22.427,0,0,0-.56,14.147c1.344,4.164,3.816,7.971,7.53,9.78.249.127.521.242.78.35a68.363,68.363,0,0,1-2.415,7.19,21.529,21.529,0,0,0-1.087,2.72c-.531,1.23-1.1,2.436-1.665,3.619a19.746,19.746,0,0,0-4.063-21.371,21.309,21.309,0,0,0-3.924,13.375,19.957,19.957,0,0,0,4.452,11.214c.747.953.707.92,1.1,1.391a74.363,74.363,0,0,1-7.326,10.572,18.979,18.979,0,0,0,3.049-7.856,21.641,21.641,0,0,0-2.761-13.765,19.433,19.433,0,0,0-6.581,11.807,21.866,21.866,0,0,0,2.8,13.729,70.21,70.21,0,0,1-7.911,6.976,17.415,17.415,0,0,0,2.791-4.65,22.116,22.116,0,0,0,.454-14.153,16.966,16.966,0,0,0-9.017,9.231,22.112,22.112,0,0,0-.53,13.714,56.926,56.926,0,0,1-8.8,4.1,14.339,14.339,0,0,0,3.993-3.823c2.608-3.617,3.709-8.343,3.5-13.545a14.941,14.941,0,0,0-10.682,6.174,20.8,20.8,0,0,0-3.5,12.582c-.478.068-5.253.151-5.725.238.032.782-.243,1.244,0,1.62A95.31,95.31,0,0,1,278.6,718.972Z" transform="translate(-267.455 -562.319)" fill="none" stroke="#b2711e" stroke-miterlimit="10" stroke-width="0.75"/>
          </g>
        </g>
      </g>
    </g>
    <g id="Group_44" data-name="Group 44" transform="translate(93 24)">
      <g id="Group_43" data-name="Group 43">
        <path id="Path_108" data-name="Path 108" d="M361.026,347.991c-22.775-19.366-29.621-37.34-26.3-46.563,1.143-3.175,3.547-5.095,6.432-5.134a12.09,12.09,0,0,1,8.866,3.579c3.412,3.366,5.449,8.951,5.449,14.94h-4.857c0-4.647-1.534-9.046-4-11.482a7.364,7.364,0,0,0-5.389-2.181c-1.027.014-1.616,1.053-1.929,1.923-2.223,6.175,2.568,22.249,24.877,41.218Z" transform="translate(-333.935 -296.292)" fill="#f4cc6a"/>
        <path id="Path_109" data-name="Path 109" d="M426.733,347.991l-3.146-3.7c22.309-18.969,27.1-35.043,24.878-41.218-.313-.869-.9-1.909-1.929-1.923a7.336,7.336,0,0,0-5.389,2.181c-2.47,2.436-4,6.835-4,11.482h-4.857c0-5.989,2.037-11.574,5.45-14.94a12.1,12.1,0,0,1,8.866-3.579c2.885.039,5.289,1.959,6.432,5.134C456.354,310.651,449.508,328.625,426.733,347.991Z" transform="translate(-364.577 -296.292)" fill="#f4cc6a"/>
      </g>
      <path id="Path_110" data-name="Path 110" d="M403.774,388.3a29.249,29.249,0,0,0,2.886,12.722H386.149a29.48,29.48,0,0,0,0-25.444h20.512A29.249,29.249,0,0,0,403.774,388.3Z" transform="translate(-351.781 -323.393)" fill="#e1ad3d"/>
      <path id="Path_111" data-name="Path 111" d="M359.333,306.9v22.774a27.906,27.906,0,0,0,55.812,0V306.9Z" transform="translate(-342.616 -299.916)" fill="#f4cc6a"/>
      <path id="Path_112" data-name="Path 112" d="M409.2,423.39a15.548,15.548,0,0,0-31.1,0Z" transform="translate(-349.033 -334.419)" fill="#e1ad3d"/>
      <rect id="Rectangle_1" data-name="Rectangle 1" width="60.382" height="7.769" transform="translate(14.432 110.409)" fill="#c68f30"/>
      <rect id="Rectangle_2" data-name="Rectangle 2" width="47.482" height="23.027" transform="translate(20.882 87.382)" fill="#f4cc6a"/>
      <path id="Path_113" data-name="Path 113" d="M406.128,450.011H381.184a3.077,3.077,0,0,0-3.076-3.076v-8.281a3.076,3.076,0,0,0,3.076-3.076h24.944a3.076,3.076,0,0,0,3.076,3.076v8.281A3.076,3.076,0,0,0,406.128,450.011Z" transform="translate(-349.033 -343.899)" fill="#c68f30"/>
    </g>
    <text id="_1" data-name="1" transform="translate(129 68)" fill="#e4f46a" font-size="30" font-family="Lato-Regular, Lato" letter-spacing="0.119em"><tspan x="0" y="0">1</tspan></text>
    <text id="_1st_PLACE" data-name="1st PLACE" transform="translate(89 163)" fill="#c29b45" font-size="18" font-family="Lato-Regular, Lato" letter-spacing="0.119em"><tspan x="0" y="0">1</tspan><tspan y="0" font-size="10.499" baseline-shift="5.999400079342301">ST</tspan><tspan y="0" xml:space="preserve"> PLACE</tspan></text>
  </g>
</svg>
