<svg xmlns="http://www.w3.org/2000/svg" width="317.738" height="257.879" viewBox="0 0 317.738 257.879">
  <g id="Group_167" data-name="Group 167" transform="translate(-567.9 -553.995)">
    <path id="Path_288" data-name="Path 288" d="M576.648,811.874a8.747,8.747,0,0,1-8.748-8.746V562.741A8.746,8.746,0,0,1,576.648,554H876.89a8.746,8.746,0,0,1,8.748,8.746V803.128a8.747,8.747,0,0,1-8.748,8.746Z" transform="translate(0 0)" fill="#e1ad3d"/>
    <path id="Path_289" data-name="Path 289" d="M832.679,778.859H598.89a19.941,19.941,0,0,0-19.94-19.94V584.984a19.941,19.941,0,0,0,19.94-19.94H832.679a19.941,19.941,0,0,0,19.94,19.94V758.918A19.941,19.941,0,0,0,832.679,778.859Z" transform="translate(10.984 10.983)" fill="#f4cc6a"/>
    <rect id="Rectangle_9" data-name="Rectangle 9" width="154.686" height="18.686" transform="translate(649.426 601.411)" fill="#fff"/>
    <rect id="Rectangle_10" data-name="Rectangle 10" width="87.06" height="10.517" transform="translate(683.239 629.197)" fill="#fff"/>
    <g id="Group_165" data-name="Group 165" transform="translate(625.335 676.988)">
      <rect id="Rectangle_11" data-name="Rectangle 11" width="107.147" height="10.517" fill="#fff"/>
      <rect id="Rectangle_12" data-name="Rectangle 12" width="107.147" height="10.517" transform="translate(0 53.718)" fill="#fff"/>
      <rect id="Rectangle_13" data-name="Rectangle 13" width="107.147" height="10.517" transform="translate(0 26.859)" fill="#fff"/>
    </g>
  </g>
</svg>
