<svg xmlns="http://www.w3.org/2000/svg" width="348.938" height="103.166" viewBox="0 0 348.938 103.166">
  <g id="Crece_CMS_Crece_CMS_Completo_Horizontal_Blanco" data-name="Crece CMS_Crece CMS Completo Horizontal_Blanco" style="isolation: isolate">
    <g id="Capa_1" data-name="Capa 1" transform="translate(0 0)">
      <path id="Trazado_2275" data-name="Trazado 2275" d="M246.36,132.245c0-7.664,5.807-14.225,14.8-14.225a14.317,14.317,0,0,1,9.073,2.755v6.007a11.981,11.981,0,0,0-8.6-3.581c-5.73,0-9.694,4.026-9.694,9.044s3.944,9.04,9.694,9.04a11.981,11.981,0,0,0,8.6-3.581v6.007a14.24,14.24,0,0,1-9.073,2.755C252.167,146.466,246.36,139.9,246.36,132.245Z" transform="translate(-144.523 -93.645)" fill="#fff"/>
      <path id="Trazado_2276" data-name="Trazado 2276" d="M325.5,117.78V123.9c-4.121-.659-8.357,1.433-8.357,7.387l-.057-.22V145.9H311.63V118.334h5.453v4.742A9.8,9.8,0,0,1,325.5,117.78Z" transform="translate(-178.625 -93.52)" fill="#fff"/>
      <path id="Trazado_2277" data-name="Trazado 2277" d="M373.112,134.41H350.941c.869,4.355,4.47,7.115,9.46,7.115a16.757,16.757,0,0,0,9.6-2.98V143.8a17.355,17.355,0,0,1-9.87,2.755c-9.226,0-14.8-6.5-14.8-14.221a13.845,13.845,0,0,1,14.221-14.173C368.571,118.146,373.752,125.724,373.112,134.41ZM351,130.112h16.37c-.817-4.026-3.772-6.786-7.951-6.786A8.327,8.327,0,0,0,351,130.112Z" transform="translate(-196.232 -93.718)" fill="#fff"/>
      <path id="Trazado_2278" data-name="Trazado 2278" d="M411.65,142.137l3.424-3.858a10.873,10.873,0,0,0,7.024,3.2c2.435,0,4.236-1.213,4.236-3.032,0-5.348-13.848-3.367-13.815-12.736,0-4.193,3.658-7.64,9.345-7.64a12.893,12.893,0,0,1,9.288,3.911l-3.195,3.82c-1.275-1.1-3.6-2.7-6.036-2.7-2.206,0-3.772,1.1-3.772,2.76-.057,4.961,13.872,3.142,13.872,12.736-.057,4.522-4.064,7.936-10.1,7.936A15.393,15.393,0,0,1,411.65,142.137Z" transform="translate(-230.883 -93.671)" fill="#fff"/>
      <path id="Trazado_2279" data-name="Trazado 2279" d="M491.222,134.41H469.05c.874,4.355,4.47,7.115,9.465,7.115a16.713,16.713,0,0,0,9.574-2.98V143.8a17.35,17.35,0,0,1-9.866,2.755c-9.231,0-14.8-6.5-14.8-14.221a13.844,13.844,0,0,1,14.216-14.173C486.695,118.146,491.871,125.724,491.222,134.41Zm-22.109-4.3h16.365c-.812-4.026-3.772-6.786-7.951-6.786A8.329,8.329,0,0,0,469.112,130.112Z" transform="translate(-257.931 -93.718)" fill="#fff"/>
      <path id="Trazado_2280" data-name="Trazado 2280" d="M255.207,208.978c-.072.922-.478,4.642-4.331,4.642-4.236,0-4.556-4.479-4.556-8.309,0-4.627,1.222-8.07,4.751-8.07,3.82,0,4.049,3.591,4.088,4.565H253.4c-.033-.54-.134-3.008-2.364-3.008-2.512,0-2.894,3.424-2.894,6.523,0,3.343.372,6.757,2.779,6.757,2.12,0,2.445-2.3,2.512-3.1Z" transform="translate(-144.502 -135.036)" fill="#fff"/>
      <path id="Trazado_2281" data-name="Trazado 2281" d="M270.53,210.011v-4.049h1.652c.024.31.052.86.052,2.12a3.247,3.247,0,0,1,3.142-2.3v1.91c-2.044.067-3.109,1.351-3.109,3.538v6.595h-1.714Z" transform="translate(-157.151 -139.498)" fill="#fff"/>
      <path id="Trazado_2282" data-name="Trazado 2282" d="M285.729,212.206c0,2.33.4,4.365,2.283,4.365a2.187,2.187,0,0,0,2.163-2.13h1.681a3.788,3.788,0,0,1-3.863,3.605c-3.5,0-3.992-3.2-3.992-6.16,0-3.763,1.289-6.136,4.083-6.136,3.123,0,3.863,2.574,3.863,5.539a8.986,8.986,0,0,1-.033.917Zm4.508-1.347c0-2.044-.435-3.639-2.168-3.639-2.173,0-2.278,2.827-2.311,3.639Z" transform="translate(-164.189 -139.482)" fill="#fff"/>
      <path id="Trazado_2283" data-name="Trazado 2283" d="M313.867,196.11v16.68H312.21c-.033-.3-.062-1.084-.062-1.595a2.618,2.618,0,0,1-2.794,1.81c-2.474,0-3.524-2.106-3.524-6.279,0-3.792,1.4-6.012,3.9-6.012,1.538,0,2.139.659,2.388,1.237v-5.84Zm-6.251,10.634c0,3.429.778,4.732,2.235,4.732,1.843,0,2.335-1.576,2.335-4.775,0-3.462-.478-4.446-2.2-4.446C308.571,202.232,307.616,203.473,307.616,206.744Z" transform="translate(-175.594 -134.445)" fill="#fff"/>
      <path id="Trazado_2284" data-name="Trazado 2284" d="M330,200.935h1.714V212.8H330Zm0-4.775h1.714v2.454H330Z" transform="translate(-188.223 -134.472)" fill="#fff"/>
      <path id="Trazado_2285" data-name="Trazado 2285" d="M338.4,202.7h1.676V199.53h1.7V202.7h2.068v1.471h-2.068v7.8c0,.812.177,1.323,1.074,1.323a4.478,4.478,0,0,0,.836-.062v1.332a4.2,4.2,0,0,1-1.4.2c-1.394,0-2.206-.568-2.206-2.44V204.2H338.4Z" transform="translate(-192.611 -136.232)" fill="#fff"/>
      <path id="Trazado_2286" data-name="Trazado 2286" d="M375.436,206.845c0-2.965.043-5.95.091-7.64H375.5c-.587,2.755-2.03,9.374-3.3,14.407h-1.676c-.955-4.374-2.469-11.494-3.051-14.436h-.086c.1,1.848.162,5.358.162,8.084v6.346H365.9v-15.9h2.6c1.285,5,2.531,11.064,2.913,13.146h0c.3-1.719,1.848-8.333,3.118-13.146h2.579v15.9H375.4Z" transform="translate(-206.979 -135.281)" fill="#fff"/>
      <path id="Trazado_2287" data-name="Trazado 2287" d="M403.147,215.709c0,.745.062,1.724.1,2.1h-1.571a7.78,7.78,0,0,1-.115-1.347,2.8,2.8,0,0,1-2.813,1.562c-2.283,0-3.1-1.786-3.1-3.438,0-2.173,1.471-3.82,4.584-3.82a11.344,11.344,0,0,1,1.242.038v-1.585c0-.926-.177-2.1-1.786-2.1-1.743,0-1.853,1.246-1.91,2.044H396.1c.048-1.7.864-3.448,3.639-3.448,2.306,0,3.41,1.117,3.41,3.309ZM401.5,212.18a7.339,7.339,0,0,0-1.175-.062c-2.111,0-2.975,1.012-2.975,2.335a1.871,1.871,0,0,0,1.848,2.1c1.738,0,2.3-1.227,2.3-3.729Z" transform="translate(-222.518 -139.461)" fill="#fff"/>
      <path id="Trazado_2288" data-name="Trazado 2288" d="M418.775,209.6v-3.677h1.657a14.23,14.23,0,0,1,.062,1.557,2.827,2.827,0,0,1,2.817-1.762c1.719,0,3.056.979,3.056,3.62v8.447H424.61v-8.118c0-1.433-.478-2.435-1.829-2.435-1.6,0-2.283,1.051-2.283,3.491v7.063H418.77Z" transform="translate(-234.603 -139.464)" fill="#fff"/>
      <path id="Trazado_2289" data-name="Trazado 2289" d="M447.858,215.709c0,.745.062,1.724.1,2.1H446.4a7.78,7.78,0,0,1-.115-1.347,2.8,2.8,0,0,1-2.813,1.562c-2.283,0-3.1-1.786-3.1-3.438,0-2.173,1.471-3.82,4.584-3.82a11.345,11.345,0,0,1,1.242.038v-1.585c0-.926-.177-2.1-1.786-2.1-1.743,0-1.853,1.246-1.91,2.044h-1.657c.048-1.7.864-3.448,3.639-3.448,2.306,0,3.41,1.117,3.41,3.309Zm-1.643-3.529a7.339,7.339,0,0,0-1.175-.062c-2.111,0-2.975,1.012-2.975,2.335a1.871,1.871,0,0,0,1.848,2.1c1.738,0,2.3-1.227,2.3-3.729Z" transform="translate(-245.888 -139.461)" fill="#fff"/>
      <path id="Trazado_2290" data-name="Trazado 2290" d="M470.22,217.067c0,3.123-.75,5.315-4.159,5.315-3.07,0-3.729-1.991-3.82-3.276h1.743a1.9,1.9,0,0,0,2.12,1.815c2,0,2.388-1.456,2.388-3.854v-1.084a2.7,2.7,0,0,1-2.77,1.81c-2.388,0-3.581-2.029-3.581-5.764,0-4.3,1.585-6.279,3.82-6.279,1.609,0,2.292.778,2.512,1.552a9.9,9.9,0,0,1,.086-1.356H470.2c-.024.621-.033,1.824-.033,3.429ZM463.945,212c0,2.865.788,4.3,2.268,4.3,1.843,0,2.34-1.815,2.34-4.584s-.377-4.431-2.2-4.431C464.781,207.269,463.945,208.906,463.945,212Z" transform="translate(-257.262 -139.482)" fill="#fff"/>
      <path id="Trazado_2291" data-name="Trazado 2291" d="M486.989,212.206c0,2.33.4,4.365,2.287,4.365a2.187,2.187,0,0,0,2.163-2.13h1.681a3.792,3.792,0,0,1-3.863,3.605c-3.5,0-3.987-3.2-3.987-6.16,0-3.763,1.289-6.136,4.078-6.136,3.128,0,3.863,2.574,3.863,5.539,0,.229,0,.626-.029.917Zm4.513-1.347c0-2.044-.435-3.639-2.168-3.639-2.173,0-2.283,2.827-2.311,3.639Z" transform="translate(-269.347 -139.482)" fill="#fff"/>
      <path id="Trazado_2292" data-name="Trazado 2292" d="M507.974,209.5c0-2.111,0-3-.024-3.562H509.6a13.644,13.644,0,0,1,.062,1.519,2.731,2.731,0,0,1,2.655-1.714,2.306,2.306,0,0,1,2.464,1.767,2.942,2.942,0,0,1,2.865-1.767c1.48,0,2.865.716,2.865,3.453v8.6h-1.7v-8.314c0-1.2-.353-2.225-1.681-2.225-1.509,0-2.034,1.342-2.034,2.937v7.64h-1.7v-8.3c0-1.471-.478-2.263-1.647-2.263-1.433,0-2.087,1.289-2.087,3.094V217.8h-1.686Z" transform="translate(-281.197 -139.477)" fill="#fff"/>
      <path id="Trazado_2293" data-name="Trazado 2293" d="M542.119,212.206c0,2.33.4,4.365,2.283,4.365a2.193,2.193,0,0,0,2.168-2.13h1.681a3.792,3.792,0,0,1-3.863,3.605c-3.5,0-3.987-3.2-3.987-6.16,0-3.763,1.285-6.136,4.078-6.136,3.123,0,3.863,2.574,3.863,5.539,0,.229,0,.626-.029.917Zm4.508-1.347c0-2.044-.43-3.639-2.163-3.639-2.173,0-2.283,2.827-2.311,3.639Z" transform="translate(-298.151 -139.482)" fill="#fff"/>
      <path id="Trazado_2294" data-name="Trazado 2294" d="M563.06,209.6v-3.677h1.662c.029.291.062.759.062,1.557a2.817,2.817,0,0,1,2.813-1.762c1.724,0,3.056.979,3.056,3.62v8.447h-1.729v-8.118c0-1.433-.478-2.435-1.824-2.435-1.6,0-2.287,1.051-2.287,3.491v7.063h-1.729Z" transform="translate(-309.99 -139.464)" fill="#fff"/>
      <path id="Trazado_2295" data-name="Trazado 2295" d="M583.2,202.7h1.676V199.53h1.7V202.7h2.068v1.471h-2.068v7.8c0,.812.177,1.323,1.074,1.323a4.479,4.479,0,0,0,.836-.062v1.332a4.192,4.192,0,0,1-1.4.2c-1.4,0-2.211-.568-2.211-2.44V204.2H583.2Z" transform="translate(-320.513 -136.232)" fill="#fff"/>
      <path id="Trazado_2296" data-name="Trazado 2296" d="M610.387,209.218c.129,1.633.912,2.942,2.66,2.942,1.667,0,2.507-.912,2.507-2.746,0-1.671-.678-2.564-2.865-3.61-2.493-1.189-3.6-2.292-3.6-4.6a3.732,3.732,0,0,1,4-3.935c3.075,0,3.9,2.2,3.949,4.069H615.32c-.081-.769-.315-2.612-2.292-2.612a2.076,2.076,0,0,0-2.182,2.326c0,1.523.683,2.244,2.674,3.19,2.784,1.332,3.82,2.655,3.82,5.024a4,4,0,0,1-4.345,4.355c-3.19,0-4.24-2.092-4.365-4.4Z" transform="translate(-333.8 -135.051)" fill="#fff"/>
      <path id="Trazado_2297" data-name="Trazado 2297" d="M640.26,211.748c0,4.178-1.432,6.3-4.092,6.3s-4.088-2.039-4.088-6.26c0-4.121,1.609-6.036,4.159-6.036S640.26,207.779,640.26,211.748Zm-6.427.048c0,3.233.807,4.775,2.354,4.775s2.321-1.557,2.321-4.775c0-3.042-.754-4.536-2.33-4.536C634.683,207.245,633.833,208.577,633.833,211.8Z" transform="translate(-346.052 -139.482)" fill="#fff"/>
      <path id="Trazado_2298" data-name="Trazado 2298" d="M654.247,212.6v-10.41H652.7v-1.471h1.547v-1.638c0-1.753.64-3.295,2.8-3.295a3.787,3.787,0,0,1,.955.124v1.519a3.519,3.519,0,0,0-.783-.1c-.955,0-1.261.587-1.261,1.791v1.6h1.867v1.471h-1.867V212.6Z" transform="translate(-356.825 -134.278)" fill="#fff"/>
      <path id="Trazado_2299" data-name="Trazado 2299" d="M664.48,202.7h1.681V199.53h1.7V202.7h2.073v1.471h-2.073v7.8c0,.812.182,1.323,1.079,1.323a4.51,4.51,0,0,0,.836-.062v1.332a4.2,4.2,0,0,1-1.4.2c-1.394,0-2.206-.568-2.206-2.44V204.2h-1.676Z" transform="translate(-362.98 -136.232)" fill="#fff"/>
      <path id="Trazado_2300" data-name="Trazado 2300" d="M681.049,206.139c1.151,5.635,1.7,8.342,1.91,9.971h.033c.229-1.547.716-3.4,2.192-9.971h1.647c1.394,6.208,1.91,8.619,2.092,9.918h.024c.181-1.294.625-3.429,2-9.918H692.7L689.783,218h-1.819c-.855-3.882-1.743-7.745-2.006-9.589h-.024c-.229,1.772-1.1,5.253-2.12,9.589h-1.872L679.22,206.12Z" transform="translate(-370.681 -139.675)" fill="#fff"/>
      <path id="Trazado_2301" data-name="Trazado 2301" d="M718.077,215.709c0,.745.062,1.724.1,2.1H716.6a7.774,7.774,0,0,1-.115-1.347,2.807,2.807,0,0,1-2.813,1.562c-2.283,0-3.1-1.786-3.1-3.438,0-2.173,1.471-3.82,4.584-3.82a11.343,11.343,0,0,1,1.242.038v-1.585c0-.926-.177-2.1-1.786-2.1-1.743,0-1.853,1.246-1.91,2.044h-1.657c.048-1.7.86-3.448,3.639-3.448,2.306,0,3.41,1.117,3.41,3.309Zm-1.643-3.529a7.338,7.338,0,0,0-1.175-.062c-2.115,0-2.975,1.012-2.975,2.335a1.869,1.869,0,0,0,1.848,2.1c1.738,0,2.3-1.227,2.3-3.729Z" transform="translate(-387.061 -139.461)" fill="#fff"/>
      <path id="Trazado_2302" data-name="Trazado 2302" d="M733.684,210.011c0-1.91,0-3.2-.024-4.049h1.647c0,.31.057.86.057,2.12a3.247,3.247,0,0,1,3.142-2.3v1.91c-2.044.067-3.109,1.351-3.109,3.538v6.595h-1.714Z" transform="translate(-399.125 -139.498)" fill="#fff"/>
      <path id="Trazado_2303" data-name="Trazado 2303" d="M748.909,212.206c0,2.33.4,4.365,2.283,4.365a2.193,2.193,0,0,0,2.168-2.13h1.676a3.782,3.782,0,0,1-3.858,3.605c-3.5,0-3.987-3.2-3.987-6.16,0-3.763,1.285-6.136,4.078-6.136,3.123,0,3.863,2.574,3.863,5.539a8.986,8.986,0,0,1-.033.917Zm4.508-1.347c0-2.044-.43-3.639-2.163-3.639-2.173,0-2.283,2.827-2.311,3.639Z" transform="translate(-406.194 -139.482)" fill="#fff"/>
      <path id="Trazado_2304" data-name="Trazado 2304" d="M134.53,74.871v64.466c0,5.052-4.933,8.8-10.133,7.707l-2.894-.573V90.124a8.077,8.077,0,0,0-10.167-7.64L67.29,93.581V87.316a7.975,7.975,0,0,1,6.208-7.64l50.608-12.44C129.378,65.932,134.53,69.7,134.53,74.871Z" transform="translate(-50.963 -66.976)" fill="#fff"/>
      <g id="Grupo_214" data-name="Grupo 214" transform="translate(5.004 26.605)" style="mix-blend-mode: multiply;isolation: isolate">
        <path id="Trazado_2305" data-name="Trazado 2305" d="M54.9,122.69v11.79l-.244.057-.769.191-10.276,2.526H43.58v-5.6a7.936,7.936,0,0,1,6.065-7.64Z" transform="translate(-43.58 -122.69)" fill="#fff"/>
        <path id="Trazado_2306" data-name="Trazado 2306" d="M151.6,142.326c-.067-.215-.143-.42-.224-.616A5.257,5.257,0,0,1,151.6,142.326Z" transform="translate(-99.903 -132.627)" fill="#fff"/>
        <path id="Trazado_2307" data-name="Trazado 2307" d="M167.152,230.729v8.118a8.063,8.063,0,0,1-9.88,7.7l-2.612-.635V228.26Z" transform="translate(-101.616 -177.848)" fill="#fff"/>
      </g>
      <path id="Trazado_2308" data-name="Trazado 2308" d="M90.136,209.074v.649a7.067,7.067,0,0,1-8.6,6.9L38.625,204.681a7.058,7.058,0,0,1-5.525-6.9V162.606a7.067,7.067,0,0,1,3.973-6.356V189.2a8.906,8.906,0,0,0,7.139,8.7l45.666,11.122Z" transform="translate(-33.1 -113.62)" fill="#fff"/>
      <path id="Trazado_2309" data-name="Trazado 2309" d="M95.4,188.216l-34.2-6.757a9.062,9.062,0,0,1-7.325-8.691V150.09l-10.028,2.459-.291.081v33.331a7.951,7.951,0,0,0,6.356,7.707L95.61,204.814V188.249Z" transform="translate(-38.565 -110.401)" fill="#fff"/>
      <path id="Trazado_2310" data-name="Trazado 2310" d="M108,139.792v38.364l-34.191-6.747a7.991,7.991,0,0,1-6.518-7.7V140.785l1.012-.253,30.843-7.574.224-.053c.153-.038.3-.067.454-.091s.368-.048.554-.062.372,0,.554,0h.057a7.034,7.034,0,0,1,1.714.229l.148.038.086.029.1.029.3.1.3.115.31.138c.2.1.406.205.6.32h0a6.031,6.031,0,0,1,.559.377,6.3,6.3,0,0,1,.774.654c.162.162.315.325.478.478.062.072.119.148.177.22l.081.115c.057.072.105.138.153.21l.186.282a.478.478,0,0,1,.038.067l.1.162a.773.773,0,0,1,.048.086l.029.053h0c.029.048.048.1.072.138h0a.119.119,0,0,1,0,.033l.029.053v.053a2.413,2.413,0,0,1,.115.253.143.143,0,0,1,0,.038c.081.2.158.4.224.616.038.11.067.224.1.339s.057.229.081.344.048.234.062.358a.806.806,0,0,0,.033.244c.033.081,0,.033,0,.048v.143h0a1.124,1.124,0,0,0,.024.282A1.849,1.849,0,0,1,108,139.792Z" transform="translate(-50.963 -101.34)" fill="#fff"/>
      <path id="Trazado_2311" data-name="Trazado 2311" d="M141.78,133.27l.186.057-.1-.029Z" transform="translate(-89.882 -101.613)" fill="#fff"/>
      <path id="Trazado_2312" data-name="Trazado 2312" d="M144.07,134.13a5.989,5.989,0,0,1,.6.32C144.476,134.335,144.271,134.23,144.07,134.13Z" transform="translate(-91.079 -102.062)" fill="#fff"/>
      <path id="Trazado_2313" data-name="Trazado 2313" d="M151.6,142.326c-.067-.215-.143-.42-.224-.616A5.257,5.257,0,0,1,151.6,142.326Z" transform="translate(-94.898 -106.023)" fill="#fff"/>
      <path id="Trazado_2314" data-name="Trazado 2314" d="M142.874,133.681c.2.1.406.205.6.32A5.987,5.987,0,0,0,142.874,133.681Zm-1.094-.411.086.029.1.029Z" transform="translate(-89.882 -101.613)" fill="#fff"/>
    </g>
  </g>
</svg>
