<?xml version="1.0" encoding="UTF-8"?>
<svg width="324px" height="260px" viewBox="0 0 324 260" version="1.1" xmlns="http://www.w3.org/2000/svg" xmlns:xlink="http://www.w3.org/1999/xlink">
    <title>Group 2</title>
    <g id="Symbols" stroke="none" stroke-width="1" fill="none" fill-rule="evenodd">
        <g id="logo-fondo-transparente" transform="translate(-120.000000, -121.000000)" fill="#F7A722">
            <g id="Logo-Eduardo" transform="translate(500.160643, 250.774890) rotate(270.000000) translate(-500.160643, -250.774890) translate(250.160643, -249.225110)">
                <g id="Group-2" transform="translate(119.774890, 119.839357)">
                    <path d="M228,-2.95752202e-14 L252,-2.95752202e-14 C256.418278,-3.12750231e-14 260,3.581722 260,8 L260,315.293173 C260,319.711451 256.418278,323.293173 252,323.293173 L228,323.293173 C223.581722,323.293173 220,319.711451 220,315.293173 L220,8 C220,3.581722 223.581722,-2.87635957e-14 228,-2.95752202e-14 Z" id="Rectangle-2-Copy"></path>
                    <path d="M117,4.04781761e-13 L141,4.04781761e-13 C145.418278,4.03970137e-13 149,3.581722 149,8 L149,232.963855 C149,237.382133 145.418278,240.963855 141,240.963855 L117,240.963855 C112.581722,240.963855 109,237.382133 109,232.963855 L109,8 C109,3.581722 112.581722,4.02928851e-13 117,4.04781761e-13 Z" id="Rectangle-2-Copy-4"></path>
                    <path d="M8,-6.99885646e-14 L32,-6.99885646e-14 C36.418278,-7.16883675e-14 40,3.581722 40,8 L40,315.293173 C40,319.711451 36.418278,323.293173 32,323.293173 L8,323.293173 C3.581722,323.293173 5.41083001e-16,319.711451 0,315.293173 L0,8 C-5.41083001e-16,3.581722 3.581722,-6.91769401e-14 8,-6.99885646e-14 Z" id="Rectangle-2"></path>
                </g>
            </g>
        </g>
    </g>
</svg>