<svg xmlns="http://www.w3.org/2000/svg" width="275.877" height="82.298" viewBox="0 0 275.877 82.298">
  <g id="jalisco-talent-land-logo" transform="translate(-5 -5.375)">
    <path id="Path_173" data-name="Path 173" d="M395.007,76.776a3.542,3.542,0,0,1-2.552,1.035,3.539,3.539,0,0,1-3.655-3.655,3.707,3.707,0,0,1,6.345-2.552,3.647,3.647,0,0,1,1.1,2.621,4.45,4.45,0,0,1-1.241,2.552m-4.69-4.828a3.153,3.153,0,0,0-.9,2.138,2.766,2.766,0,0,0,.9,2.138,3.024,3.024,0,1,0,2.138-5.173,2.766,2.766,0,0,0-2.138.9m.552,4.207V72.086H392.8a1.471,1.471,0,0,1,.828.207,1.1,1.1,0,0,1,.552.966.859.859,0,0,1-.276.759,1.226,1.226,0,0,1-.69.276,1.512,1.512,0,0,1,.552.207,1.192,1.192,0,0,1,.345.9v.621l.069.138h-1.035c0-.138-.069-.345-.069-.552,0-.276,0-.414-.069-.483-.069-.138-.138-.276-.276-.276a2.989,2.989,0,0,0-.345-.069h-.414v1.448h-1.1Zm1.931-3.311a1.53,1.53,0,0,0-.621-.069H391.9v1.172h.414a1.068,1.068,0,0,0,.552-.138.537.537,0,0,0,.207-.483c.069-.207-.069-.345-.276-.483" transform="translate(-119.096 -20.209)" fill="#fff"/>
    <path id="Path_174" data-name="Path 174" d="M275.608,30.152v19.38h-5.173V30.152H263.4V25.6h19.242v4.552Z" transform="translate(-80.183 -6.276)" fill="#fff"/>
    <path id="Path_175" data-name="Path 175" d="M301.349,49.929c-.828,1.379-2.552,2.345-5.311,2.345-4.552,0-6.138-2.414-6.138-5.587,0-3.862,2.483-5.587,6.552-5.587H301V39.928c0-1.655-.69-2.966-2.966-2.966-1.931,0-3.035.759-3.035,2v.276h-4.621v-.276c0-3.173,2.276-5.862,7.725-5.862,5.862,0,7.725,3.035,7.725,6.966V51.791h-4.345Zm-.276-4.69v-.69H297.28c-1.517,0-2.414.483-2.414,2,0,1.172.69,1.931,2.552,1.931C299.832,48.48,301.073,47.17,301.073,45.239Z" transform="translate(-88.406 -8.603)" fill="#fff"/>
    <path id="Path_176" data-name="Path 176" d="M319,49.067V24.1h4.966V49.067Z" transform="translate(-97.436 -5.81)" fill="#fff"/>
    <path id="Path_177" data-name="Path 177" d="M339.676,52.336c-6.69,0-8.276-3.862-8.276-7.449V40.749c0-3.586,1.862-7.449,8.207-7.449,6.207,0,8,3.931,8,7.449V44.2h-11.38v1.241c0,1.793.759,3.242,3.448,3.242,2.621,0,3.242-1.1,3.242-2.207v-.207h4.552v.345C347.47,48.956,346.228,52.336,339.676,52.336ZM336.228,40.68h6.69v-.759c0-1.448-.759-3.1-3.311-3.1-2.621,0-3.379,1.586-3.379,3.1Z" transform="translate(-101.284 -8.665)" fill="#fff"/>
    <path id="Path_178" data-name="Path 178" d="M359.9,51.86V33.514h4.345l.276,2.414A6.125,6.125,0,0,1,369.97,33.1c4,0,6.552,2.69,6.552,7.173V51.86h-4.9V41.514c0-2.276-.621-4-3.173-4-2.828,0-3.586,1.862-3.586,4.345v10Z" transform="translate(-110.128 -8.603)" fill="#fff"/>
    <path id="Path_179" data-name="Path 179" d="M399.57,50.06h-2.69c-5.931,0-6.966-2.621-6.966-6.138V35.576H387.5V31.852h2.414V27.3h4.9v4.552h4.414v3.724h-4.414v8c0,1.655.621,2.345,2.828,2.345h1.931Z" transform="translate(-118.692 -6.803)" fill="#fff"/>
    <path id="Path_180" data-name="Path 180" d="M273.2,71.6h5.1V90.636h10.9v4.483h-16V71.6Z" transform="translate(-83.224 -20.55)" fill="#fff"/>
    <path id="Path_181" data-name="Path 181" d="M310.142,95.484c-.828,1.379-2.483,2.276-5.173,2.276-4.483,0-6.069-2.345-6.069-5.449,0-3.793,2.483-5.449,6.414-5.449H309.8V85.621c0-1.655-.69-2.9-2.9-2.9-1.862,0-2.966.759-2.966,2V85h-4.552v-.276c0-3.1,2.276-5.724,7.587-5.724,5.793,0,7.587,2.966,7.587,6.828V97.346H310.28Zm-.345-4.552v-.69h-3.724c-1.448,0-2.345.483-2.345,1.931,0,1.172.69,1.931,2.552,1.931C308.625,94.035,309.8,92.794,309.8,90.932Z" transform="translate(-91.199 -22.846)" fill="#fff"/>
    <path id="Path_182" data-name="Path 182" d="M327.4,97.415v-18h4.276l.276,2.345A6.065,6.065,0,0,1,337.263,79c3.931,0,6.414,2.621,6.414,7.035v11.38h-4.828V87.207c0-2.207-.621-3.931-3.1-3.931-2.759,0-3.517,1.793-3.517,4.276v9.863H327.4Z" transform="translate(-100.043 -22.846)" fill="#fff"/>
    <path id="Path_183" data-name="Path 183" d="M367.794,92.308a5.918,5.918,0,0,1-5.311,2.759c-3.931,0-6.483-2.621-6.483-7.1V83.342c0-4.414,2.552-7.1,6.552-7.1a6.007,6.007,0,0,1,5.035,2.207V70.1h4.828V94.584h-4.276Zm-.276-5.862V84.721c0-2.483-.759-4.207-3.517-4.207-2.552,0-3.242,1.655-3.242,3.931v2.276c0,2.276.621,4,3.242,4C366.759,90.722,367.518,88.929,367.518,86.446Z" transform="translate(-108.918 -20.085)" fill="#fff"/>
    <path id="Path_184" data-name="Path 184" d="M228.134,45.529,222,35.942a.823.823,0,0,0-.621-.345h0l-9.518-.552-6.69-9.725h0l-.069-.069-.069-.069-.069-.069h-.069a.068.068,0,0,1-.069-.069h-.207l-9.242-.345a.627.627,0,0,0-.552.276L187.235,33.8l-6.69-.345a.842.842,0,0,0-.621.276l-7.725,9.1h0v.138h0V43.8h0v.138h0l3.311,4.414-2.966,3.517h0l-.069.069v.069h0a.241.241,0,0,1-.069.138h0v.138h0c0,.069,0,.138.069.138h0c0,.069.069.069.069.138l3.311,4.552-3.173,3.517c-.069.069-.069.138-.138.207a.241.241,0,0,0-.069.138.65.65,0,0,0,.138.828l5.724,7.794a2.146,2.146,0,0,0,.414.276l7.656,1.517,5.862,7.863a.7.7,0,0,0,.483.276l8,1.035h.138c.138,0,.207,0,.276-.069h0c.069,0,.069-.069.138-.069h0l.138-.138,6.276-8.276L218,73.737h.207c.069,0,.069,0,.138-.069h0a.068.068,0,0,0,.069-.069h0l.069-.069v-.069h0L226,63.875a.629.629,0,0,0,0-.828l-3.1-4.621,2.276-3.173a.628.628,0,0,0,0-.828l-1.724-2.759,4.345-5.518c.483-.069.552-.414.345-.621M210,38.839l1.793-2.276,8.138.483-6.138,7.587Zm-.828-1.31-1.448-2.207h0l-.069-.069-.069-.069h0a.068.068,0,0,1-.069-.069h-.069c-.069,0-.069-.069-.138-.069h-.138l-8.966-.483,6.345-7.587,6.069,8.759Zm-28.346-2.621,6.69.345a.627.627,0,0,0,.552-.276l7.518-8.828,7.449.276-5.655,6.759h0l-1.862,2.276h0c0,.069-.069.069-.069.138a.3.3,0,0,0,.276.276h0l3.517.207h0l6.414.345-6.414,8.138-10.138-.69a.749.749,0,0,0-.621.276l-7.242,8.483-6.759-.759,2.483-2.966h0l3.311-3.931h0l1.1-1.31h0c0-.069.069-.069.069-.138a.3.3,0,0,0-.276-.276h0l-1.586-.138h0L174.2,42.7Zm20.07,43.933L197.374,73.6l6.552,1.241Zm11.725-12.828,4.069,6.207-7.862-1.31Zm-13.449-2.207-8.828-.966,5.724-7.518,8.9.966ZM188.96,45.736l5.862,8.69.069.069-5.931,7.725-6.414-8.828Zm7.1,8.069c0-.069-.069-.138-.069-.207l-5.587-8.276,8.759.621,5.724,8.828Zm-21.794-9.656,4.552.345-2.276,2.759Zm4.69,17.449-4.414-.621,2.207-2.483ZM193.3,78.427l-5.862-7.863c-.138-.138-.276-.276-.414-.276l-7.656-1.517L174.821,62.5l4.138.414,2.483.345h.069a.3.3,0,0,0,.276-.276c0-.069,0-.069-.069-.138h0l-2-2.69h0l-5.035-6.9,6.552.69,7.1,9.794a.7.7,0,0,0,.483.276l10.07,1.172,4.828,8.138-7.794-1.517h0l-.966-.207h-.069a.3.3,0,0,0-.276.276c0,.069,0,.069.069.138h0l.552.828a.068.068,0,0,0,.069.069l4.069,6.138ZM224,54.978l-1.655,2.276-1.379-1.793.414-.552,1.448-1.793Zm-4.483,0a.725.725,0,0,0,0,.9l2.069,2.828,3.311,4.966-6.621,8.345-3.311-5.1h0l-.345-.552-1.241-1.931h0l-.345-.552h0c-.069-.138-.207-.138-.345-.069l-.069.069h0l-.345.483h0L207.1,70.978h0l-1.586,2.069-4.966-8.483,6.552-8.552a.628.628,0,0,0,0-.828l-6.414-9.932,6.552-8.345,1.448,2.207h0l3.173,4.759,1.793,2.759h0c.069.138.207.138.345.069l.069-.069h0l2.069-2.552h0l5.38-6.69,5.38,8.345Z" transform="translate(-51.883 -5.997)" fill="#fff"/>
    <path id="Path_185" data-name="Path 185" d="M150.276,18.2a5.97,5.97,0,0,0,.069.759q.1.724.207,2.069c.207,1.793.414,4.345.552,7.38.069,1.517.207,3.173.276,4.9s.138,3.586.207,5.518.138,3.862.138,5.862.069,4,.069,6.069c0,2-.069,4.069-.069,6.069s-.069,3.931-.138,5.862-.138,3.724-.207,5.518c-.069,1.724-.138,3.38-.276,4.9-.207,3.035-.414,5.587-.552,7.38-.069.9-.207,1.586-.207,2.069a5.97,5.97,0,0,0-.069.759h-.207L150,50.685l.069-32.485h.207Z" transform="translate(-44.994 -3.98)" fill="#7e858b"/>
    <g id="Group_50" data-name="Group 50" transform="translate(5 5.375)">
      <g id="Group_45" data-name="Group 45" transform="translate(0 53.4)">
        <path id="Path_186" data-name="Path 186" d="M43.356,103.07a.521.521,0,0,1-.276.483,5.281,5.281,0,0,1-1.724.276,2.852,2.852,0,0,1-2.9-1.517,6.023,6.023,0,0,1-4.138,1.517,6.676,6.676,0,0,1-4.759-1.793A6.028,6.028,0,0,1,27.7,97.414a6.238,6.238,0,0,1,1.862-4.621A6.676,6.676,0,0,1,34.321,91a5.768,5.768,0,0,1,3.517,1.1v-.345c0-.276.138-.345.345-.345h2.276c.276,0,.345.138.345.345v8.414a1.165,1.165,0,0,0,.207.69.874.874,0,0,0,.621.276,4.243,4.243,0,0,0,.9-.069.365.365,0,0,1,.483.276Zm-8.966-1.793a3.249,3.249,0,0,0,2.552-1.1,4.2,4.2,0,0,0,.966-2.759,4.068,4.068,0,0,0-.966-2.759,3.582,3.582,0,0,0-5.173,0,3.916,3.916,0,0,0-1.035,2.759,3.8,3.8,0,0,0,1.035,2.759A3.392,3.392,0,0,0,34.39,101.276Z" transform="translate(-12.044 -85.345)" fill="#7e858b"/>
        <path id="Path_187" data-name="Path 187" d="M56.517,101.4a4.3,4.3,0,0,1-2.552-.759,2.452,2.452,0,0,1-.966-2v-14.9c0-.276.138-.345.345-.345h2.276c.276,0,.345.138.345.345v14.07a1.165,1.165,0,0,0,.207.69.874.874,0,0,0,.621.276,4.242,4.242,0,0,0,.9-.069.365.365,0,0,1,.483.276l.207,1.724a.521.521,0,0,1-.276.483A6.684,6.684,0,0,1,56.517,101.4Z" transform="translate(-19.895 -82.986)" fill="#7e858b"/>
        <path id="Path_188" data-name="Path 188" d="M64.931,86.248a1.988,1.988,0,0,1-1.379-.483,1.672,1.672,0,0,1,0-2.483,1.879,1.879,0,0,1,1.379-.483,1.821,1.821,0,0,1,1.31.483,1.672,1.672,0,0,1,0,2.483A2.352,2.352,0,0,1,64.931,86.248Zm1.931,14.966a4.3,4.3,0,0,1-2.552-.759,2.452,2.452,0,0,1-.966-2V89.214c0-.276.138-.345.345-.345h2.276c.276,0,.345.138.345.345v8.414a1.165,1.165,0,0,0,.207.69.874.874,0,0,0,.621.276,4.242,4.242,0,0,0,.9-.069.365.365,0,0,1,.483.276l.207,1.724a.521.521,0,0,1-.276.483A5.878,5.878,0,0,1,66.862,101.215Z" transform="translate(-22.998 -82.8)" fill="#7e858b"/>
        <path id="Path_189" data-name="Path 189" d="M78.7,103.821a7.354,7.354,0,0,1-4.138-1.035,4.161,4.161,0,0,1-1.862-2.9c0-.276.069-.414.345-.414h2.069a.437.437,0,0,1,.414.345q.517,1.655,3.1,1.655a4.021,4.021,0,0,0,1.724-.345c.483-.276.69-.552.69-.966a1.079,1.079,0,0,0-.828-1.035,7.732,7.732,0,0,0-2-.483,15.271,15.271,0,0,1-2.345-.414,4.286,4.286,0,0,1-2-1.035,3.019,3.019,0,0,1-.828-2.207,3.285,3.285,0,0,1,1.448-2.759A6.336,6.336,0,0,1,78.287,91.2a7.119,7.119,0,0,1,3.724.966,3.615,3.615,0,0,1,1.724,2.552c0,.276-.069.414-.345.414H81.321a.417.417,0,0,1-.414-.207,1.883,1.883,0,0,0-.966-1.1,3.277,3.277,0,0,0-1.655-.414,3.694,3.694,0,0,0-1.655.345,1.019,1.019,0,0,0-.621.9,1.216,1.216,0,0,0,.621,1.035,3.28,3.28,0,0,0,1.448.483,10.794,10.794,0,0,1,1.862.345c.69.207,1.31.276,1.862.483a3.522,3.522,0,0,1,1.448,1.035,3.017,3.017,0,0,1,.621,2,3.319,3.319,0,0,1-1.448,2.828A6.162,6.162,0,0,1,78.7,103.821Z" transform="translate(-26.008 -85.407)" fill="#7e858b"/>
        <path id="Path_190" data-name="Path 190" d="M98.121,103.79a6.686,6.686,0,0,1-4.828-1.724A5.98,5.98,0,0,1,91.5,97.445a6.235,6.235,0,0,1,1.793-4.621A6.686,6.686,0,0,1,98.121,91.1a6.854,6.854,0,0,1,4,1.172,4.849,4.849,0,0,1,2.069,3.1c.069.276-.069.414-.345.414H101.5a.437.437,0,0,1-.414-.345,2.537,2.537,0,0,0-1.1-1.31,3.416,3.416,0,0,0-1.862-.483A3.48,3.48,0,0,0,95.5,94.686a3.655,3.655,0,0,0-.966,2.759A4.068,4.068,0,0,0,95.5,100.2a3.48,3.48,0,0,0,2.621,1.035,3.416,3.416,0,0,0,1.862-.483,2.537,2.537,0,0,0,1.1-1.31.437.437,0,0,1,.414-.345h2.345c.276,0,.345.138.345.414a4.849,4.849,0,0,1-2.069,3.1A6.392,6.392,0,0,1,98.121,103.79Z" transform="translate(-31.842 -85.376)" fill="#7e858b"/>
        <path id="Path_191" data-name="Path 191" d="M123.518,102.066a7.621,7.621,0,0,1-9.656,0,6.664,6.664,0,0,1,0-9.242,7.621,7.621,0,0,1,9.656,0,6.664,6.664,0,0,1,0,9.242Zm-7.449-1.931a3.837,3.837,0,0,0,5.242,0,3.655,3.655,0,0,0,.966-2.759,4.068,4.068,0,0,0-.966-2.759,3.837,3.837,0,0,0-5.242,0,3.655,3.655,0,0,0-.966,2.759A3.556,3.556,0,0,0,116.069,100.135Z" transform="translate(-38.203 -85.376)" fill="#7e858b"/>
        <path id="Path_192" data-name="Path 192" d="M18.311,83.6a.326.326,0,0,1,.345.345V94.773a6.445,6.445,0,0,1-1.862,4.9,7.188,7.188,0,0,1-5.1,1.793,7.254,7.254,0,0,1-4.621-1.448A5.549,5.549,0,0,1,5,96.083c0-.276.069-.414.345-.414H7.828a.326.326,0,0,1,.345.345,2.986,2.986,0,0,0,1.172,1.931,4.24,4.24,0,0,0,2.483.759,3.154,3.154,0,0,0,2.552-1.1,4.444,4.444,0,0,0,.966-2.9V87.186c0-1.035-1.035-1.241-1.724-1.241h-.207a.3.3,0,0,1-.276-.276V83.945a.3.3,0,0,1,.276-.276h4.9Z" transform="translate(-5 -83.048)" fill="#7e858b"/>
      </g>
      <g id="Group_46" data-name="Group 46" transform="translate(6.204 78.091)">
        <path id="Path_193" data-name="Path 193" d="M15.929,118.7a1.755,1.755,0,0,1,1.793,1.241H17.1a1.065,1.065,0,0,0-1.1-.621,1.456,1.456,0,0,0,0,2.9,1.167,1.167,0,0,0,1.31-1.035H16.067v-.552H17.93A1.888,1.888,0,0,1,16,122.838a1.937,1.937,0,0,1-2-2.069A1.851,1.851,0,0,1,15.929,118.7Z" transform="translate(-13.995 -118.631)" fill="#7e858b"/>
        <path id="Path_194" data-name="Path 194" d="M23,122.738a1.937,1.937,0,0,1-2-2.069,1.975,1.975,0,0,1,2-2.069,2.07,2.07,0,0,1,0,4.138Zm0-.621a1.3,1.3,0,0,0,1.379-1.379A1.359,1.359,0,0,0,23,119.29a1.322,1.322,0,0,0-1.379,1.448A1.3,1.3,0,0,0,23,122.117Z" transform="translate(-16.168 -118.6)" fill="#7e858b"/>
        <path id="Path_195" data-name="Path 195" d="M31.014,120.731a.89.89,0,0,1,.621.9,1.142,1.142,0,0,1-1.241,1.172H28.6v-4h1.655a1.127,1.127,0,0,1,1.241,1.1A1.052,1.052,0,0,1,31.014,120.731Zm-1.724-1.379v1.1h.9c.414,0,.621-.138.621-.552s-.276-.552-.621-.552h-.9Zm0,1.655v1.172h1.1a.563.563,0,0,0,.621-.552.626.626,0,0,0-.207-.483.657.657,0,0,0-.483-.138Z" transform="translate(-18.527 -118.662)" fill="#7e858b"/>
        <path id="Path_196" data-name="Path 196" d="M36.331,122.248v.552H34.4v-.552h.621v-2.9h-.552V118.8h1.793v.552H35.71v2.9Z" transform="translate(-20.327 -118.662)" fill="#7e858b"/>
        <path id="Path_197" data-name="Path 197" d="M41.414,119.321H39.69v1.035h1.655v.552H39.69v1.172h1.793v.621H39v-4h2.414Z" transform="translate(-21.754 -118.631)" fill="#7e858b"/>
        <path id="Path_198" data-name="Path 198" d="M47.642,122.631v.069h-.69l-.966-1.379h-.9V122.7H44.4v-4h1.655a1.251,1.251,0,0,1,1.379,1.31,1.2,1.2,0,0,1-.828,1.172Zm-1.586-1.793a.765.765,0,0,0,.759-.759.724.724,0,0,0-.759-.759H45.09v1.448h.966Z" transform="translate(-23.43 -118.631)" fill="#7e858b"/>
        <path id="Path_199" data-name="Path 199" d="M51.452,120.01l.069,1.241V122.7H50.9v-4h.207l2.414,2.69-.069-1.241V118.7h.69v4h-.207Z" transform="translate(-25.447 -118.631)" fill="#7e858b"/>
        <path id="Path_200" data-name="Path 200" d="M59.3,122.738a1.937,1.937,0,0,1-2-2.069,1.975,1.975,0,0,1,2-2.069,1.937,1.937,0,0,1,2,2.069A1.868,1.868,0,0,1,59.3,122.738Zm.069-.621a1.3,1.3,0,0,0,1.379-1.379,1.359,1.359,0,0,0-1.379-1.448,1.322,1.322,0,0,0-1.379,1.448A1.3,1.3,0,0,0,59.369,122.117Z" transform="translate(-27.433 -118.6)" fill="#7e858b"/>
        <path id="Path_201" data-name="Path 201" d="M69.248,118.8a2,2,0,0,1,0,4H67.8v-3.931h1.448Zm-.069,3.379a1.381,1.381,0,0,0,0-2.759h-.759v2.759Z" transform="translate(-30.691 -118.662)" fill="#7e858b"/>
        <path id="Path_202" data-name="Path 202" d="M76.883,119.321H75.159v1.035h1.655v.552H75.159v1.172h1.724v.621H74.4v-4h2.483Z" transform="translate(-32.739 -118.631)" fill="#7e858b"/>
        <path id="Path_203" data-name="Path 203" d="M80.621,122.179h1.724v.621H80v-4h.69v3.379Z" transform="translate(-34.477 -118.662)" fill="#7e858b"/>
        <path id="Path_204" data-name="Path 204" d="M89.883,119.321H88.159v1.035h1.655v.552H88.159v1.172h1.724v.621H87.4v-4h2.483Z" transform="translate(-36.773 -118.631)" fill="#7e858b"/>
        <path id="Path_205" data-name="Path 205" d="M93.221,121.6c0,.414.483.621.966.621.414,0,.9-.069.9-.621s-.552-.552-.966-.621c-.759-.069-1.448-.276-1.448-1.1s.69-1.172,1.517-1.172a1.34,1.34,0,0,1,1.517,1.172h-.621c0-.414-.483-.552-.9-.552-.345,0-.828.138-.828.552s.414.483.9.552c.828.069,1.517.276,1.517,1.172s-.828,1.172-1.586,1.172S92.6,122.424,92.6,121.6Z" transform="translate(-38.386 -118.631)" fill="#7e858b"/>
        <path id="Path_206" data-name="Path 206" d="M98.3,119.352V118.8h2.966v.552h-1.172v3.38h-.621v-3.38Z" transform="translate(-40.155 -118.662)" fill="#7e858b"/>
        <path id="Path_207" data-name="Path 207" d="M104.1,121.973l-.414.828H103v-.069l1.862-3.931h.276l1.793,3.931v.069h-.69l-.414-.828Zm.207-.621h1.379l-.69-1.586Z" transform="translate(-41.614 -118.662)" fill="#7e858b"/>
        <path id="Path_208" data-name="Path 208" d="M111.748,118.8a2,2,0,0,1,0,4H110.3v-3.931h1.448Zm-.069,3.379a1.381,1.381,0,0,0,0-2.759h-.759v2.759Z" transform="translate(-43.879 -118.662)" fill="#7e858b"/>
        <path id="Path_209" data-name="Path 209" d="M118.7,122.738a1.937,1.937,0,0,1-2-2.069,1.975,1.975,0,0,1,2-2.069,2.07,2.07,0,0,1,0,4.138Zm0-.621a1.3,1.3,0,0,0,1.379-1.379,1.359,1.359,0,0,0-1.379-1.448,1.322,1.322,0,0,0-1.379,1.448A1.3,1.3,0,0,0,118.7,122.117Z" transform="translate(-45.865 -118.6)" fill="#7e858b"/>
      </g>
      <g id="Group_49" data-name="Group 49" transform="translate(19.658)">
        <g id="Group_47" data-name="Group 47">
          <path id="Path_210" data-name="Path 210" d="M67.6,13.959v2.207a3.27,3.27,0,0,1,.9,0h0V13.959A1.137,1.137,0,0,0,67.6,13.959Z" transform="translate(-44.083 -8.01)" fill="#7e858b"/>
          <path id="Path_211" data-name="Path 211" d="M54.3,11.875a.379.379,0,0,0,.207.345,7.413,7.413,0,0,0,2.9.69,6.554,6.554,0,0,0,3.793-1.241,5.055,5.055,0,0,1,5.38-.207,2.192,2.192,0,0,1-1.448.552h-.345v.759h.345a2.653,2.653,0,0,0,2.345-1.241h0c0-.069.069-.138.069-.207V6.7a.527.527,0,0,0-.138-.345,6.067,6.067,0,0,0-6.621,0,5.9,5.9,0,0,1-5.931.483.4.4,0,0,0-.483.138.341.341,0,0,0,.069.483l2.552,2.207L54.5,11.531A.379.379,0,0,0,54.3,11.875Zm3.517-1.862a.523.523,0,0,0,.138-.276.358.358,0,0,0-.138-.276L56.3,8.151a6.491,6.491,0,0,0,4.828-1.1,5.271,5.271,0,0,1,5.587-.138v3.724a6.022,6.022,0,0,0-6,.345,5.851,5.851,0,0,1-5.311.759Z" transform="translate(-39.953 -5.375)" fill="#7e858b"/>
          <path id="Path_212" data-name="Path 212" d="M67.228,10.052h.9V9.224h.828v-.9h-.828V7.5h-.9v.828H66.4v.9h.828Z" transform="translate(-43.711 -6.034)" fill="#7e858b"/>
          <path id="Path_213" data-name="Path 213" d="M76.4,45.319a12.01,12.01,0,0,1,.828-.966A18.977,18.977,0,0,0,80.4,39.939a7.6,7.6,0,0,0,.759-4.345,6.8,6.8,0,0,0-4.069-5.38,2.948,2.948,0,0,0,.414-2h0a.458.458,0,0,0-.276-.345.423.423,0,0,0-.414.069,1.791,1.791,0,0,1-1.793.345h-.069a8.308,8.308,0,0,0-2.9-.552,6.31,6.31,0,0,0-1.172.069v-.069a4.746,4.746,0,0,0-.138-.9.538.538,0,0,0-.276-.276.308.308,0,0,0-.345,0,1.3,1.3,0,0,1-.552.138h-.759a3.932,3.932,0,0,0-.9.069,5.444,5.444,0,0,0-.9.207c-.276.069-.552.207-.828.276a7.522,7.522,0,0,0-.759.414,5.966,5.966,0,0,0-.69.483c-.207.207-.414.345-.621.552a1.829,1.829,0,0,0-.345.414c-.138.138-.207.276-.345.414-.207.276-.414.621-.621.966l-.069.069-.069.069V30.7h0a155877.444,155877.444,0,0,1-.414.552c-.138.138-.207.276-.345.345l-.138.138a.952.952,0,0,1-.276.207l-.069.069-1.31-.9-.069-1.1a1.443,1.443,0,0,1,.276-.414l.069-.069c.069-.069.069-.138.138-.207v-.069c0-.069.069-.138.069-.207V28.9l.345-.069.276-2.138h0l-.414-.069v-.207a.415.415,0,0,0-.069-.276,2.065,2.065,0,0,0-.276-.69v-.069a2.589,2.589,0,0,0-1.517-1.31h-.069v-.069c0-.069.069-.069.069-.138a2.55,2.55,0,0,1,1.241-1.31l.138.414a.378.378,0,0,0,.414.276.523.523,0,0,0,.276-.138,1.014,1.014,0,0,0,.345-.414,3.058,3.058,0,0,0,.207-2.69,1.787,1.787,0,0,0-1.655-1.172,1.364,1.364,0,0,0-.69.138,2.065,2.065,0,0,0-3.724,0,1.5,1.5,0,0,0-.69-.138,2.074,2.074,0,0,0-1.655,1.172,3.094,3.094,0,0,0,.207,2.69,1.829,1.829,0,0,0,.345.414.523.523,0,0,0,.276.138.429.429,0,0,0,.414-.276,2.223,2.223,0,0,0,.138-.414,2.858,2.858,0,0,1,1.241,1.31c0,.069.069.069.069.138v.069h-.069a2.845,2.845,0,0,0-1.517,1.31v.069a2.883,2.883,0,0,0-.276.69.415.415,0,0,1-.069.276v.207L53.5,26.7h0l.276,2.138.345.069v.138c0,.069.069.138.069.207v.069c.069.069.069.138.138.207l.069.069a1.443,1.443,0,0,0,.276.414l-.207,1.241-1.31.9a3.269,3.269,0,0,1-.69-.69l-.138-.138c-.138-.138-.276-.345-.414-.483h0v-.069l-.069-.069-.069-.069c-.207-.276-.414-.621-.621-.966a1.828,1.828,0,0,0-.345-.414c-.138-.138-.207-.276-.345-.414a4.462,4.462,0,0,0-.621-.552,4.187,4.187,0,0,0-.69-.483c-.276-.138-.483-.276-.759-.414a3.888,3.888,0,0,0-.828-.276c-.069-.138-.345-.207-.621-.207a3.933,3.933,0,0,0-.9-.069h-.759a1.3,1.3,0,0,1-.552-.138.308.308,0,0,0-.345,0,.539.539,0,0,0-.276.276,3.494,3.494,0,0,0-.138.9v.069a8.451,8.451,0,0,0-1.31-.138,8.617,8.617,0,0,0-2.9.552h-.069a1.515,1.515,0,0,1-.966.069,2.331,2.331,0,0,1-.828-.414.325.325,0,0,0-.414-.069.458.458,0,0,0-.276.345h0a3.4,3.4,0,0,0,.414,2,6.8,6.8,0,0,0-4.069,5.38,7.6,7.6,0,0,0,.759,4.345A19.91,19.91,0,0,0,37.5,44.422a12.008,12.008,0,0,0,.828.966c.069.138.207.207.276.345a4.682,4.682,0,0,1,1.517,2.69,1.451,1.451,0,0,1-1.586,1.586,2.014,2.014,0,0,1-.621-.138c-.069,0-.138-.069-.207-.069h0s-.828-.069-1.035.621h-.207a.819.819,0,0,0-.621.9v.069a4.966,4.966,0,0,0,4.828,4.345h.069A5.191,5.191,0,0,0,43.777,54.7h0a1.027,1.027,0,0,0,.621.276,1.279,1.279,0,0,0,.483-.138,4.9,4.9,0,0,0,1.586-1.793h0c0-.069.069-.138.069-.207,0,.069.069.069.069.138.069.069.138.207.207.276A12.331,12.331,0,0,0,57.3,58.7,12.509,12.509,0,0,0,67.779,53.25c.069-.069.138-.207.207-.276,0-.069.069-.069.069-.138,0,.069.069.138.069.207h0a5.623,5.623,0,0,0,1.586,1.793.657.657,0,0,0,.483.138.842.842,0,0,0,.621-.276h0a4.758,4.758,0,0,0,3.035,1.035h.069a4.966,4.966,0,0,0,4.828-4.345v-.069a.779.779,0,0,0-.621-.9h-.207a.908.908,0,0,0-1.035-.621h0a.253.253,0,0,0-.207.069,2.014,2.014,0,0,1-.621.138,1.451,1.451,0,0,1-1.586-1.586c0-.9.828-1.862,1.517-2.69C76.193,45.526,76.262,45.388,76.4,45.319ZM72.124,28.628a6.8,6.8,0,0,1,2.621.483h.069a2.6,2.6,0,0,0,1.448.069,4.394,4.394,0,0,1,.483-.138,1.88,1.88,0,0,1-.414.828,12.746,12.746,0,0,0-1.655-.207,6.027,6.027,0,0,0-5.173,2.9.914.914,0,0,0-.9-.621H66.123A7.1,7.1,0,0,1,72.124,28.628Zm.9,10.483c0,.069.069.138.069.207A2.539,2.539,0,0,0,75.5,40.9h.069c-1.862,1.862-4.414,2.9-6.138,4.828V38.974l.207-.207c.483-.483.966-1.1,1.448-1.586a4.888,4.888,0,0,1,2.759-1.586,2.16,2.16,0,0,1,1.31.138,1.226,1.226,0,0,1,.276,1.862.241.241,0,0,1-.138.069.917.917,0,0,1-.552.207.875.875,0,0,1-.414-.069,1.174,1.174,0,0,0-.483-.069.724.724,0,0,0-.621.345A1.279,1.279,0,0,0,73.02,39.112ZM60.468,27.318l-.069.759h0l-.414.069-.414.069v-1.1c.138.069.345.069.483.138C60.192,27.249,60.33,27.318,60.468,27.318Zm-3.035,2.207h0l2.138-.483h0c-.069.138-.207.345-.276.483s-.138.207-.207.345a1.976,1.976,0,0,1-3.311,0,1.508,1.508,0,0,1-.207-.345,1.729,1.729,0,0,1-.276-.483h0Zm-1.241-1.1V26.9c.345-.069.621-.138.9-.207v1.862Zm1.655.138V26.7a8.994,8.994,0,0,0,.9.207v1.517Zm-2.759-6.828a1.353,1.353,0,0,1,.621-.621,2.705,2.705,0,0,0-1.655.828,2.283,2.283,0,0,1,0-1.655,1.142,1.142,0,0,1,.9-.69,1.836,1.836,0,0,1,.828.207,2.86,2.86,0,0,1,1.31,1.655,2.9,2.9,0,0,0-.552-1.931c-.069-.069-.138-.207-.207-.276a1.2,1.2,0,0,1,1.172-.828,1.268,1.268,0,0,1,1.172.828.952.952,0,0,0-.207.276,2.9,2.9,0,0,0-.552,1.931,2.417,2.417,0,0,1,1.31-1.655,2.078,2.078,0,0,1,.828-.207,1.022,1.022,0,0,1,.9.69,2.283,2.283,0,0,1,0,1.655,3.077,3.077,0,0,0-1.655-.828,1.353,1.353,0,0,1,.621.621,3.239,3.239,0,0,0-1.586,1.724.241.241,0,0,1-.069.138c0,.069,0,.069-.069.138a3.221,3.221,0,0,1-.69-.345h0a2.157,2.157,0,0,1-.69.345c0-.069,0-.069-.069-.138a.241.241,0,0,0-.069-.138A4.235,4.235,0,0,0,55.088,21.731Zm1.241,3.1.621-.207c.207-.069.345-.207.552-.276.207.069.345.207.552.276l.621.207a2.076,2.076,0,0,1,1.31,1.517c-2.276-.552-2.414-.621-2.483-.621h0c-.069,0-.207.069-2.483.621A1.965,1.965,0,0,1,56.33,24.835Zm-1.793,3.242h0l-.069-.759c.138,0,.276-.069.414-.069.138-.069.345-.069.483-.138v1.1l-.414-.069Zm.966,3.586.138-.759a.068.068,0,0,1,.069.069,2.823,2.823,0,0,0,1.793.759h0a2.823,2.823,0,0,0,1.793-.759l.069-.069.138.759,1.379.966c-.069.069-.138.069-.207.138a7.04,7.04,0,0,1-2,.759,7.773,7.773,0,0,1-1.241.207,6.037,6.037,0,0,1-1.1-.138,7.04,7.04,0,0,1-2-.759c-.069-.069-.207-.138-.276-.207ZM38.536,29.249a2.6,2.6,0,0,0,1.448-.069h.069a6.8,6.8,0,0,1,2.621-.483,7.354,7.354,0,0,1,6.138,3.311H46.26a.914.914,0,0,0-.9.621,6.115,6.115,0,0,0-5.173-2.9,11.141,11.141,0,0,0-1.655.207,2.331,2.331,0,0,1-.414-.828A.98.98,0,0,1,38.536,29.249Zm7.794,21.587v.483h0a5.08,5.08,0,0,1-.276.966v.069a.241.241,0,0,1-.069.138c0,.069-.069.069-.069.138a5.1,5.1,0,0,1-1.379,1.586,4.389,4.389,0,0,0,.828-2.621,3.905,3.905,0,0,0-.207-1.241h0a5.594,5.594,0,0,1-.828,2.621h0a4.148,4.148,0,0,1-3.517,2.069h-.069a4.07,4.07,0,0,1-3.931-3.586h0a2.953,2.953,0,0,0,5.449-1.448,2.806,2.806,0,0,1-1.31,1.517h-.069a4.755,4.755,0,0,1-.552.207,2.223,2.223,0,0,1-2.966-1.1c.069,0,.138.069.207.069a.98.98,0,0,0,.414.138c.138,0,.276.069.483.069h.759l.621-.207a1.8,1.8,0,0,0,.828-.828,1.112,1.112,0,0,0,.207-.621,2.346,2.346,0,0,0,.069-.69c0-1.379-1.241-2.621-2.069-3.586A28.438,28.438,0,0,1,34.949,39.8a7.428,7.428,0,0,1-.69-3.862,5.8,5.8,0,0,1,5.724-5.1,5.279,5.279,0,0,1,4.552,2.69,5.182,5.182,0,0,1,.621,2v2.414h0a10.649,10.649,0,0,0-2-1.931,4.119,4.119,0,0,0-4.138-.69,2.259,2.259,0,0,0-.759,3.173,2,2,0,0,0,2.276.69,1.571,1.571,0,0,1-2.276.828,1.507,1.507,0,0,1-.345-.207,4.463,4.463,0,0,1-.621-.552,1.5,1.5,0,0,1-.276-.345,1.729,1.729,0,0,1-.276-.483c-.069-.207-.138-.414-.207-.69a3.123,3.123,0,0,1,.276-2.069,4,4,0,0,1,2.483-2,4.954,4.954,0,0,1,3.448.414c.138.069.276.207.414.276a1.211,1.211,0,0,1,.345.276,3.826,3.826,0,0,0-3.242-1.862A4.536,4.536,0,0,0,36.6,34.491a4.612,4.612,0,0,0-.9,3.655,8.617,8.617,0,0,0,2.276,3.586,33.62,33.62,0,0,1,4.345,5.931,5.215,5.215,0,0,1,.69,2.69,3.616,3.616,0,0,1-3.379,3.586h0a1.909,1.909,0,0,0,.621.069,3.088,3.088,0,0,0,1.379-.276,3.5,3.5,0,0,0,1.793-1.655c1.586-2.966-.966-6-2.69-8.207a8.671,8.671,0,0,1-.9-1.1l2.069,1.517a15.149,15.149,0,0,1,1.241.966,9.4,9.4,0,0,1,1.655,1.655A4.526,4.526,0,0,1,46.329,50.836ZM39.156,40.9h.138a2.444,2.444,0,0,0,2.414-1.586c0-.069.069-.138.069-.207a1.174,1.174,0,0,0-.138-.9.823.823,0,0,0-.621-.345,1.174,1.174,0,0,0-.483.069h-.483a.783.783,0,0,1-.552-.207c-.069,0-.069-.069-.138-.069a1.092,1.092,0,0,1-.207-1.31,1.859,1.859,0,0,1,.483-.552,2.107,2.107,0,0,1,1.31-.138,4.888,4.888,0,0,1,2.759,1.586c.483.483.966,1.1,1.448,1.586l.207.207V45.8c-1.793-2.069-4.414-3.035-6.207-4.9Zm28.415,9.932h0a3.462,3.462,0,0,0,.138.828h0c-.138.345-.345.621-.483.966a.523.523,0,0,0-.138.276,11.5,11.5,0,0,1-9.656,5.035,11.333,11.333,0,0,1-9.656-5.035.523.523,0,0,1-.138-.276,4.214,4.214,0,0,1-.483-.966h0c.069-.276.069-.483.138-.759v-.069a6.385,6.385,0,0,0-.966-3.793h0V32.835h4l-.483-.828h0v.069a8.186,8.186,0,0,0-4.9-3.931v-.414a2.346,2.346,0,0,0,.69.069h.69c.276,0,.621.069.9.069l.828.207a4.218,4.218,0,0,1,.828.345,2.477,2.477,0,0,1,.69.483c.207.207.414.345.621.552a4.833,4.833,0,0,1,.552.69c.207.276.414.621.621.9a7.3,7.3,0,0,0,.69.828,4.162,4.162,0,0,0,.552.552c.069.069.207.138.276.276h0c.069.069.207.138.276.207h.069c.069.069.207.138.276.207h.069c.069.069.207.138.276.207h0a5.222,5.222,0,0,0,1.241.621h.069c.069,0,.138.069.207.069l.621.207a13.81,13.81,0,0,0,1.655.276,6.923,6.923,0,0,0,1.655-.276l.621-.207c.069,0,.138-.069.207-.069h.069l1.241-.621h0c.069-.069.207-.138.276-.207h.069c.069-.069.207-.138.276-.207h.069l.069-.069h0l.069-.069c.069,0,.069-.069.138-.069h0l.207-.207.069-.069h0a4.162,4.162,0,0,0,.552-.552c.138-.138.207-.276.345-.414l.069-.069a1.211,1.211,0,0,1,.276-.345h0v-.069a.358.358,0,0,0,.138-.276l.414-.621a2.7,2.7,0,0,1,.552-.69,4.462,4.462,0,0,1,.621-.552,4.033,4.033,0,0,1,1.517-.828,3.638,3.638,0,0,1,.828-.207,3.933,3.933,0,0,1,.9-.069h.69a2.346,2.346,0,0,0,.69-.069v.345a8.216,8.216,0,0,0-5.1,4v-.069h0l-.483.828h4V46.974h0A5.579,5.579,0,0,0,67.572,50.836Zm6.138-2.483a2.346,2.346,0,0,0,.069.69l.207.621a1.237,1.237,0,0,0,.345.483,2.1,2.1,0,0,0,.483.345,2.192,2.192,0,0,0,.621.207h.759a1.346,1.346,0,0,0,.483-.069.98.98,0,0,0,.414-.138c.069,0,.138-.069.207-.069a2.286,2.286,0,0,1-2.966,1.1c-.207-.069-.345-.138-.552-.207H73.71a2.831,2.831,0,0,1-1.241-1.448A2.961,2.961,0,0,0,75.434,52.7a2.9,2.9,0,0,0,2.483-1.379h0a4.07,4.07,0,0,1-3.931,3.586h-.069A4,4,0,0,1,70.4,52.836h0a5.594,5.594,0,0,1-.828-2.621h0a3.906,3.906,0,0,0-.207,1.241,4.731,4.731,0,0,0,.828,2.621,5.1,5.1,0,0,1-1.379-1.586c0-.069-.069-.069-.069-.138a.241.241,0,0,0-.069-.138v-.069a3.954,3.954,0,0,1-.276-.966h0V50.7a6.238,6.238,0,0,1,1.448-4.207A9.4,9.4,0,0,1,71.5,44.836c.414-.345.828-.621,1.241-.966l2.069-1.517a7.806,7.806,0,0,1-.966,1.241C72.055,45.8,69.5,48.836,71.158,51.8a3.791,3.791,0,0,0,1.793,1.655,3.088,3.088,0,0,0,1.379.276,1.91,1.91,0,0,0,.621-.069h0a3.568,3.568,0,0,1-3.38-3.586,5.215,5.215,0,0,1,.69-2.69,36.361,36.361,0,0,1,4.345-5.931,8.617,8.617,0,0,0,2.276-3.586,4.612,4.612,0,0,0-.9-3.655,4.748,4.748,0,0,0-3.655-1.724,3.826,3.826,0,0,0-3.242,1.862,1.211,1.211,0,0,1,.345-.276c.138-.069.276-.207.414-.276a4.954,4.954,0,0,1,3.448-.414,4.24,4.24,0,0,1,2.483,2,3.07,3.07,0,0,1,.276,2.069c-.069.207-.138.483-.207.69a3,3,0,0,1-.276.483,1.211,1.211,0,0,1-.276.345,2.38,2.38,0,0,1-.621.552,1.507,1.507,0,0,0-.345.207,1.571,1.571,0,0,1-2.276-.828,2.075,2.075,0,0,0,2.276-.69,2.167,2.167,0,0,0-.759-3.173c-1.31-.759-2.966-.138-4.138.69a13.247,13.247,0,0,0-2,1.931h0V35.249a4.513,4.513,0,0,1,.621-2,5.279,5.279,0,0,1,4.552-2.69,5.862,5.862,0,0,1,5.724,5.1,6.8,6.8,0,0,1-.69,3.862c-.9,2-2.483,3.517-3.931,5.173C74.882,45.733,73.71,46.974,73.71,48.353Z" transform="translate(-33.503 -9.231)" fill="#7e858b"/>
        </g>
        <g id="Group_48" data-name="Group 48" transform="translate(16.965 35.45)">
          <path id="Path_214" data-name="Path 214" d="M70.183,59.62v-.138a.445.445,0,0,0-.414-.414v1.172l1.448-.483a1.051,1.051,0,0,0,.414.759c.138.138.345.345.345.552a4.968,4.968,0,0,0-1.035.483,1.174,1.174,0,0,0-.069.483,1.023,1.023,0,0,0,.069.483,1.531,1.531,0,0,1-.759-.345v-.345a.445.445,0,0,0-.414-.414v1.172h0A1.926,1.926,0,0,0,71.01,63a.326.326,0,0,1,.345.345.148.148,0,0,0,.138-.138c0-.138,0-.207-.069-.276,0-.069-.069-.207-.069-.276a1,1,0,0,1,.138-.483c.069,0,.138-.069.207-.069h.276a.875.875,0,0,1,.414.069c.069,0,.207.069.276.069H72.8a1.174,1.174,0,0,0,.483-.069h.069l-.069.276a2.3,2.3,0,0,1-.414.207h-.207l.276.69a1.174,1.174,0,0,0,.483.069,1.023,1.023,0,0,0,.483-.069,1.531,1.531,0,0,1-.345.759h-.345a.445.445,0,0,0-.414.414h1.241a1.926,1.926,0,0,0,.414-1.241.326.326,0,0,1,.345-.345.148.148,0,0,0-.138-.138c-.138,0-.207,0-.276.069-.069,0-.207.069-.276.069a1,1,0,0,1-.483-.138,1.023,1.023,0,0,1-.069-.483.875.875,0,0,1,.069-.414h0v-.069c.069,0,.207.069.276.069a1.236,1.236,0,0,0,1.241-1.241,1.623,1.623,0,0,0-.138-.552l-.138-.207a1.6,1.6,0,0,1-.207-1.1,2.052,2.052,0,0,1,.345-1.035h.069c.069-.069.138-.069.207-.138a1.111,1.111,0,0,0,.276-.483v-.276l-.069.069c-.069,0-.069.069-.138.069l-.138.138-.138.138-.138.138h0v.069h0v.069h0a1.873,1.873,0,0,0-.414,1.172,2.525,2.525,0,0,0,.276,1.241l.138.207a.875.875,0,0,1,.069.414.943.943,0,0,1-.966.966h0a.958.958,0,0,1-.69-.345c0-.069-.069-.069-.069-.138a1.584,1.584,0,0,1-.276-.966h0a1.443,1.443,0,0,0,.414.276s.069,0,0-.069a1.91,1.91,0,0,1-.069-.621c0-.138.069-.207.138-.345a.534.534,0,0,0,.069.207h.069c.069-.207.069-.414.207-.552.069-.069.069-.069.069-.138a.241.241,0,0,1,.069-.138.253.253,0,0,0,.069-.207h0v-.069a1.475,1.475,0,0,0-.621-1.241h.069s.069,0,0-.069a1.486,1.486,0,0,0-1.172-.345h-.069a.068.068,0,0,0-.069.069L72.114,57h-.069a.379.379,0,0,0-.345.207l-.276-.276a.068.068,0,0,0-.069.069v.069c0,.069.069.345.138.345a.214.214,0,0,0,.138-.069h0c.138,0,.276-.069.345,0,0,0,.069.207,0,.276h-.414s-.069.207.069.276a2.987,2.987,0,0,1,.345-.069h.207a1.279,1.279,0,0,0,.483-.138.509.509,0,0,1-.345.207.7.7,0,0,1-.207.069h-.069a1.073,1.073,0,0,0-.552.414c-.069-.069-1.379-.621-1.379-.621h0V57.62a.352.352,0,0,0-.276-.345c-.069,0-.069-.069-.138-.069h0v.9l1.172.828.483-.138a.068.068,0,0,1,.069.069v.069Z" transform="translate(-61.7 -56.775)" fill="#7e858b"/>
          <path id="Path_215" data-name="Path 215" d="M60.652,63.344a1.174,1.174,0,0,1-.483.069,1.023,1.023,0,0,1-.483-.069,1.531,1.531,0,0,0,.345.759h.345a.445.445,0,0,1,.414.414H59.617a1.926,1.926,0,0,1-.414-1.241.326.326,0,0,0-.345-.345A.148.148,0,0,1,59,62.792c.138,0,.207,0,.276.069.069,0,.207.069.276.069a1,1,0,0,0,.483-.138,1.023,1.023,0,0,0,.069-.483.875.875,0,0,0-.069-.414h0v-.069c-.069,0-.207.069-.276.069a1.236,1.236,0,0,1-1.241-1.241,1.623,1.623,0,0,1,.138-.552l.138-.207a1.6,1.6,0,0,0,.207-1.1,2.052,2.052,0,0,0-.345-1.035h-.069c-.069-.069-.138-.069-.207-.138a1.112,1.112,0,0,1-.276-.483v-.276l.069.069c.069,0,.069.069.138.069l.138.138.138.138.138.138h0v.069h0v.069h0a1.873,1.873,0,0,1,.414,1.172,2.525,2.525,0,0,1-.276,1.241l-.138.207v.414a.943.943,0,0,0,.966.966h0a.958.958,0,0,0,.69-.345c0-.069.069-.069.069-.138a1.584,1.584,0,0,0,.276-.966h0a1.443,1.443,0,0,1-.414.276s-.069,0,0-.069a1.909,1.909,0,0,0,.069-.621c0-.138-.069-.207-.138-.345a.534.534,0,0,1-.069.207H60.1c-.069-.207-.069-.414-.207-.552-.069-.069-.069-.069-.069-.138a.241.241,0,0,0-.069-.138.253.253,0,0,1-.069-.207h0v-.069a1.475,1.475,0,0,1,.621-1.241h-.069s-.069,0,0-.069a1.487,1.487,0,0,1,1.172-.345h.069a.068.068,0,0,1,.069.069l.069.138h.069a.379.379,0,0,1,.345.207l.414.207a.068.068,0,0,1,.069.069v.069c0,.069-.069.345-.138.345a.214.214,0,0,1-.138-.069h0c-.138,0-.276-.069-.345,0,0,0-.069.207,0,.276h.414s.069.207-.069.276a2.987,2.987,0,0,0-.345-.069h-.207a1.279,1.279,0,0,1-.483-.138.509.509,0,0,0,.345.207.7.7,0,0,0,.207.069h.069a1.073,1.073,0,0,1,.552.414c.069-.069,1.379-.621,1.379-.621h0V57.62a.352.352,0,0,1,.276-.345c.069,0,.069-.069.138-.069h0v.9l-1.448.9-.483-.138a.068.068,0,0,0-.069.069V59l1.31.69v-.138a.445.445,0,0,1,.414-.414V60.31l-1.448-.483a1.051,1.051,0,0,1-.414.759c-.138.138-.345.345-.345.552a4.968,4.968,0,0,1,1.035.483,1.174,1.174,0,0,1,.069.483,1.023,1.023,0,0,1-.069.483,1.531,1.531,0,0,0,.759-.345V61.9a.445.445,0,0,1,.414-.414v1.172h0a1.926,1.926,0,0,1-1.241.414.326.326,0,0,0-.345.345.148.148,0,0,1-.138-.138c0-.138,0-.207.069-.276,0-.069.069-.207.069-.276a1,1,0,0,0-.138-.483c-.069,0-.138-.069-.207-.069H61.48l.069-.552a.069.069,0,0,0-.138,0Z" transform="translate(-58.1 -56.775)" fill="#7e858b"/>
        </g>
        <path id="Path_216" data-name="Path 216" d="M69.811,45.7a3.053,3.053,0,0,0-2.621-1.655,2.931,2.931,0,0,0-2.759,0A3.144,3.144,0,0,0,61.81,45.7a2.416,2.416,0,0,0-1.31,2.138,2.45,2.45,0,0,0,.828,1.793A3.007,3.007,0,0,0,63.6,51.494a2,2,0,0,1,1.655,1.931V58.6a1.489,1.489,0,0,1-1.379,1.448H63.6a.445.445,0,0,0-.414.414h5.242a.445.445,0,0,0-.414-.414h-.276A1.47,1.47,0,0,1,66.362,58.6V53.425a1.987,1.987,0,0,1,1.517-1.862h.069A2.977,2.977,0,0,0,70.294,49.7a2.45,2.45,0,0,0,.828-1.793A2.525,2.525,0,0,0,69.811,45.7Zm-.069,3.311-.138.138-.069.207A2.057,2.057,0,0,1,68.156,50.6h0s-.483.138-.69.207h0l-.138.138h0c-.069,0-.069.069-.138.069s-.069.069-.138.069a2.225,2.225,0,0,1-1.241.414,2.066,2.066,0,0,1-1.241-.414c-.069,0-.069-.069-.138-.069s-.069-.069-.138-.069h0l-.138-.138h0a6.382,6.382,0,0,0-.69-.207h0a2.074,2.074,0,0,1-1.379-1.241l-.069-.207-.138-.138a1.545,1.545,0,0,1,.276-2.552l.207-.138.138-.207a2.182,2.182,0,0,1,1.931-1.172h.207l.138-.069a2.89,2.89,0,0,1,1.035-.276,1.946,1.946,0,0,1,1.035.276l.138.069h.207a2.266,2.266,0,0,1,1.931,1.172l.138.207.207.138a1.517,1.517,0,0,1,.828,1.379A1.473,1.473,0,0,1,69.742,49.011Z" transform="translate(-41.88 -17.268)" fill="#7e858b"/>
      </g>
    </g>
    <path id="Path_217" data-name="Path 217" d="M69.146,42.169a8.24,8.24,0,0,1-1.793.759h5.242V54.377a8.724,8.724,0,0,1-.207,1.931,6.739,6.739,0,0,1-.759,2.069c-.069.069-.069.138-.138.207a8.626,8.626,0,0,1-14.9,0c-.069-.069-.069-.138-.138-.207a8.365,8.365,0,0,1-.759-2.069,9.193,9.193,0,0,1-.207-1.931V42.859h5.38a9.29,9.29,0,0,1-1.793-.759H54.8V54.239a7.276,7.276,0,0,0,.276,2.138,11.085,11.085,0,0,0,.828,2.276c.069.069.069.138.138.276a9.356,9.356,0,0,0,16.139,0c.069-.069.069-.138.138-.276a6.437,6.437,0,0,0,.828-2.276,10.662,10.662,0,0,0,.276-2.138V42.169Z" transform="translate(-15.453 -11.396)" fill="#7e858b"/>
    <path id="Path_218" data-name="Path 218" d="M83.3,42.338,83.1,42.2l-.345.345-.345-.345-.207.138.345.345L82.2,43.1l.207.138.345-.345.345.345L83.3,43.1l-.414-.414Z" transform="translate(-23.956 -11.427)" fill="#7e858b"/>
    <path id="Path_219" data-name="Path 219" d="M53.6,42.338l-.138-.138-.414.345-.345-.345-.207.138.414.345-.345.414.138.138.345-.345.414.345L53.6,43.1l-.345-.414Z" transform="translate(-14.74 -11.427)" fill="#7e858b"/>
    <path id="Path_220" data-name="Path 220" d="M83.3,55.007,83.1,54.8l-.345.414-.345-.414-.207.207.345.345-.345.414.207.138.345-.345.345.345.207-.138-.414-.414Z" transform="translate(-23.956 -15.337)" fill="#7e858b"/>
    <path id="Path_221" data-name="Path 221" d="M53.6,55.007l-.138-.207-.414.414-.345-.414-.207.207.414.345-.345.414.138.138.345-.345.414.345.138-.138-.345-.414Z" transform="translate(-14.74 -15.337)" fill="#7e858b"/>
    <path id="Path_222" data-name="Path 222" d="M56.6,68.207,56.4,68l-.345.345L55.707,68l-.207.207.345.345L55.5,68.9l.207.207.345-.345.345.345L56.6,68.9l-.345-.345Z" transform="translate(-15.67 -19.433)" fill="#7e858b"/>
    <path id="Path_223" data-name="Path 223" d="M80.4,68.207,80.2,68l-.345.345L79.507,68l-.207.207.345.345L79.3,68.9l.207.207.345-.345.345.345L80.4,68.9l-.414-.345Z" transform="translate(-23.056 -19.433)" fill="#7e858b"/>
    <path id="Path_224" data-name="Path 224" d="M68.5,74.007,68.3,73.8l-.345.345-.345-.345-.207.207.345.345L67.4,74.7l.207.207.345-.345.345.345L68.5,74.7l-.414-.345Z" transform="translate(-19.363 -21.233)" fill="#7e858b"/>
  </g>
</svg>
