<?xml version="1.0" encoding="utf-8"?>
<!-- Generator: Adobe Illustrator 17.0.2, SVG Export Plug-In . SVG Version: 6.00 Build 0)  -->
<!DOCTYPE svg PUBLIC "-//W3C//DTD SVG 1.1//EN" "http://www.w3.org/Graphics/SVG/1.1/DTD/svg11.dtd">
<svg version="1.1" id="Logo" xmlns="http://www.w3.org/2000/svg" xmlns:xlink="http://www.w3.org/1999/xlink" x="0px" y="0px"
	 width="541.305px" height="70px" viewBox="0 0 541.305 70" enable-background="new 0 0 541.305 70" xml:space="preserve">
<path fill="#272626" d="M130.443,68.483h-15.115c-1.904,0-2.571-0.57-3.522-2.189l-13.501-23.42
	c-1.619-2.754-2.761-6.163-2.761-6.163h-0.19v29.493c0,1.518-0.762,2.28-2.285,2.28H79.369c-1.523,0-2.276-0.761-2.276-2.28V3.797
	c0-1.519,0.753-2.279,2.276-2.279h13.699c1.523,0,2.285,0.76,2.285,2.279v25.227h0.19l17.499-25.326
	c1.046-1.519,1.618-2.179,3.522-2.179h11.885c1.524,0,2.19,0.76,2.19,2.279c0,0.472-0.198,1.133-0.579,1.703l-18.821,25.327
	l20.826,33.568c0.374,0.57,0.66,1.247,0.66,1.808C132.728,67.721,131.966,68.483,130.443,68.483z"/>
<path fill="#272626" d="M153.776,68.483h-14.071c-1.532,0-2.198-0.761-2.198-2.28V3.797c0-1.519,0.666-2.279,2.198-2.279h14.071
	c1.516,0,2.285,0.76,2.285,2.279v62.406C156.061,67.721,155.292,68.483,153.776,68.483z"/>
<path fill="#272626" d="M185.572,70c-15.317,0-24.453-8.825-24.453-16.982c0-4.836,3.714-7.678,8.28-7.678
	c4.189,0,7.132,2.463,8.362,5.405c1.437,3.313,3.908,7.394,8.566,7.394c3.999,0,6.379-2.659,6.379-6.349
	c0-13.286-30.634-10.532-30.634-32.255C162.07,7.018,172.445,0,186.326,0c16.46,0,23.208,8.914,23.208,14.607
	c0,4.74-3.424,7.493-8.082,7.493c-3.809,0-6.375-2.278-7.795-5.317c-1.333-2.933-3.332-5.972-7.419-5.972
	c-3.617,0-6.283,2.375-6.283,6.541c0,12.43,31.483,9.392,31.483,32.445C211.438,61.843,202.118,70,185.572,70z"/>
<path fill="#272626" d="M239.616,70c-15.318,0-24.442-8.825-24.442-16.982c0-4.836,3.706-7.678,8.267-7.678
	c4.19,0,7.141,2.463,8.378,5.405c1.421,3.313,3.892,7.394,8.558,7.394c3.987,0,6.37-2.659,6.37-6.349
	c0-13.286-30.623-10.532-30.623-32.255C216.125,7.018,226.489,0,240.378,0c16.455,0,23.203,8.914,23.203,14.607
	c0,4.74-3.424,7.493-8.088,7.493c-3.801,0-6.367-2.278-7.792-5.317c-1.333-2.933-3.335-5.972-7.418-5.972
	c-3.618,0-6.28,2.375-6.28,6.541c0,12.43,31.484,9.392,31.484,32.445C265.485,61.843,256.159,70,239.616,70z"/>
<path fill="#272626" d="M334.27,68.483h-7.505c-1.152,0-1.627-0.479-1.627-1.619V33.201c0-5.887-3.131-9.202-8.745-9.202
	c-5.807,0-8.176,3.505-8.176,9.012v33.853c0,1.14-0.571,1.619-1.713,1.619h-7.515c-1.141,0-1.618-0.479-1.618-1.619V33.201
	c0-5.887-3.142-9.202-8.758-9.202c-5.412,0-8.17,1.709-8.17,6.543v36.321c0,1.14-0.479,1.619-1.618,1.619h-7.507
	c-1.15,0-1.721-0.479-1.721-1.619V26.84c0-3.316,1.142-4.646,3.801-5.881c3.046-1.423,8.468-2.847,14.944-2.847
	c7.41,0,11.885,2.184,15.019,5.697c3.142-3.419,7.891-5.697,15.69-5.697c7.14,0,16.833,3.229,16.833,14.61v34.142
	C335.885,68.003,335.413,68.483,334.27,68.483z"/>
<path fill="#272626" d="M362.165,69.712c-11.5,0-21.782-7.488-21.782-26.086c0-17.634,10.46-25.514,21.782-25.514
	c11.884,0,18.642,9.202,18.642,18.787c0,2.081-0.857,2.745-2.849,3.031l-27.673,4.557c0.558,8.91,4.937,16.596,14.07,16.596
	c6.083,0,10.08-4.557,12.078-8.065c0.478-0.855,1.334-1.704,2.469-1.704c1.238,0,2.189,1.134,2.189,2.368
	C381.093,59.374,374.334,69.712,362.165,69.712z M361.024,24.094c-7.61,0-10.845,7.588-11.228,14.981l20.643-3.505
	C370.151,29.687,367.772,24.094,361.024,24.094z"/>
<path fill="#272626" d="M400.714,69.621c-4.855,0-12.466-1.808-12.466-13.666V25.422h-5.041c-1.136,0-1.619-0.57-1.619-1.709v-2.755
	c0-1.137,0.484-1.612,1.619-1.612h5.041v-6.83c0-1.324,0.101-2.084,1.048-2.559l6.847-3.312c0.382-0.197,0.857-0.57,1.333-0.57
	c1.048,0,1.523,0.57,1.523,1.603v11.668h7.888c1.141,0,1.618,0.475,1.618,1.612v2.755c0,1.138-0.477,1.709-1.618,1.709H399V56.15
	c0,6.263,3.047,7.591,5.896,7.591c0.959,0,1.516-0.19,2.189-0.19c1.516,0,2.277,0.753,2.277,1.982
	C409.362,67.814,405.657,69.621,400.714,69.621z"/>
<path fill="#272626" d="M440.091,29.782c-5.14,0-4.094-5.688-9.516-5.688c-3.61,0-5.895,1.803-5.895,4.833v37.936
	c0,1.14-0.571,1.619-1.709,1.619h-7.52c-1.134,0-1.714-0.479-1.714-1.619V26.84c0-3.126,1.048-4.646,3.904-5.975
	c2.945-1.33,8.465-2.754,14.548-2.754c8.85,0,12.457,3.134,12.457,6.931C444.647,27.884,443.028,29.782,440.091,29.782z"/>
<path fill="#272626" d="M453.112,11.096c-3.698,0-6.276-2.279-6.276-5.126c0-2.841,2.578-5.12,6.276-5.12
	c3.712,0,6.283,2.279,6.283,5.12C459.396,8.818,456.825,11.096,453.112,11.096z M456.92,68.483h-7.607
	c-1.143,0-1.619-0.479-1.619-1.619V20.959c0-1.137,0.477-1.612,1.619-1.612h7.607c1.143,0,1.62,0.475,1.62,1.612v45.905
	C458.539,68.003,458.063,68.483,456.92,68.483z"/>
<path fill="#272626" d="M483.092,69.712c-11.03,0-21.109-7.778-21.109-25.795c0-16.793,9.032-25.805,21.489-25.805
	c12.084,0,17.599,8.261,17.599,12.431c0,3.037-1.809,4.83-5.039,4.83c-2.666,0-3.99-1.701-4.664-3.787
	c-0.666-2.184-2.755-7.492-8.557-7.492c-5.712,0-10.842,5.783-10.842,16.976c0,10.525,4.379,19.725,13.788,19.725
	c5.998,0,8.745-4.36,10.744-7.961c0.579-1.044,1.523-1.709,2.666-1.709c1.333,0,2.189,1.038,2.189,2.374
	C501.356,59.279,494.985,69.712,483.092,69.712z"/>
<path fill="#272626" d="M523.623,69.712c-12.844,0-18.268-7.778-18.268-11.951c0-3.034,1.904-4.553,4.57-4.553
	c2.376,0,4.376,1.232,5.129,3.132c1.532,3.793,3.619,7.211,8.752,7.211c3.81,0,7.141-2.757,7.141-7.211
	c0-11.387-24.639-9.107-24.639-24.28c0-8.822,7.137-13.949,17.213-13.949c11.703,0,16.359,6.741,16.359,10.532
	c0,2.849-1.903,4.272-4.275,4.272c-2.191,0-3.992-1.234-4.76-3.229c-1.231-2.944-3.229-6.258-7.507-6.258
	c-4.474,0-7.037,2.564-7.037,6.732c0,11.098,25.004,8.344,25.004,24.566C541.305,63.742,534.461,69.712,523.623,69.712z"/>
<path fill="#272626" d="M45.506,0.69c-12.479,0-22.713,9.808-23.34,22.105C9.835,23.42,0,33.622,0,46.072
	c0,12.849,10.481,23.306,23.371,23.306l36.018,0.007l0.11-0.007c5.174,0,9.387-4.189,9.387-9.354v-1.499V23.998
	C68.886,11.147,58.396,0.69,45.506,0.69z M28.456,29.938l1.273,0.392l-0.393-1.266c-0.491-1.55-0.745-3.196-0.745-4.914
	c0.02-9.236,7.506-16.701,16.762-16.725c9.257,0.024,16.751,7.493,16.763,16.725v34.051v1.479c-0.004,1.631-1.323,2.954-2.963,2.954
	h-0.108H23.524c-9.261-0.013-16.743-7.478-16.763-16.715c0.019-9.232,7.502-16.694,16.763-16.713
	C25.248,29.207,26.898,29.458,28.456,29.938z"/>
<path fill="#EF373E" d="M10.414,47.795L10.414,47.795h-0.23c0.049,0.541,0.097,0.871,0.23,1.415l0.015,0.026
	c1.283,4.813,5.109,8.595,9.95,9.848V47.795H10.414z"/>
<path fill="#82C341" d="M23.193,37.441v22.067c0.206,0.007,0.422,0.007,0.631,0.007h8.927V37.441H23.193z"/>
<rect x="36.103" y="19.307" fill="#F68A33" width="9.558" height="40.208"/>
<path fill="#15BEF0" d="M49.012,59.534h7.703c1.105,0,1.986-0.908,1.986-2.033V30.646h-9.689V59.534z"/>
</svg>
