<?xml version="1.0" encoding="utf-8"?>
<!-- Generator: Adobe Illustrator 16.0.0, SVG Export Plug-In . SVG Version: 6.00 Build 0)  -->
<!DOCTYPE svg PUBLIC "-//W3C//DTD SVG 1.1//EN" "http://www.w3.org/Graphics/SVG/1.1/DTD/svg11.dtd">
<svg version="1.1" id="Layer_1" xmlns="http://www.w3.org/2000/svg" xmlns:xlink="http://www.w3.org/1999/xlink" x="0px" y="0px"
	 width="545.646px" height="76.002px" viewBox="0 0 545.646 76.002" enable-background="new 0 0 545.646 76.002"
	 xml:space="preserve">
<g>
	<polygon fill="#82BFBE" points="17.078,17.438 0.128,5.629 0.128,52.916 17.078,41.129 	"/>
	<path fill="#235A5A" d="M99.837,76.001c7.594,0,13.809-6.946,13.809-15.438V42.928v-2.021v-3.914L57.55,76.001H99.837z"/>
	<path fill="#2C7A79" d="M113.646,5.488L56.783,44.977l-0.017-0.012L12.295,75.891c0.532,0.069,1.075,0.111,1.623,0.111H57.55
		l56.095-39.01V5.488z"/>
	<path fill="#FFFFFF" d="M21.678,32.372l12.516-8.656l22.62,15.681l56.832-39.373L0,0l21.678,15.035V32.372z M56.813,33.848
		L36.419,19.699l64.596-14.901L56.813,33.848z M14.646,4.588l85.158-1.789L26.712,12.984L14.646,4.588z"/>
	<path fill="#389798" d="M34.165,29.247L0.128,52.916v8.475c0.215,4.459,2.216,8.331,5.05,11.103
		c1.458,1.424,3.424,2.853,7.115,3.397l44.488-30.914L34.165,29.247z"/>
	<path fill="#FFFFFF" d="M135.426,37.021c0-16.033,12.122-26.979,27.763-26.979c11.496,0,18.142,6.254,21.818,12.744l-9.54,4.693
		c-2.19-4.225-6.883-7.586-12.278-7.586c-9.463,0-16.345,7.273-16.345,17.127c0,9.855,6.882,17.125,16.345,17.125
		c5.395,0,10.088-3.283,12.278-7.584l9.54,4.613c-3.754,6.492-10.322,12.826-21.818,12.826
		C147.548,64.002,135.426,53.053,135.426,37.021"/>
	<path fill="#FFFFFF" d="M215.91,63.062v-4.77c-2.581,2.893-7.117,5.709-13.295,5.709c-8.289,0-12.2-4.537-12.2-11.887V25.293h9.932
		v22.91c0,5.24,2.738,6.961,6.96,6.961c3.832,0,6.881-2.111,8.603-4.301v-25.57h9.932v37.77H215.91z"/>
	<path fill="#FFFFFF" d="M231.249,59.83l4.301-6.959c2.91,1.793,8.368,3.465,13.06,3.465c4.302,0,6.334-1.719,6.334-4.066
		c0-6.256-22.443-1.172-22.443-16.031c0-6.334,5.552-11.887,15.482-11.887c6.414,0,11.433,1.217,15.546,3.479l-4.789,6.371
		c-2.715-1.445-6.063-2.264-10.678-2.264c-3.597,0-5.943,1.641-5.943,3.754c0,5.631,22.366,0.938,22.366,16.188
		c0,6.883-5.865,12.123-16.343,12.123C241.571,64.002,235.775,62.77,231.249,59.83"/>
	<path fill="#FFFFFF" d="M273.979,53.678v-18.48h-6.248V32.32l13.062-17.354h3.195v11.549h7.662v8.682h-7.662v15.82
		c0,2.35,1.252,4.146,3.439,4.146c1.486,0,2.895-0.547,3.441-1.096l2.111,7.508c-1.484,1.33-4.145,2.426-8.289,2.426
		C277.733,64.002,273.979,60.402,273.979,53.678"/>
	<path fill="#FFFFFF" d="M297.116,44.137c0-10.713,7.506-19.785,19.941-19.785c12.512,0,20.02,9.072,20.02,19.785
		c0,10.793-7.508,19.865-20.02,19.865C304.622,64.002,297.116,54.93,297.116,44.137 M326.755,44.137
		c0-5.865-3.521-10.949-9.697-10.949c-6.178,0-9.619,5.084-9.619,10.949c0,5.943,3.441,11.027,9.619,11.027
		C323.233,55.164,326.755,50.08,326.755,44.137"/>
	<path fill="#FFFFFF" d="M389.327,64.002V40.15c0-3.52-1.562-6.023-5.629-6.023c-3.52,0-6.414,2.348-7.82,4.381v25.494h-10.01V40.15
		c0-3.52-1.564-6.023-5.631-6.023c-3.441,0-6.336,2.348-7.822,4.459v25.416h-9.932v-37.77h9.932v4.924
		c1.564-2.268,6.57-5.865,12.357-5.865c5.553,0,9.07,2.58,10.479,6.883c2.189-3.441,7.195-6.883,12.982-6.883
		c6.961,0,11.105,3.676,11.105,11.418v27.293H389.327z"/>
	<path fill="#FFFFFF" d="M404.745,44.137c0-10.949,8.055-19.785,19.551-19.785c11.262,0,18.924,8.447,18.924,20.803v2.189h-28.074
		c0.625,4.771,4.459,8.758,10.871,8.758c3.205,0,7.664-1.406,10.088-3.754l4.379,6.414c-3.754,3.439-9.697,5.24-15.562,5.24
		C413.427,64.002,404.745,56.258,404.745,44.137 M424.296,32.25c-6.178,0-8.838,4.615-9.307,8.367h18.613
		C433.368,37.021,430.864,32.25,424.296,32.25"/>
	<path fill="#FFFFFF" d="M448.628,64.002v-37.77h9.934v5.158c2.656-3.363,7.35-6.1,12.041-6.1v9.697
		c-0.703-0.156-1.641-0.234-2.736-0.234c-3.285,0-7.664,1.877-9.305,4.301v24.947H448.628z"/>
	<path fill="#FFFFFF" d="M469.519,57.588c0-3.441,2.895-6.334,6.334-6.334c3.441,0,6.336,2.893,6.336,6.334
		c0,3.439-2.895,6.336-6.336,6.336C472.413,63.924,469.519,61.027,469.519,57.588"/>
	<path fill="#FFFFFF" d="M489.382,16.221c0-3.285,2.738-5.865,5.943-5.865c3.285,0,5.943,2.58,5.943,5.865
		c0,3.283-2.658,5.943-5.943,5.943C492.12,22.164,489.382,19.504,489.382,16.221 M490.399,26.23h9.932v37.771h-9.932V26.23z"/>
	<path fill="#FFFFFF" d="M505.685,44.137c0-10.713,7.508-19.785,19.941-19.785c12.512,0,20.02,9.072,20.02,19.785
		c0,10.793-7.508,19.865-20.02,19.865C513.192,64.002,505.685,54.93,505.685,44.137 M535.323,44.137
		c0-5.865-3.52-10.949-9.697-10.949s-9.619,5.084-9.619,10.949c0,5.943,3.441,11.027,9.619,11.027S535.323,50.08,535.323,44.137"/>
</g>
</svg>
