<?xml version="1.0" encoding="utf-8"?>
<!-- Generator: Adobe Illustrator 17.1.0, SVG Export Plug-In . SVG Version: 6.00 Build 0)  -->
<!DOCTYPE svg PUBLIC "-//W3C//DTD SVG 1.1//EN" "http://www.w3.org/Graphics/SVG/1.1/DTD/svg11.dtd">
<svg version="1.1" id="Layer_1" xmlns="http://www.w3.org/2000/svg" xmlns:xlink="http://www.w3.org/1999/xlink" x="0px" y="0px"
	 viewBox="0 0 448.086 128.809" enable-background="new 0 0 448.086 128.809" xml:space="preserve">
<g>
	<g>
		<g>
			<path fill-rule="evenodd" clip-rule="evenodd" fill="#C12126" d="M343.18,42.359h-12.055v5.966
				c-4.225-4.722-9.941-7.333-16.406-7.333c-14.168,0-24.478,11.807-24.478,28.088c0,15.658,10.31,27.218,24.357,27.218
				c6.586,0,11.555-2.239,16.527-7.459v7.331c0,10.94-4.35,16.285-13.297,16.285c-4.848,0-9.57-2.363-11.682-6.093
				c-1.244-2.113-1.617-4.099-1.99-8.575h-11.805c0.121,15.659,9.816,25.476,25.352,25.476c8.949,0,16.654-3.603,21.004-10.065
				c3.48-4.972,4.473-9.57,4.473-19.759V42.359z M316.96,51.804c8.697,0,14.664,6.836,14.664,16.654
				c0,10.191-5.842,17.025-14.543,17.025c-8.822,0-14.537-6.585-14.537-16.776C302.543,58.516,308.258,51.804,316.96,51.804z"/>
			<path fill-rule="evenodd" clip-rule="evenodd" fill="#646569" d="M110.418,42.359v52.322h11.952V67.713
				c0-11.062,2.956-15.91,9.732-15.91c5.423,0,8.01,4.474,8.01,13.92v28.957h11.951V67.713c0-11.187,2.959-15.91,9.734-15.91
				c5.791,0,8.008,3.855,8.008,13.797v29.08h11.951V62.369c0-14.044-6.037-21.376-17.62-21.376c-6.405,0-11.705,2.733-15.4,7.706
				c-3.204-4.973-8.132-7.706-13.921-7.706c-5.176,0-7.886,1.367-12.445,6.214v-4.848H110.418z"/>
			<path fill-rule="evenodd" clip-rule="evenodd" fill="#646569" d="M227.01,42.359v6.09c-5.22-5.343-9.693-7.457-16.279-7.457
				c-14.044,0-24.731,11.683-24.731,27.217c0,16.404,10.439,28.089,24.98,28.089c6.337,0,10.439-1.867,16.03-7.086v5.469h12.055
				V42.359H227.01z M212.844,51.804c8.825,0,14.913,6.96,14.913,16.777c0,10.068-6.087,16.902-14.913,16.902
				c-8.452,0-14.541-7.083-14.541-16.902C198.303,58.889,204.517,51.804,212.844,51.804z"/>
			<path fill-rule="evenodd" clip-rule="evenodd" fill="#646569" d="M260.729,42.359h-12.057v52.322h12.057V42.359z M254.762,13.251
				c-4.473,0-7.953,3.481-7.953,7.83c0,4.349,3.605,7.953,7.83,7.953c4.352,0,7.953-3.604,7.953-7.953
				C262.592,16.732,259.112,13.251,254.762,13.251z"/>
			<rect x="271.788" y="0" fill-rule="evenodd" clip-rule="evenodd" fill="#646569" width="12.055" height="94.681"/>
			<path fill-rule="evenodd" clip-rule="evenodd" fill="#C12126" d="M362.485,42.359h-12.057v30.324
				c0,8.203,1.492,12.678,5.467,17.028c4.228,4.348,9.943,6.587,16.779,6.587c6.959,0,12.676-2.239,16.9-6.587
				c3.979-4.35,5.467-8.825,5.467-17.028V42.359h-12.053v30.076c0,8.949-3.23,13.048-10.314,13.048
				c-6.959,0-10.189-4.1-10.189-13.048V42.359z"/>
			<path fill-rule="evenodd" clip-rule="evenodd" fill="#C12126" d="M403.096,42.359v52.322h12.059V69.452
				c0-12.926,2.982-17.648,11.059-17.648c7.459,0,9.818,3.357,9.818,13.672v29.205h12.055V62.617
				c0-14.666-6.09-21.625-18.891-21.625c-5.717,0-9.318,1.616-14.041,6.214v-4.848H403.096z"/>
		</g>
		<path fill="#C12126" d="M48.828,46.496c-10.198,0-18.467,8.267-18.467,18.467c0,10.199,8.269,18.468,18.467,18.468
			c10.199,0,18.468-8.269,18.468-18.468C67.296,54.763,59.027,46.496,48.828,46.496z M20.032,64.963
			c0-15.904,12.892-28.795,28.795-28.795c15.905,0,28.796,12.892,28.796,28.795c0,1.053-0.056,2.091-0.166,3.113
			c-0.219,2.807,1.841,4.95,4.63,4.95c4.734,0,5.238-6.104,5.238-8.062c0-21.263-17.236-38.499-38.499-38.499
			S10.329,43.7,10.329,64.963c0,21.262,17.236,38.498,38.498,38.498c11.292,0,21.449-4.859,28.491-12.602l7.915,6.646
			c-8.94,9.994-21.939,16.288-36.406,16.288C21.861,113.793,0,91.93,0,64.963s21.861-48.828,48.828-48.828
			c26.968,0,48.829,21.861,48.829,48.828c0,10.84-5.162,19.642-15.528,19.642c-4.562,0-7.336-2.09-8.85-4.423
			C68.193,88.333,59.145,93.76,48.828,93.76C32.924,93.76,20.032,80.866,20.032,64.963z M48.828,56.513
			c4.668,0,8.452,3.783,8.452,8.45c0,4.668-3.784,8.452-8.452,8.452c-4.667,0-8.451-3.785-8.451-8.452S44.161,56.513,48.828,56.513z
			"/>
	</g>
</g>
<g>
	<g>
		<path fill="#999999" d="M279.684,120.458c-0.131,1.46,0.93,2.627,2.39,2.627c1.487,0,2.813-1.213,2.944-2.703
			c0.131-1.461-0.934-2.627-2.39-2.627C281.144,117.755,279.819,118.968,279.684,120.458z M279.263,120.419
			c0.158-1.703,1.66-3.088,3.365-3.088c1.708,0,2.965,1.385,2.813,3.088c-0.159,1.704-1.664,3.085-3.367,3.085
			C280.369,123.504,279.112,122.123,279.263,120.419z M281.674,118.599c0.003-0.006,0.011-0.011,0.018-0.011h0.772h0.006
			c0.203,0.002,0.331,0.002,0.434,0.011c0.135,0.008,0.234,0.031,0.341,0.068c0.392,0.13,0.613,0.442,0.613,0.837
			c0,0.068-0.003,0.139-0.021,0.211c-0.09,0.487-0.395,0.883-0.964,1.037l0.495,1.463c0,0.005,0.005,0.005,0.005,0.005
			c0,0.006-0.005,0.008-0.005,0.011c-0.003,0.002-0.006,0.005-0.01,0.005h-0.506c-0.003,0-0.011-0.003-0.014-0.008l-0.471-1.395
			l-0.311,0.009h-0.014h-0.336l-0.263,1.384c0,0.006-0.01,0.01-0.013,0.01h-0.418c-0.003,0-0.009-0.003-0.013-0.005
			c-0.005-0.003-0.005-0.006-0.005-0.011l0.263-1.396l0.003-0.018l0.21-1.096L281.674,118.599z M282.38,119.033h-0.338l-0.126,0.683
			l-0.128,0.678h0.335h0.034c0.176-0.004,0.29-0.007,0.379-0.012c0.099-0.005,0.173-0.022,0.255-0.044
			c0.32-0.094,0.548-0.329,0.604-0.628c0.054-0.295-0.08-0.528-0.365-0.619c-0.074-0.027-0.138-0.037-0.235-0.046
			c-0.093-0.007-0.203-0.007-0.371-0.012H282.38z"/>
		<path fill="#999999" d="M149.932,104.816c0.314,0,0.696,0.032,0.978,0.084c0.006,0,0.014,0.007,0.017,0.012
			c0.003,0.006,0.003,0.011,0.003,0.021l-1.017,5.126c-0.003,0.008-0.006,0.014-0.013,0.017c-0.008,0.002-0.014,0.006-0.021,0.002
			c-0.183-0.034-0.476-0.082-0.823-0.082c-3.593,0-4.994,3.513-5.541,6.416l-1.274,6.829c-0.003,0.009-0.014,0.019-0.024,0.019
			h-5.239c-0.006,0-0.014-0.003-0.021-0.01c-0.006-0.006-0.006-0.014-0.006-0.02l3.423-17.994c0.003-0.01,0.014-0.02,0.027-0.02
			h4.605c0.006,0,0.014,0.003,0.021,0.01c0.003,0.002,0.006,0.009,0.006,0.016l-0.234,1.214c-0.216,1.157-0.572,1.841-0.799,2.164
			l-0.034,0.059c-0.083,0.173,0.043,0.348,0.182,0.413c0.138,0.065,0.354,0.048,0.437-0.123l0.021-0.064
			c0.102-0.381,0.312-1.209,1.026-2.006C146.853,105.549,148.334,104.816,149.932,104.816z"/>
		<path fill-rule="evenodd" clip-rule="evenodd" fill="#999999" d="M207.672,104.851c2.177,0,3.782,0.474,4.56,0.914
			c0.011,0.003,0.018,0.015,0.014,0.026l-0.751,3.941c0,0.01-0.008,0.015-0.018,0.021c-0.006,0.003-0.018,0.003-0.024-0.004
			c-0.879-0.476-2.4-0.989-4.036-0.989c-1.371,0-2.262,0.574-2.262,1.539c0,0.688,0.685,1.306,2.131,2.012
			c1.884,0.944,4.012,2.339,4.012,4.861c0,1.644-0.548,3.021-1.628,4.096c-1.439,1.427-3.775,2.207-6.582,2.187
			c-2.16-0.038-4.339-0.598-5.431-1.389c-0.01-0.006-0.018-0.017-0.01-0.027l0.754-3.964c0-0.009,0.003-0.014,0.009-0.018
			c0.01-0.006,0.021-0.006,0.027,0c1.167,0.733,3.471,1.525,5.159,1.525c1.313,0,2.195-0.604,2.195-1.575
			c0-0.877-0.621-1.492-2.205-2.267c-2.507-1.255-3.761-2.841-3.761-4.716C199.827,107.343,202.965,104.851,207.672,104.851z"/>
		<path fill="#999999" d="M185.342,98.957h5.204c0.006,0,0.014,0.006,0.018,0.012c0.006,0.006,0.006,0.011,0.006,0.021
			l-2.717,14.297c0,0.006,0,0.011,0.006,0.014c0.008,0.003,0.011,0.003,0.018-0.003l6.998-8.071c0.003-0.006,0.01-0.01,0.021-0.01
			h5.703c0.01,0,0.021,0.005,0.024,0.014c0.003,0.004,0.003,0.009,0.003,0.011c0,0.007-0.003,0.012-0.006,0.019l-7.246,8.161
			l4.419,9.594c0.003,0.003,0.003,0.006,0.003,0.012c0,0.002,0,0.008-0.003,0.012c-0.003,0.009-0.014,0.014-0.024,0.014h-5.631
			c-0.011,0-0.021-0.008-0.024-0.018l-4.284-9.498c-0.003-0.006-0.006-0.01-0.014-0.01c-0.006,0.004-0.01,0.006-0.01,0.012
			L186,123.032c-0.003,0.015-0.014,0.023-0.027,0.023h-5.202c-0.006,0-0.016-0.005-0.019-0.011c-0.008-0.006-0.011-0.014-0.008-0.02
			l4.571-24.044C185.318,98.966,185.328,98.957,185.342,98.957z"/>
		<path fill-rule="evenodd" clip-rule="evenodd" fill="#999999" d="M178.299,104.889c1.332,0,2.696,0.231,3.647,0.621
			c0.01,0.003,0.018,0.014,0.014,0.03l-0.807,4.242c-0.003,0.009-0.006,0.019-0.018,0.021c-0.006,0.003-0.016,0.003-0.024-0.002
			c-0.815-0.455-1.763-0.679-2.889-0.679c-3.764,0-6.01,3.284-6.01,6.451c0,2.684,1.795,3.645,3.465,3.645
			c1.495,0,2.765-0.326,4.381-1.122c0.006-0.005,0.018-0.002,0.024,0.006c0.011,0.006,0.014,0.013,0.014,0.022l-0.826,4.365
			c-0.005,0.006-0.008,0.014-0.018,0.016c-1.223,0.592-3.117,0.951-5.062,0.951c-4.574,0-7.522-2.864-7.522-7.301
			C166.669,109.732,171.666,104.889,178.299,104.889z"/>
		<path fill-rule="evenodd" clip-rule="evenodd" fill="#999999" d="M269.831,112.321c0.021,0,0.045,0,0.069-0.002
			c2.091-0.088,3.34-0.411,3.956-1.018c0.293-0.291,0.431-0.644,0.431-1.076c0-0.922-0.76-1.502-1.9-1.502
			c-1.715,0-2.962,1.054-3.647,2.314c-0.021,0.034-0.042,0.074-0.059,0.109c-0.5,0.933-0.657,1.035-1.105,1.316l-0.054,0.039
			c-0.146,0.123-0.098,0.336,0,0.451c0.096,0.114,0.291,0.196,0.437,0.073l0.048-0.051
			C268.371,112.542,268.446,112.383,269.831,112.321z M273.045,104.851c3.722,0,6.206,2.167,6.206,5.375
			c0,1.483-0.482,2.703-1.433,3.633c-1.601,1.559-4.494,2.342-8.833,2.369h-0.003c-1.044,0-1.283-0.525-1.465-0.874l-0.034-0.056
			c-0.117-0.148-0.341-0.117-0.461-0.023c-0.118,0.091-0.197,0.297-0.08,0.443l0.048,0.05c0.482,0.438,0.648,0.534,0.847,1.238
			c0.086,0.355,0.227,0.712,0.424,0.984c0.685,0.868,1.897,1.336,3.399,1.336c2.197,0,4.099-0.529,6.164-1.723
			c0.011-0.006,0.021-0.006,0.032,0c0.007,0.007,0.013,0.019,0.01,0.027l-0.833,4.384c0,0.009-0.008,0.015-0.014,0.022
			c-2.52,1.281-5.476,1.421-6.633,1.421c-4.922,0-7.735-2.739-7.735-7.521c0-2.754,1.009-5.516,2.776-7.577
			C267.363,106.097,270.065,104.851,273.045,104.851z"/>
		<path fill="#999999" d="M220.047,119.472c2.783,0,4.818-3.946,4.818-7.428c0-0.84-0.197-2.883-2.131-2.883
			c-1.974,0-3.638,2.243-4.281,5.649C218.234,115.974,217.612,119.472,220.047,119.472z M219.678,105.137l-0.155,0.82
			c-0.245,1.29-0.628,1.788-0.879,2.092l-0.037,0.057c-0.094,0.167,0.006,0.347,0.138,0.419c0.133,0.073,0.368,0.078,0.461-0.09
			l0.024-0.061c0.131-0.373,0.338-1.13,1.161-1.917c1.209-1.037,2.682-1.607,4.208-1.607c3.503,0,5.772,2.656,5.772,6.795
			c0,4.338-2.083,8.786-5.833,10.789c-2.917,1.55-5.58,1.202-6.881,0.181c-0.314-0.247-0.392-0.888-0.424-1.141l-0.016-0.068
			c-0.059-0.178-0.272-0.248-0.434-0.189c-0.146,0.05-0.272,0.223-0.218,0.4l0.027,0.062c0.242,0.425,0.404,0.733,0.355,1.12
			l-1.134,5.985c0,0.014-0.013,0.023-0.027,0.023h-5.239c-0.006,0-0.013-0.003-0.018-0.009c-0.006-0.009-0.009-0.014-0.006-0.023
			l4.497-23.65c0-0.012,0.014-0.024,0.024-0.024l4.608,0.006c0.008,0,0.014,0.003,0.021,0.009
			C219.678,105.123,219.682,105.133,219.678,105.137z"/>
		<path fill-rule="evenodd" clip-rule="evenodd" fill="#999999" d="M259.97,104.889c1.337,0,2.701,0.231,3.644,0.621
			c0.014,0.003,0.021,0.014,0.021,0.03l-0.808,4.242c-0.003,0.009-0.011,0.019-0.018,0.021c-0.006,0.003-0.014,0.003-0.021-0.002
			c-0.82-0.455-1.763-0.679-2.89-0.679c-3.767,0-6.012,3.284-6.012,6.451c0,2.684,1.793,3.645,3.465,3.645
			c1.494,0,2.765-0.326,4.38-1.122c0.009-0.005,0.021-0.002,0.027,0.006c0.006,0.006,0.014,0.013,0.014,0.022l-0.831,4.365
			c-0.003,0.006-0.003,0.014-0.018,0.016c-1.222,0.592-3.112,0.951-5.066,0.951c-4.57,0-7.519-2.864-7.519-7.301
			C248.34,109.732,253.339,104.889,259.97,104.889z"/>
		<path fill="#999999" d="M238.556,109.931c-1.422,1.422-2.49,4.094-2.486,6.219c0,1.864,0.69,3.029,1.894,3.029
			c1.926,0,3.586-2.014,4.158-4.962c0.123-0.658,0.255-1.33,0.348-1.925c0.096-0.596,0.155-1.12,0.137-1.487
			c-0.066-1.262-0.719-1.938-1.894-1.938C239.992,108.868,239.25,109.241,238.556,109.931z M240.516,123.058l0.155-0.797
			c0.149-0.72,0.724-1.708,0.945-2.029l0.034-0.059c0.078-0.174-0.038-0.375-0.176-0.437c-0.165-0.07-0.371-0.014-0.45,0.159
			l-0.026,0.064c-0.088,0.38-0.299,1.242-1.114,2.017c-1.041,0.95-2.483,1.514-4.051,1.514c-3.516,0-5.104-3.123-5.111-6.246
			c0-3.55,1.395-7.063,3.729-9.4c1.956-1.959,4.481-2.994,7.306-2.994c2.145,0.012,3.732,0.632,4.728,1.839
			c1.475,1.785,1.358,4.466,0.988,6.411l-1.907,9.966c0,0.014-0.015,0.02-0.024,0.02h-5.002c-0.006,0-0.016-0.002-0.019-0.006
			C240.516,123.074,240.51,123.064,240.516,123.058z"/>
		<path fill="#999999" d="M156.885,109.931c-1.422,1.422-2.49,4.094-2.49,6.219c0,1.864,0.695,3.029,1.894,3.029
			c1.928,0,3.585-2.014,4.156-4.962c0.128-0.658,0.258-1.33,0.352-1.925c0.093-0.596,0.15-1.12,0.133-1.487
			c-0.058-1.262-0.716-1.938-1.894-1.938C158.322,108.868,157.574,109.241,156.885,109.931z M158.842,123.058l0.158-0.797
			c0.15-0.72,0.722-1.708,0.94-2.029l0.034-0.059c0.08-0.174-0.034-0.375-0.174-0.437c-0.167-0.07-0.368-0.014-0.451,0.159
			l-0.018,0.064c-0.096,0.38-0.303,1.242-1.119,2.017c-1.039,0.95-2.483,1.514-4.054,1.514c-3.513,0-5.103-3.123-5.103-6.246
			c-0.005-3.55,1.387-7.063,3.726-9.4c1.956-1.959,4.48-2.994,7.301-2.994c2.149,0.012,3.737,0.632,4.736,1.839
			c1.47,1.785,1.35,4.466,0.981,6.411l-1.905,9.966c-0.003,0.014-0.009,0.02-0.027,0.02h-5c-0.006,0-0.014-0.002-0.018-0.006
			C158.845,123.074,158.839,123.064,158.842,123.058z"/>
	</g>
	<g>
		<path fill-rule="evenodd" clip-rule="evenodd" fill="#999999" d="M115.775,123.265c2.269,0,4.443-1.796,4.443-4.968v-0.038
			c0-3.19-2.192-4.968-4.443-4.968c-1.556,0-2.554,0.797-3.263,1.794v-5.257h-2.193v13.235h2.193v-1.486
			C113.186,122.465,114.182,123.265,115.775,123.265z M115.25,121.359c-1.484,0-2.789-1.234-2.789-3.062v-0.038
			c0-1.831,1.305-3.064,2.789-3.064c1.487,0,2.738,1.215,2.738,3.064v0.038C117.988,120.181,116.757,121.359,115.25,121.359z"/>
		<path fill-rule="evenodd" clip-rule="evenodd" fill="#999999" d="M125.699,120.598l-2.703-7.109h-2.355l3.99,9.593
			c-0.365,0.814-0.743,1.087-1.359,1.087c-0.455,0-0.892-0.146-1.29-0.364l-0.743,1.634c0.673,0.363,1.359,0.579,2.266,0.579
			c1.54,0,2.395-0.725,3.157-2.684l3.804-9.845h-2.283L125.699,120.598z"/>
	</g>
</g>
</svg>
