<?xml version="1.0" encoding="utf-8"?>
<!-- Generator: Adobe Illustrator 16.0.4, SVG Export Plug-In . SVG Version: 6.00 Build 0)  -->
<!DOCTYPE svg PUBLIC "-//W3C//DTD SVG 1.1//EN" "http://www.w3.org/Graphics/SVG/1.1/DTD/svg11.dtd">
<svg version="1.1" id="Layer_1" xmlns="http://www.w3.org/2000/svg" xmlns:xlink="http://www.w3.org/1999/xlink" x="0px" y="0px"
	 width="230.01px" height="50px" viewBox="325.092 69.502 230.01 50" enable-background="new 325.092 69.502 230.01 50"
	 xml:space="preserve">
<g>
	<path fill="#C23C2F" d="M371.42,83.57h-10.68V72.89c0-1.562-1.267-2.828-2.829-2.828h-16.598c-1.562,0-2.829,1.266-2.829,2.828
		v10.68h-10.68c-1.562,0-2.829,1.267-2.829,2.829v16.598c0,1.562,1.267,2.828,2.829,2.828h10.68v10.68
		c0,1.562,1.267,2.829,2.829,2.829h16.598c1.562,0,2.829-1.267,2.829-2.829v-10.68h10.68c1.562,0,2.829-1.266,2.829-2.829V86.399
		C374.249,84.837,372.982,83.57,371.42,83.57z"/>
	<path fill="#FFFFFF" d="M341.313,117.212c-0.39,0-0.707-0.317-0.707-0.707v-12.802h-12.801c-0.39,0-0.707-0.316-0.707-0.707V86.399
		c0-0.39,0.317-0.708,0.707-0.708h12.801V72.89c0-0.39,0.317-0.707,0.707-0.707h16.598c0.39,0,0.707,0.317,0.707,0.707v12.802
		h12.801c0.39,0,0.707,0.317,0.707,0.708v16.598c0,0.39-0.317,0.707-0.707,0.707h-12.801v12.802c0,0.39-0.317,0.707-0.707,0.707
		H341.313L341.313,117.212z"/>
	<path fill="#333333" d="M386.904,105.934V83.462h10.701c2.415,0,4.116,0.477,5.104,1.432c0.987,0.955,1.481,2.612,1.481,4.972
		c0,2.075-0.269,3.521-0.807,4.338c-0.538,0.817-1.563,1.347-3.078,1.588v0.05c2.381,0.175,3.572,1.625,3.572,4.346v5.746h-2.536
		v-5.169c0-2.623-1.136-3.935-3.408-3.935h-0.839h-7.655v9.104L386.904,105.934L386.904,105.934z M389.439,94.689h7.326
		c1.932,0,3.249-0.293,3.951-0.88c0.702-0.587,1.053-1.693,1.053-3.317c0-2.03-0.261-3.353-0.781-3.968
		c-0.521-0.614-1.639-0.922-3.351-0.922h-8.198V94.689z"/>
	<path fill="#333333" d="M418.069,101.176h2.354l0.017,0.577c0,1.635-0.497,2.779-1.49,3.432c-0.994,0.653-2.736,0.979-5.227,0.979
		c-2.897,0-4.799-0.529-5.705-1.589c-0.905-1.059-1.358-3.284-1.358-6.676c0-3.138,0.455-5.246,1.366-6.322
		c0.911-1.075,2.694-1.613,5.351-1.613c2.897,0,4.796,0.466,5.696,1.4c0.899,0.932,1.35,2.897,1.35,5.894v1.235h-11.327
		c0,2.48,0.267,4.061,0.799,4.741s1.775,1.021,3.729,1.021c1.854,0,3.059-0.162,3.613-0.486c0.554-0.323,0.832-1.023,0.832-2.099
		L418.069,101.176L418.069,101.176z M418.069,96.698l-0.017-0.741c0-1.701-0.28-2.807-0.839-3.317
		c-0.56-0.51-1.767-0.766-3.622-0.766c-1.866,0-3.076,0.299-3.63,0.897c-0.554,0.599-0.832,1.907-0.832,3.927H418.069z"/>
	<path fill="#333333" d="M435.586,94.311h-2.305c0-1.098-0.222-1.778-0.667-2.042c-0.445-0.263-1.589-0.395-3.433-0.395
		c-1.712,0-2.799,0.14-3.26,0.42c-0.461,0.28-0.691,0.952-0.691,2.017c0,1.613,0.774,2.458,2.321,2.535l1.86,0.099l2.354,0.115
		c2.854,0.143,4.28,1.635,4.28,4.478c0,1.768-0.472,2.979-1.416,3.639c-0.944,0.659-2.672,0.987-5.186,0.987
		c-2.579,0-4.354-0.312-5.326-0.938c-0.972-0.626-1.457-1.773-1.457-3.441l0.017-0.856h2.387l0.016,0.741
		c0,1.032,0.264,1.721,0.791,2.066c0.527,0.346,1.564,0.519,3.111,0.519c1.899,0,3.147-0.181,3.746-0.543
		c0.598-0.362,0.897-1.119,0.897-2.271c0-1.657-0.752-2.486-2.255-2.486c-3.501,0-5.803-0.296-6.907-0.889
		c-1.103-0.593-1.654-1.822-1.654-3.688c0-1.767,0.437-2.944,1.309-3.531c0.873-0.586,2.609-0.88,5.21-0.88
		c4.17,0,6.256,1.257,6.256,3.77V94.311L435.586,94.311z"/>
	<path fill="#333333" d="M449.498,100.254h2.305l0.016,0.856c0,3.37-2.206,5.054-6.618,5.054c-2.832,0-4.703-0.532-5.613-1.596
		c-0.912-1.064-1.367-3.261-1.367-6.585c0-3.118,0.463-5.233,1.391-6.347c0.928-1.114,2.692-1.671,5.293-1.671
		c2.557,0,4.302,0.376,5.235,1.128s1.399,2.165,1.399,4.239h-2.305V94.92c0-1.219-0.302-2.03-0.905-2.436
		c-0.604-0.407-1.806-0.609-3.605-0.609c-1.734,0-2.848,0.384-3.342,1.152c-0.494,0.769-0.741,2.492-0.741,5.169
		c0,2.613,0.282,4.275,0.848,4.989c0.565,0.713,1.885,1.07,3.959,1.07c1.756,0,2.87-0.233,3.343-0.7
		C449.262,103.089,449.498,101.988,449.498,100.254z"/>
	<path fill="#333333" d="M467.196,90.196v15.738h-2.305l0.165-2.058l-0.05-0.05c-0.801,1.559-2.514,2.338-5.137,2.338
		c-3.676,0-5.515-1.833-5.515-5.499v-10.47h2.305v10.47c0,1.427,0.236,2.382,0.708,2.864c0.472,0.483,1.399,0.725,2.782,0.725
		c1.811,0,3.054-0.359,3.729-1.078s1.013-2.039,1.013-3.959v-9.021H467.196z"/>
	<path fill="#333333" d="M481.733,101.176h2.354l0.017,0.577c0,1.635-0.496,2.779-1.49,3.432c-0.993,0.653-2.735,0.979-5.227,0.979
		c-2.897,0-4.799-0.529-5.704-1.589c-0.906-1.059-1.358-3.284-1.358-6.676c0-3.138,0.455-5.246,1.366-6.322
		c0.911-1.075,2.694-1.613,5.351-1.613c2.897,0,4.796,0.466,5.695,1.4c0.9,0.932,1.351,2.897,1.351,5.894v1.235h-11.326
		c0,2.48,0.266,4.061,0.799,4.741c0.532,0.681,1.774,1.021,3.728,1.021c1.855,0,3.061-0.162,3.614-0.486
		c0.555-0.323,0.831-1.023,0.831-2.099V101.176L481.733,101.176z M481.733,96.698l-0.017-0.741c0-1.701-0.28-2.807-0.84-3.317
		s-1.767-0.766-3.621-0.766c-1.866,0-3.076,0.299-3.63,0.897c-0.555,0.599-0.832,1.907-0.832,3.927H481.733z"/>
	<path fill="#333333" d="M498.622,87.281v18.652h-4.264V87.281h-6.486v-3.819h17.467v3.819H498.622z"/>
	<path fill="#333333" d="M510.476,83.462v3.145h-3.77v-3.145H510.476z M510.476,90.196v15.738h-3.77V90.196H510.476z"/>
	<path fill="#333333" d="M513.506,90.196h3.771l-0.1,2.42l0.083,0.017c0.768-1.745,2.37-2.618,4.807-2.618
		c2.843,0,4.424,0.971,4.741,2.914h0.066c0.734-1.943,2.354-2.914,4.856-2.914c3.644,0,5.466,1.833,5.466,5.499v10.421h-3.771
		v-9.598c0-2.228-0.916-3.342-2.749-3.342c-2.294,0-3.44,1.246-3.44,3.737v9.203h-3.771v-9.746c0-1.306-0.173-2.165-0.519-2.577
		c-0.346-0.412-1.078-0.617-2.197-0.617c-2.316,0-3.474,1.273-3.474,3.819v9.121h-3.771V90.196L513.506,90.196z"/>
	<path fill="#333333" d="M551.189,100.896h3.787v0.609c0,3.074-2.306,4.61-6.915,4.61c-3.128,0-5.175-0.532-6.141-1.597
		c-0.966-1.064-1.449-3.319-1.449-6.766c0-3.063,0.505-5.121,1.516-6.174c1.009-1.053,2.979-1.581,5.91-1.581
		c2.81,0,4.691,0.513,5.646,1.54c0.955,1.027,1.433,3.043,1.433,6.05v1.152h-10.652c-0.021,0.352-0.032,0.582-0.032,0.691
		c0,1.548,0.238,2.579,0.716,3.095c0.478,0.516,1.43,0.774,2.856,0.774c1.383,0,2.283-0.151,2.699-0.453
		C550.981,102.545,551.189,101.895,551.189,100.896z M551.223,96.435l-0.017-0.626c0-1.251-0.217-2.062-0.65-2.437
		c-0.434-0.373-1.375-0.56-2.823-0.56c-1.405,0-2.318,0.225-2.741,0.675c-0.423,0.45-0.634,1.432-0.634,2.947H551.223z"/>
	
		<linearGradient id="SVGID_1_" gradientUnits="userSpaceOnUse" x1="155.6118" y1="200.386" x2="155.6118" y2="222.8997" gradientTransform="matrix(1 0 0 -1 194 317.5981)">
		<stop  offset="0" style="stop-color:#BAC4D3"/>
		<stop  offset="1" style="stop-color:#DDE1E7"/>
	</linearGradient>
	
		<path opacity="0.8" fill="url(#SVGID_1_)" stroke="#DFE4E9" stroke-width="0.2612" stroke-miterlimit="10" enable-background="new    " d="
		M327.098,94.698v8.299c0,0.39,0.317,0.707,0.707,0.707h12.801v12.802c0,0.39,0.317,0.707,0.707,0.707h16.598
		c0.39,0,0.707-0.317,0.707-0.707v-12.802h12.801c0.39,0,0.707-0.316,0.707-0.707v-8.299H327.098z"/>
	<g>
		<path fill="#212828" d="M353.207,78.728l-3.689-5.494l-3.69,5.494l2.282-0.47v13.121c-0.909,0.526-1.521,1.506-1.521,2.632
			c0,1.68,1.362,3.042,3.042,3.042s3.042-1.362,3.042-3.042c0-1.194-0.689-2.225-1.69-2.723V78.27L353.207,78.728z"/>
		<polygon fill="#212828" points="367.492,93.95 363.266,91.112 363.554,92.513 353.721,92.513 353.721,95.387 363.554,95.387 
			363.266,96.789 		"/>
	</g>
</g>
</svg>
