<?xml version="1.0" encoding="utf-8"?>
<!-- Generator: Adobe Illustrator 18.0.0, SVG Export Plug-In . SVG Version: 6.00 Build 0)  -->
<!DOCTYPE svg PUBLIC "-//W3C//DTD SVG 1.1//EN" "http://www.w3.org/Graphics/SVG/1.1/DTD/svg11.dtd">
<svg version="1.1" xmlns="http://www.w3.org/2000/svg" xmlns:xlink="http://www.w3.org/1999/xlink" x="0px" y="0px"
	 viewBox="0 0 290.2 73.6" enable-background="new 0 0 290.2 73.6" xml:space="preserve">
<g id="Layer_1" display="none">
	<g display="inline">
		<path fill="#E6E7E8" d="M115.7,24.9c-0.3,1-0.8,2-1.4,3c-1-0.5-2-0.8-3-1.1c-1-0.3-2.3-0.5-4-0.5c-0.6,0-1.2,0.1-1.9,0.1
			c-0.7,0.1-1.3,0.3-1.8,0.6c-0.5,0.3-1,0.7-1.4,1.2c-0.4,0.5-0.6,1.1-0.6,2c0,1.1,0.4,2.1,1.2,2.8c0.8,0.7,1.9,1.5,3.1,2.2
			c1.1,0.6,2.2,1.3,3.1,1.9c1,0.6,1.8,1.3,2.5,2.1c0.7,0.7,1.3,1.6,1.7,2.5c0.4,0.9,0.6,2,0.6,3.2c0,1.7-0.3,3.3-0.9,4.9
			c-0.6,1.6-1.6,2.9-2.9,4.1c-1.3,1.2-2.9,2.1-4.9,2.8c-2,0.7-4.3,1.1-7,1.1c-3.1,0-6.2-0.6-9.2-1.8c0.1-1,0.4-2,0.7-3
			c0.4-1,0.8-2.1,1.3-3.2c1.3,0.5,2.6,0.9,3.9,1.2c1.3,0.3,2.6,0.5,3.8,0.5c1,0,2-0.1,2.9-0.3c0.9-0.2,1.6-0.6,2.3-1
			c0.6-0.5,1.2-1,1.5-1.7c0.4-0.7,0.6-1.5,0.6-2.4c0-0.7-0.2-1.3-0.5-1.8c-0.3-0.5-0.7-1-1.1-1.3c-0.5-0.4-1-0.8-1.7-1.1
			c-0.6-0.3-1.3-0.7-1.9-1.1c-2.1-1.3-3.8-2.6-5.1-3.9c-1.2-1.3-1.9-2.9-1.9-4.8c0-1.8,0.3-3.4,1-4.8c0.6-1.4,1.5-2.6,2.7-3.6
			c1.2-1,2.6-1.7,4.2-2.2c1.6-0.5,3.5-0.8,5.6-0.8c1.8,0,3.4,0.1,4.7,0.4c1.3,0.3,2.7,0.7,4.2,1.3C116.3,23,116.1,23.9,115.7,24.9
			L115.7,24.9z M138.6,40.9c-0.7,1.1-1.6,2-2.8,2.8c-1.2,0.8-2.5,1.4-4,1.9c-1.5,0.5-3,0.8-4.6,1.1l-3.4,0.5
			c0.2,1.6,0.7,2.8,1.6,3.6c0.9,0.8,2.1,1.2,3.8,1.2c1.3,0,2.5-0.1,3.5-0.4c1-0.3,2.1-0.7,3.2-1.1c0.5,0.7,0.9,1.5,1.1,2.4
			c0.2,0.9,0.3,2,0.3,3c-0.6,0.3-1.2,0.5-2,0.7c-0.7,0.2-1.5,0.4-2.3,0.6c-0.8,0.2-1.6,0.3-2.4,0.3c-0.8,0.1-1.5,0.1-2.1,0.1
			c-2,0-3.8-0.3-5.2-0.7c-1.4-0.5-2.6-1.2-3.6-2.1c-0.9-0.9-1.6-2-2.1-3.3c-0.4-1.3-0.7-2.8-0.7-4.4c0-2,0.3-4,1-6
			c0.7-2,1.7-3.7,3-5.3c1.3-1.6,2.8-2.8,4.7-3.8c1.8-0.9,3.9-1.4,6.2-1.4c1.1,0,2.1,0.1,3.1,0.4c1,0.3,1.8,0.7,2.5,1.2
			c0.7,0.5,1.2,1.2,1.7,2c0.4,0.8,0.6,1.7,0.6,2.8C139.7,38.5,139.3,39.8,138.6,40.9L138.6,40.9z M132.3,36.3
			c-0.4-0.4-1-0.6-1.7-0.6c-0.9,0-1.7,0.2-2.4,0.6c-0.7,0.4-1.3,0.9-1.9,1.5c-0.5,0.6-1,1.4-1.4,2.2c-0.4,0.8-0.7,1.6-0.9,2.5
			l2.6-0.4c1.3-0.2,2.3-0.5,3.1-0.8c0.8-0.3,1.4-0.7,1.9-1c0.5-0.4,0.8-0.8,1-1.2c0.2-0.4,0.2-0.8,0.2-1.2
			C132.9,37.2,132.7,36.7,132.3,36.3L132.3,36.3z M165.9,38.8c-0.1,0.6-0.1,1.2-0.2,1.8L162.8,57c-1.3,0.2-2.5,0.3-3.6,0.3
			c-1.2,0-2.3-0.1-3.4-0.3l2.8-15.8c0.1-0.7,0.2-1.3,0.2-1.9c0-1-0.2-1.7-0.6-2.1c-0.4-0.4-1-0.6-1.8-0.6c-0.5,0-1,0.1-1.6,0.3
			c-0.6,0.2-1.2,0.7-1.8,1.5c-0.6,0.8-1.2,1.8-1.8,3.2c-0.6,1.4-1.1,3.2-1.5,5.4l-1.8,10c-1.3,0.2-2.5,0.3-3.6,0.3
			c-1.2,0-2.3-0.1-3.5-0.3l2.7-14.7c0.4-2.1,0.6-4,0.8-5.6c0.2-1.6,0.3-2.9,0.3-3.8c0-0.4,0-0.7,0-0.9c0-0.2,0-0.5,0-0.8
			c1.1-0.2,2.2-0.3,3.3-0.3c0.5,0,1,0,1.5,0.1c0.5,0.1,1,0.1,1.6,0.2c0.1,0.3,0.1,0.6,0.2,0.9c0.1,0.4,0.1,0.9,0.1,1.7
			c0,0.3,0,0.6,0,0.9c0,0.3-0.1,0.7-0.1,1.1c0.4-0.7,0.9-1.4,1.5-2c0.6-0.6,1.3-1.2,2-1.7c0.8-0.5,1.6-0.8,2.5-1.1
			c0.9-0.3,1.8-0.4,2.7-0.4c2,0,3.6,0.5,4.7,1.5c1.1,1,1.7,2.7,1.7,5.1C166,37.7,166,38.2,165.9,38.8L165.9,38.8z M194.2,27.7
			l-3.3,18.1c-0.4,2.1-0.6,4-0.8,5.6c-0.2,1.6-0.2,2.9-0.2,3.8c0,0.4,0,0.7,0,0.9s0,0.5,0.1,0.8c-1.1,0.2-2.2,0.3-3.3,0.3
			c-0.9,0-2-0.1-3.1-0.3c-0.1-0.3-0.1-0.6-0.2-1c-0.1-0.4-0.1-0.9-0.1-1.6c0-0.3,0-0.7,0-1c0-0.4,0.1-0.8,0.1-1.3
			c-0.5,0.8-1,1.5-1.7,2.2c-0.6,0.7-1.4,1.3-2.2,1.8c-0.8,0.5-1.6,0.9-2.5,1.2c-0.9,0.3-1.9,0.5-2.9,0.5c-2.2,0-3.9-0.7-4.9-2.1
			c-1.1-1.4-1.7-3.2-1.7-5.5c0-2.5,0.4-4.9,1.1-7.3c0.7-2.3,1.9-4.4,3.3-6.2c1.5-1.8,3.3-3.2,5.5-4.3c2.2-1.1,4.8-1.6,7.7-1.6
			c0.2,0,0.5,0,0.7,0c0.2,0,0.4,0,0.6,0c0.4-2,0.6-3.6,0.8-5c0.1-1.4,0.2-2.5,0.2-3.4c0-0.4,0-0.7,0-0.9c0-0.2,0-0.5-0.1-0.8
			c0.6-0.1,1.2-0.2,2-0.2c0.7,0,1.4-0.1,1.9-0.1c1,0,2,0.1,3.2,0.3c0.2,0.5,0.2,1.1,0.2,1.9C194.8,23.8,194.6,25.6,194.2,27.7
			L194.2,27.7z M184.7,36.3c-0.3,0-0.6,0-0.8,0c-1.6,0-3,0.4-4.1,1.2c-1.1,0.8-2,1.8-2.8,3c-0.7,1.2-1.3,2.5-1.6,3.9
			c-0.3,1.4-0.5,2.6-0.5,3.8c0,2.5,0.8,3.7,2.5,3.7c1.6,0,3.1-1,4.4-2.9c1.4-2,2.4-4.7,3-8.2l0.7-4.2
			C185.3,36.4,185,36.4,184.7,36.3L184.7,36.3z M222.8,24.8c-0.3,0.9-0.8,1.9-1.3,2.9c-1-0.4-2-0.7-2.9-0.8
			c-0.9-0.1-1.7-0.2-2.6-0.2c-2.2,0-4.1,0.5-5.7,1.4c-1.6,1-2.9,2.2-3.9,3.8c-1,1.5-1.8,3.3-2.2,5.3c-0.5,2-0.7,3.9-0.7,5.9
			c0,2.9,0.7,5,2.1,6.2c1.4,1.2,3.3,1.8,5.6,1.8c0.5,0,1,0,1.6-0.1c0.6,0,1-0.1,1.3-0.2l2.2-12.5c0.7-0.1,1.3-0.2,1.9-0.3
			c0.6-0.1,1.2-0.1,1.8-0.1c0.6,0,1.2,0,1.8,0.1c0.6,0,1.2,0.1,1.8,0.3l-3.1,17.8c-1.5,0.5-3.1,0.9-4.9,1.1
			c-1.8,0.2-3.6,0.3-5.2,0.3c-2.4,0-4.6-0.3-6.4-1.1c-1.8-0.7-3.4-1.7-4.6-2.9c-1.2-1.2-2.2-2.7-2.8-4.4c-0.6-1.7-0.9-3.5-0.9-5.5
			c0-3.2,0.5-6.3,1.4-9.1c1-2.8,2.3-5.3,4.1-7.4c1.7-2.1,3.9-3.8,6.3-5c2.5-1.2,5.2-1.8,8.2-1.8c1.6,0,3,0.1,4.2,0.3
			c1.2,0.2,2.5,0.6,3.7,1.1C223.4,22.9,223.1,23.9,222.8,24.8L222.8,24.8z M243.3,34.8c-0.2,1-0.6,1.8-0.9,2.5
			c-0.2,0-0.4-0.1-0.7-0.1c-0.2,0-0.5-0.1-0.9-0.1c-1.4,0-2.5,0.2-3.4,0.7c-0.9,0.5-1.6,1.1-2.2,2c-0.6,0.9-1,1.9-1.3,3.1
			c-0.3,1.2-0.6,2.5-0.9,4l-1.8,10c-1.3,0.2-2.5,0.3-3.6,0.3c-1.2,0-2.3-0.1-3.5-0.3l2.7-14.7c0.4-2.1,0.6-4,0.8-5.6
			c0.2-1.6,0.3-2.9,0.3-3.8c0-0.4,0-0.7,0-0.9c0-0.2,0-0.5-0.1-0.8c1.1-0.2,2.2-0.3,3.3-0.3c0.5,0,1,0,1.5,0.1
			c0.5,0.1,1,0.1,1.6,0.2c0.1,0.3,0.1,0.6,0.2,0.9c0.1,0.4,0.1,0.9,0.1,1.7c0,0.3,0,0.6,0,0.9c0,0.3-0.1,0.7-0.1,1.1
			c0.3-0.6,0.8-1.2,1.2-1.8c0.5-0.6,1.1-1.1,1.7-1.6c0.6-0.5,1.3-0.8,2.1-1.1c0.7-0.3,1.6-0.4,2.5-0.4c0.7,0,1.3,0.1,1.8,0.2
			c0,0.1,0.1,0.3,0.1,0.4c0,0.1,0,0.3,0,0.5C243.6,32.8,243.5,33.8,243.3,34.8L243.3,34.8z M251.8,57c-1.3,0.2-2.5,0.3-3.6,0.3
			c-1,0-2.1-0.1-3.3-0.3l3.6-20.4h-3.2c0-0.1,0-0.2,0-0.3c0-0.1,0-0.2,0-0.3c0-0.9,0.1-1.7,0.2-2.4c0.2-0.7,0.4-1.5,0.8-2.3h10.1
			L251.8,57L251.8,57z M283.3,27.7L280,45.8c-0.4,2.1-0.6,4-0.8,5.6c-0.2,1.6-0.3,2.9-0.3,3.8c0,0.4,0,0.7,0,0.9s0,0.5,0.1,0.8
			c-1.1,0.2-2.2,0.3-3.2,0.3c-0.9,0-2-0.1-3.1-0.3c-0.1-0.3-0.1-0.6-0.2-1c-0.1-0.4-0.1-0.9-0.1-1.6c0-0.3,0-0.7,0-1
			c0-0.4,0.1-0.8,0.1-1.3c-0.5,0.8-1,1.5-1.7,2.2c-0.7,0.7-1.4,1.3-2.2,1.8c-0.8,0.5-1.6,0.9-2.5,1.2c-0.9,0.3-1.8,0.5-2.8,0.5
			c-2.2,0-3.9-0.7-5-2.1c-1.1-1.4-1.6-3.2-1.6-5.5c0-2.5,0.4-4.9,1.1-7.3c0.8-2.3,1.9-4.4,3.4-6.2c1.5-1.8,3.3-3.2,5.5-4.3
			c2.2-1.1,4.8-1.6,7.7-1.6c0.2,0,0.5,0,0.7,0c0.2,0,0.4,0,0.6,0c0.4-2,0.6-3.6,0.8-5c0.2-1.4,0.2-2.5,0.2-3.4c0-0.4,0-0.7,0-0.9
			c0-0.2,0-0.5-0.1-0.8c0.6-0.1,1.2-0.2,2-0.2c0.7,0,1.4-0.1,1.9-0.1c1,0,2,0.1,3.2,0.3c0.2,0.5,0.2,1.1,0.2,1.9
			C283.9,23.8,283.7,25.6,283.3,27.7L283.3,27.7z M273.8,36.3c-0.3,0-0.6,0-0.8,0c-1.6,0-3,0.4-4.1,1.2c-1.1,0.8-2,1.8-2.8,3
			c-0.7,1.2-1.3,2.5-1.6,3.9c-0.3,1.4-0.5,2.6-0.5,3.8c0,2.5,0.8,3.7,2.4,3.7c1.6,0,3.1-1,4.5-2.9c1.4-2,2.4-4.7,3-8.2l0.8-4.2
			C274.4,36.4,274.1,36.4,273.8,36.3L273.8,36.3z"/>
		<g>
			<path fill="#0071CE" d="M81.5,33C81.5,33,81.5,32.9,81.5,33c-0.2-0.6-0.4-1-0.6-1.5c-0.4-0.5-0.8-0.9-1.3-1.2
				c-0.2-0.1-0.4-0.3-0.6-0.3c-0.1-0.1-0.3-0.1-0.4-0.2c-0.9-0.3-1.8-0.4-2.6-0.4c-2.1,0-4.5,0.7-6.6,2C62.3,35.4,55.7,45,52.6,49.9
				l0.2-0.2l-1.3,2.1c5.4-0.2,17.7-0.6,24.4-5.1C83.5,41,82.2,34.9,81.5,33z"/>
			<path fill="#0071CE" d="M12.8,42.2c7.5-4.5,15.3-16.1,17.9-20.5c-7,0.2-18.2,1.1-24.4,5.2C2,29.6-1.3,35.7,0.5,40.5
				c0,0.1,0,0.1,0.1,0.1c0.2,0.5,0.4,1,0.6,1.5c1.4,1.7,3.4,2.1,5,2.1C8.3,44.2,10.7,43.5,12.8,42.2z"/>
			<path fill="#0071CE" d="M57.6,40.6c-5.7-1.9-11.8-3.7-17.1-5.6c-0.1-4.1-0.2-9.2-0.3-13.7c0-0.2,0-0.4,0-0.6c0-0.2,0-0.4,0-0.7
				c-0.1-3.9-0.2-7.4-0.4-9.5c-2.8,3.4-5.2,7.1-6.9,9.9c-0.1,0.2-0.3,0.4-0.4,0.7c-0.1,0.1-0.1,0.2-0.2,0.3c0,0-0.1,0.1-0.2,0.3
				c-0.8,1.3-3.8,6.3-7.8,11.4c0.1,0.2,6.7,11.2,11.9,19.9c0.1,0.2,0.2,0.4,0.4,0.6c0.1,0.2,0.3,0.4,0.4,0.6c2.7,4.4,4.8,8,5.3,8.8
				l-17.9-5.7L23.5,57l-0.9-0.3l-0.8-0.2c0.8-6.8,2-21.2,2.5-23.4c-3.2,3.9-7,7.9-10.9,10.3c-2.3,1.4-5,2.2-7.3,2.2
				c-1.4,0-2.7-0.3-3.8-0.8c-0.1-0.1-0.2-0.1-0.3-0.2c3.6,7.8,9,17.1,13.9,23.7c0.5,0.6,0.9,1.2,1.4,1.8c0,0,0,0,0,0
				c1.9,2.3,4.8,3.6,8.1,3.6c2.1,0,4.4-0.5,6.8-1.5c7.3-3.5,14-14.2,16.8-18.8c0,0,0-0.1,0-0.1c0.2-0.3,0.3-0.5,0.4-0.7
				c0.1-0.1,0.1-0.2,0.1-0.2l0,0c0-0.1,0.1-0.2,0.2-0.4c0.2-0.4,0.7-1.1,1.3-2.2c0.9-1.5,2.4-3.7,4.2-6.2
				C56.1,42.5,56.8,41.6,57.6,40.6z"/>
			<path fill="#0071CE" d="M45.7,20c0.1,0.2,0.2,0.4,0.4,0.6c4.4,7.5,9.8,16.8,11.6,20c3-3.8,6.9-8,10.9-10.4c2.3-1.4,5-2.1,7.3-2.1
				c0.7,0,1.3,0.1,1.9,0.2c0,0,0,0,0,0c0,0,0,0,0,0c-5.3-3.2-12.5-7.5-16.3-10c0.1-1,0.3-1.9,0.4-2.9c0-0.3,0.1-0.6,0.1-0.9
				c0-0.3,0.1-0.6,0.1-1c0.4-3.4,0.8-6.6,1.1-9.1c0.8,1.1,1.6,2.2,2.4,3.3C65.8,8,66,8.2,66.2,8.5c0.2,0.2,0.3,0.5,0.5,0.7
				c0.1,0.1,0.1,0.2,0.2,0.3c3.7,5.4,11,18.8,11,18.8l0.8,0.2c0.4,0.1,0.7,0.3,1,0.4c0,0,0,0,0,0c-1.4-3.1-3.1-6.4-5-9.7
				C72.3,15,69.7,10.8,67,7c-0.2-0.4-0.5-0.7-0.7-1c-0.6-0.8-1.1-1.6-1.7-2.3c-0.3-0.4-0.7-0.9-1-1.3c0,0-0.1-0.1-0.1-0.1v0
				C61.7,0.8,59.2,0,56.3,0c-2.3,0-4.7,0.5-6.4,1.5C46.4,3.2,43,6.6,40,10.2c0.6,1.1,2.7,4.7,5.3,9.1C45.4,19.6,45.5,19.8,45.7,20z"
				/>
		</g>
		<g>
			<path fill="#E6E7E8" d="M287.8,25c-1.3,0-2.2-1-2.2-2.2c0-1.4,0.9-2.3,2.5-2.3c1.3,0,2.1,0.9,2.1,2.2
				C290.2,24.1,289.3,25,287.8,25z M288,21c-0.9,0-1.7,0.6-1.7,1.7c0,1.1,0.7,1.8,1.7,1.8c0.9,0,1.7-0.7,1.7-1.7
				C289.6,21.7,288.9,21,288,21z M288.3,23.9l-0.6-0.9v0.5c0,0,0,0.1,0,0.3h-0.7v-2l0-0.4h0.8c0.5,0,0.9,0.3,0.9,0.8
				c0,0.2-0.2,0.5-0.5,0.7l0.8,0.9L288.3,23.9L288.3,23.9z M287.8,22.7c0.2,0,0.4-0.1,0.4-0.4c0-0.3-0.2-0.4-0.4-0.4h0L287.8,22.7
				L287.8,22.7L287.8,22.7z"/>
		</g>
		<path fill="#0071CE" d="M257.8,23.4c-0.2,1.1-0.5,2.2-0.9,3.3c-0.6,0.1-1.2,0.2-1.9,0.2c-0.6,0-1.2,0.1-1.8,0.1
			c-0.5,0-1.1,0-1.8-0.1c-0.7,0-1.3-0.1-1.8-0.2c0-1.2,0-2.3,0.2-3.3c0.2-1,0.5-2.2,0.9-3.3c0.6-0.1,1.2-0.2,1.9-0.3
			c0.7-0.1,1.3-0.1,1.8-0.1c0.5,0,1.1,0,1.8,0.1c0.7,0,1.3,0.1,1.8,0.3C258.1,21.2,258,22.3,257.8,23.4L257.8,23.4z"/>
	</g>
</g>
<g id="Layer_2">
	<g>
		<g>
			<path fill="#FFFFFF" d="M115.4,25.9c-0.3,1-0.8,1.9-1.4,2.9c-0.9-0.5-1.9-0.8-2.9-1.1c-1-0.3-2.3-0.4-3.9-0.4
				c-0.6,0-1.2,0-1.9,0.1c-0.7,0.1-1.3,0.3-1.8,0.6c-0.5,0.3-1,0.7-1.3,1.2c-0.4,0.5-0.5,1.1-0.5,1.9c0,1.1,0.4,2,1.2,2.7
				c0.8,0.7,1.8,1.4,3.1,2.2c1.1,0.6,2.1,1.2,3.1,1.9c0.9,0.6,1.8,1.3,2.5,2c0.7,0.7,1.3,1.5,1.7,2.4c0.4,0.9,0.6,1.9,0.6,3.1
				c0,1.7-0.3,3.3-0.9,4.8c-0.6,1.5-1.5,2.9-2.8,4c-1.3,1.1-2.8,2.1-4.8,2.7c-1.9,0.7-4.2,1-6.9,1c-3.1,0-6.1-0.6-9.1-1.7
				c0.1-1,0.4-2,0.7-3c0.3-1,0.8-2,1.3-3.1c1.2,0.5,2.5,0.9,3.8,1.2c1.3,0.3,2.5,0.5,3.7,0.5c1,0,2-0.1,2.8-0.3
				c0.9-0.2,1.6-0.6,2.2-1c0.6-0.5,1.1-1,1.5-1.7c0.4-0.7,0.5-1.4,0.5-2.3c0-0.7-0.2-1.2-0.4-1.7c-0.3-0.5-0.7-0.9-1.1-1.3
				c-0.5-0.4-1-0.8-1.6-1.1c-0.6-0.3-1.2-0.7-1.9-1.1c-2.1-1.2-3.7-2.5-5-3.8c-1.2-1.3-1.8-2.9-1.8-4.7c0-1.8,0.3-3.3,0.9-4.7
				c0.6-1.4,1.5-2.6,2.6-3.5c1.1-0.9,2.5-1.7,4.1-2.2c1.6-0.5,3.4-0.8,5.5-0.8c1.8,0,3.4,0.1,4.7,0.4c1.3,0.3,2.7,0.7,4.1,1.2
				C115.9,24,115.7,24.9,115.4,25.9L115.4,25.9z M137.8,41.5c-0.7,1.1-1.6,2-2.7,2.7c-1.1,0.7-2.4,1.4-3.9,1.8
				c-1.5,0.5-3,0.8-4.5,1.1l-3.3,0.5c0.2,1.6,0.7,2.7,1.6,3.5c0.9,0.8,2.1,1.1,3.7,1.1c1.3,0,2.5-0.1,3.5-0.4c1-0.3,2.1-0.6,3.2-1.1
				c0.5,0.7,0.9,1.4,1.1,2.4c0.2,0.9,0.3,1.9,0.3,3c-0.6,0.3-1.2,0.5-1.9,0.7c-0.7,0.2-1.5,0.4-2.3,0.5c-0.8,0.1-1.6,0.3-2.4,0.3
				c-0.8,0.1-1.5,0.1-2.1,0.1c-2,0-3.7-0.2-5.1-0.7c-1.4-0.5-2.6-1.2-3.5-2.1c-0.9-0.9-1.6-2-2.1-3.3c-0.4-1.3-0.7-2.7-0.7-4.3
				c0-2,0.3-3.9,1-5.9c0.7-1.9,1.7-3.7,2.9-5.2c1.3-1.5,2.8-2.7,4.6-3.7c1.8-0.9,3.8-1.4,6.1-1.4c1.1,0,2.1,0.1,3,0.4
				c0.9,0.3,1.7,0.7,2.4,1.2c0.7,0.5,1.2,1.2,1.6,2c0.4,0.8,0.6,1.7,0.6,2.7C138.9,39.2,138.5,40.4,137.8,41.5L137.8,41.5z
				 M131.6,37.1c-0.4-0.4-1-0.6-1.6-0.6c-0.8,0-1.6,0.2-2.3,0.6c-0.7,0.4-1.3,0.9-1.8,1.5c-0.5,0.6-1,1.3-1.3,2.1
				c-0.4,0.8-0.7,1.6-0.9,2.4l2.5-0.4c1.2-0.2,2.3-0.4,3-0.8c0.8-0.3,1.4-0.7,1.9-1c0.5-0.4,0.8-0.8,0.9-1.2
				c0.2-0.4,0.2-0.8,0.2-1.2C132.2,38,132,37.5,131.6,37.1L131.6,37.1z M164.6,39.5c-0.1,0.6-0.1,1.1-0.2,1.8l-2.8,16.1
				c-1.2,0.2-2.4,0.3-3.6,0.3c-1.1,0-2.3-0.1-3.4-0.3l2.7-15.5c0.1-0.7,0.2-1.3,0.2-1.9c0-1-0.2-1.7-0.6-2.1c-0.4-0.4-1-0.6-1.8-0.6
				c-0.5,0-1,0.1-1.5,0.3c-0.6,0.2-1.1,0.7-1.7,1.5c-0.6,0.7-1.2,1.8-1.7,3.1c-0.6,1.3-1,3.1-1.4,5.3l-1.8,9.8
				c-1.3,0.2-2.5,0.3-3.6,0.3c-1.1,0-2.3-0.1-3.4-0.3l2.7-14.4c0.4-2.1,0.6-3.9,0.8-5.5c0.2-1.6,0.3-2.8,0.3-3.7c0-0.4,0-0.7,0-0.9
				c0-0.2,0-0.5,0-0.8c1.1-0.2,2.2-0.3,3.2-0.3c0.5,0,1,0,1.5,0.1c0.5,0.1,1,0.1,1.6,0.2c0.1,0.3,0.1,0.6,0.2,0.9
				c0.1,0.4,0.1,0.9,0.1,1.6c0,0.3,0,0.6,0,0.9c0,0.3-0.1,0.6-0.1,1.1c0.4-0.7,0.9-1.3,1.5-2c0.6-0.6,1.3-1.2,2-1.6
				c0.8-0.5,1.6-0.8,2.4-1.1c0.9-0.3,1.7-0.4,2.6-0.4c2,0,3.5,0.5,4.6,1.5c1.1,1,1.6,2.7,1.6,5C164.7,38.4,164.6,38.9,164.6,39.5
				L164.6,39.5z M192.3,28.6l-3.2,17.7c-0.4,2.1-0.6,3.9-0.8,5.5c-0.2,1.6-0.2,2.8-0.2,3.7c0,0.4,0,0.7,0,0.9c0,0.2,0,0.5,0,0.8
				c-1.1,0.2-2.1,0.3-3.2,0.3c-0.9,0-1.9-0.1-3-0.3c-0.1-0.3-0.1-0.6-0.2-0.9c-0.1-0.4-0.1-0.9-0.1-1.6c0-0.3,0-0.6,0-1
				c0-0.4,0.1-0.8,0.1-1.2c-0.5,0.8-1,1.5-1.6,2.1c-0.6,0.7-1.3,1.2-2.1,1.7c-0.8,0.5-1.6,0.9-2.5,1.2c-0.9,0.3-1.8,0.4-2.8,0.4
				c-2.2,0-3.8-0.7-4.8-2.1c-1.1-1.4-1.6-3.2-1.6-5.4c0-2.5,0.4-4.8,1.1-7.1c0.7-2.3,1.8-4.3,3.3-6.1c1.4-1.8,3.3-3.2,5.4-4.2
				c2.2-1.1,4.7-1.6,7.5-1.6c0.2,0,0.5,0,0.7,0c0.2,0,0.4,0,0.6,0c0.4-1.9,0.6-3.6,0.8-4.9c0.1-1.3,0.2-2.5,0.2-3.3
				c0-0.4,0-0.7,0-0.9c0-0.2,0-0.5-0.1-0.8c0.6-0.1,1.2-0.2,1.9-0.2c0.7,0,1.3-0.1,1.9-0.1c1,0,2,0.1,3.1,0.3
				c0.2,0.5,0.2,1.1,0.2,1.9C192.8,24.8,192.7,26.5,192.3,28.6L192.3,28.6z M183,37.1c-0.3,0-0.5,0-0.8,0c-1.6,0-2.9,0.4-4,1.2
				c-1.1,0.8-2,1.8-2.7,2.9c-0.7,1.2-1.2,2.4-1.6,3.8c-0.3,1.4-0.5,2.6-0.5,3.7c0,2.4,0.8,3.6,2.4,3.6c1.6,0,3-0.9,4.4-2.9
				c1.3-1.9,2.3-4.6,2.9-8.1l0.7-4.2C183.5,37.1,183.2,37.1,183,37.1L183,37.1z M220.3,25.8c-0.3,0.9-0.7,1.8-1.3,2.9
				c-1-0.4-1.9-0.7-2.8-0.8c-0.8-0.1-1.7-0.2-2.5-0.2c-2.2,0-4.1,0.5-5.6,1.4c-1.6,0.9-2.8,2.2-3.8,3.7c-1,1.5-1.7,3.2-2.2,5.2
				c-0.5,1.9-0.7,3.9-0.7,5.8c0,2.8,0.7,4.9,2.1,6.1c1.4,1.2,3.2,1.8,5.5,1.8c0.5,0,1,0,1.5-0.1c0.6,0,1-0.1,1.3-0.2l2.2-12.3
				c0.7-0.1,1.3-0.2,1.9-0.3c0.6,0,1.2-0.1,1.7-0.1c0.6,0,1.1,0,1.7,0.1c0.6,0,1.2,0.1,1.8,0.3l-3.1,17.4c-1.4,0.5-3.1,0.8-4.8,1.1
				c-1.8,0.2-3.5,0.3-5.1,0.3c-2.4,0-4.5-0.3-6.3-1c-1.8-0.7-3.3-1.6-4.5-2.8c-1.2-1.2-2.1-2.6-2.7-4.3c-0.6-1.7-0.9-3.4-0.9-5.4
				c0-3.2,0.5-6.1,1.4-8.9c0.9-2.8,2.3-5.2,4-7.3c1.7-2.1,3.8-3.7,6.2-4.9c2.4-1.2,5.1-1.8,8-1.8c1.5,0,2.9,0.1,4.1,0.3
				c1.2,0.2,2.4,0.6,3.7,1.1C220.9,23.9,220.6,24.9,220.3,25.8L220.3,25.8z M240.4,35.6c-0.2,1-0.5,1.8-0.9,2.5
				c-0.2,0-0.4-0.1-0.6-0.1c-0.2,0-0.5-0.1-0.9-0.1c-1.3,0-2.4,0.2-3.3,0.7c-0.9,0.5-1.6,1.1-2.1,1.9c-0.6,0.8-1,1.8-1.3,3
				c-0.3,1.2-0.6,2.5-0.9,3.9l-1.8,9.8c-1.3,0.2-2.5,0.3-3.6,0.3c-1.1,0-2.3-0.1-3.4-0.3l2.7-14.4c0.3-2.1,0.6-3.9,0.8-5.5
				c0.2-1.6,0.3-2.8,0.3-3.7c0-0.4,0-0.7,0-0.9c0-0.2,0-0.5-0.1-0.8c1.1-0.2,2.2-0.3,3.2-0.3c0.5,0,1,0,1.5,0.1
				c0.5,0.1,1,0.1,1.6,0.2c0.1,0.3,0.1,0.6,0.2,0.9c0.1,0.4,0.1,0.9,0.1,1.6c0,0.3,0,0.6,0,0.9c0,0.3-0.1,0.6-0.1,1.1
				c0.3-0.6,0.7-1.2,1.2-1.7c0.5-0.6,1-1.1,1.6-1.5c0.6-0.5,1.3-0.8,2-1.1c0.7-0.3,1.5-0.4,2.4-0.4c0.7,0,1.3,0.1,1.8,0.2
				c0,0.1,0.1,0.3,0.1,0.4c0,0.1,0,0.3,0,0.4C240.7,33.7,240.6,34.6,240.4,35.6L240.4,35.6z M248.8,57.3c-1.2,0.2-2.4,0.3-3.5,0.3
				c-1,0-2.1-0.1-3.3-0.3l3.5-20h-3.1c0-0.1,0-0.2,0-0.3c0-0.1,0-0.2,0-0.3c0-0.8,0.1-1.6,0.2-2.4c0.2-0.7,0.4-1.5,0.7-2.3h9.9
				L248.8,57.3L248.8,57.3z M279.6,28.6l-3.2,17.7c-0.4,2.1-0.6,3.9-0.8,5.5c-0.2,1.6-0.2,2.8-0.2,3.7c0,0.4,0,0.7,0,0.9
				c0,0.2,0,0.5,0,0.8c-1.1,0.2-2.1,0.3-3.2,0.3c-0.9,0-1.9-0.1-3-0.3c-0.1-0.3-0.1-0.6-0.2-0.9c-0.1-0.4-0.1-0.9-0.1-1.6
				c0-0.3,0-0.6,0-1c0-0.4,0.1-0.8,0.1-1.2c-0.5,0.8-1,1.5-1.6,2.1c-0.6,0.7-1.3,1.2-2.1,1.7c-0.8,0.5-1.6,0.9-2.5,1.2
				c-0.9,0.3-1.8,0.4-2.8,0.4c-2.2,0-3.8-0.7-4.9-2.1c-1.1-1.4-1.6-3.2-1.6-5.4c0-2.5,0.4-4.8,1.1-7.1c0.7-2.3,1.8-4.3,3.3-6.1
				c1.4-1.8,3.3-3.2,5.4-4.2c2.2-1.1,4.7-1.6,7.5-1.6c0.2,0,0.4,0,0.7,0c0.2,0,0.4,0,0.6,0c0.4-1.9,0.6-3.6,0.8-4.9
				c0.2-1.3,0.2-2.5,0.2-3.3c0-0.4,0-0.7,0-0.9c0-0.2,0-0.5-0.1-0.8c0.6-0.1,1.2-0.2,1.9-0.2c0.7,0,1.3-0.1,1.9-0.1
				c0.9,0,2,0.1,3.1,0.3c0.2,0.5,0.2,1.1,0.2,1.9C280.2,24.8,280,26.5,279.6,28.6L279.6,28.6z M270.3,37.1c-0.3,0-0.5,0-0.8,0
				c-1.6,0-2.9,0.4-4,1.2c-1.1,0.8-2,1.8-2.7,2.9c-0.7,1.2-1.2,2.4-1.6,3.8c-0.3,1.4-0.5,2.6-0.5,3.7c0,2.4,0.8,3.6,2.4,3.6
				c1.6,0,3-0.9,4.4-2.9c1.3-1.9,2.3-4.6,2.9-8.1l0.7-4.2C270.9,37.1,270.6,37.1,270.3,37.1L270.3,37.1z"/>
			<g>
				<path fill="#FFFFFF" d="M81.8,33.8C81.8,33.8,81.8,33.8,81.8,33.8c-0.2-0.6-0.4-1-0.6-1.5c-0.4-0.5-0.8-0.9-1.3-1.1
					c-0.2-0.1-0.4-0.2-0.6-0.3c-0.1-0.1-0.3-0.1-0.4-0.2c-0.9-0.3-1.8-0.4-2.6-0.4c-2.1,0-4.4,0.7-6.5,1.9
					c-6.7,4-13.3,13.4-16.3,18.2l0.2-0.2l-1.3,2.1c5.3-0.2,17.4-0.6,23.9-5C83.8,41.6,82.5,35.7,81.8,33.8z"/>
				<path fill="#FFFFFF" d="M14.5,42.8c7.4-4.4,15-15.8,17.5-20.1c-6.8,0.2-17.8,1.1-24,5.1c-4.1,2.6-7.4,8.6-5.6,13.4
					c0,0,0,0.1,0.1,0.1c0.2,0.5,0.4,0.9,0.6,1.4c1.3,1.7,3.3,2,4.9,2C10.1,44.8,12.5,44.1,14.5,42.8z"/>
				<path fill="#FFFFFF" d="M58.4,41.3c-5.6-1.9-11.6-3.7-16.7-5.5c-0.1-4-0.2-9-0.3-13.5c0-0.2,0-0.4,0-0.6c0-0.2,0-0.4,0-0.6
					c-0.1-3.9-0.2-7.3-0.4-9.3c-2.7,3.3-5.1,6.9-6.7,9.7c-0.1,0.2-0.3,0.4-0.4,0.6c-0.1,0.1-0.1,0.2-0.2,0.3c0,0-0.1,0.1-0.2,0.3
					c-0.7,1.3-3.7,6.2-7.7,11.2c0.1,0.2,6.6,11,11.7,19.5c0.1,0.2,0.2,0.4,0.4,0.6c0.1,0.2,0.2,0.4,0.4,0.6c2.6,4.3,4.7,7.8,5.2,8.7
					L26,57.7L25,57.4l-0.9-0.3l-0.8-0.2c0.7-6.7,2-20.8,2.5-22.9c-3.1,3.9-6.8,7.8-10.7,10.1C12.9,45.3,10.3,46,8,46
					c-1.4,0-2.7-0.3-3.7-0.8C4.2,45.2,4,45.1,3.9,45c3.5,7.6,8.8,16.7,13.6,23.2c0.5,0.6,0.9,1.2,1.4,1.8c0,0,0,0,0,0
					c1.9,2.3,4.7,3.5,8,3.5c2.1,0,4.3-0.5,6.6-1.5c7.2-3.5,13.7-13.9,16.4-18.4c0,0,0-0.1,0-0.1c0.2-0.3,0.3-0.5,0.4-0.7
					c0.1-0.1,0.1-0.2,0.1-0.2l0,0c0-0.1,0.1-0.2,0.2-0.4c0.2-0.4,0.6-1.1,1.3-2.2c0.9-1.4,2.3-3.7,4.1-6.1
					C57,43.2,57.7,42.2,58.4,41.3z"/>
				<path fill="#FFFFFF" d="M46.8,21.1c0.1,0.2,0.2,0.4,0.3,0.6c4.3,7.4,9.6,16.5,11.4,19.6c3-3.7,6.8-7.8,10.7-10.2
					c2.2-1.3,4.9-2.1,7.1-2.1c0.7,0,1.3,0.1,1.9,0.2c0,0,0,0,0,0c0,0,0,0,0,0C73,26,66,21.8,62.2,19.4c0.1-0.9,0.3-1.9,0.4-2.9
					c0-0.3,0.1-0.6,0.1-0.9c0-0.3,0.1-0.6,0.1-0.9c0.4-3.3,0.8-6.4,1.1-8.9c0.8,1,1.6,2.1,2.4,3.3c0.2,0.2,0.3,0.5,0.5,0.7
					c0.2,0.2,0.3,0.5,0.5,0.7c0.1,0.1,0.1,0.2,0.2,0.3c3.6,5.3,10.8,18.4,10.8,18.4l0.8,0.2c0.3,0.1,0.7,0.3,1,0.4c0,0,0,0,0,0
					c-1.4-3-3.1-6.3-4.9-9.5c-2.3-4.1-4.9-8.3-7.5-12c-0.2-0.3-0.5-0.7-0.7-1c-0.6-0.8-1.1-1.5-1.7-2.3c-0.3-0.4-0.7-0.9-1-1.3
					c0,0-0.1-0.1-0.1-0.1v0c-1.7-1.4-4.2-2.2-7-2.2c-2.3,0-4.6,0.5-6.3,1.4c-3.4,1.7-6.8,5-9.7,8.6c0.6,1.1,2.7,4.6,5.2,8.9
					C46.5,20.7,46.6,20.9,46.8,21.1z"/>
			</g>
			<g>
				<path fill="#FFFFFF" d="M284,26c-1.2,0-2.2-0.9-2.2-2.2c0-1.4,0.9-2.2,2.4-2.2c1.2,0,2.1,0.9,2.1,2.1
					C286.4,25.1,285.5,26,284,26z M284.2,22.1c-0.9,0-1.7,0.6-1.7,1.7c0,1.1,0.7,1.7,1.7,1.7c0.9,0,1.6-0.7,1.6-1.7
					C285.8,22.7,285.1,22.1,284.2,22.1z M284.6,24.9L284,24v0.5c0,0,0,0.1,0,0.3h-0.7V23l0-0.4h0.8c0.5,0,0.9,0.3,0.9,0.8
					c0,0.2-0.2,0.5-0.5,0.7l0.8,0.9H284.6z M284,23.7c0.2,0,0.4-0.1,0.4-0.4c0-0.3-0.2-0.4-0.4-0.4h0L284,23.7L284,23.7z"/>
			</g>
		</g>
		<path fill="#FFFFFF" d="M254.6,24.4c-0.2,1-0.5,2.1-0.9,3.2c-0.6,0.1-1.2,0.2-1.8,0.2c-0.6,0-1.2,0.1-1.7,0.1
			c-0.5,0-1.1,0-1.7-0.1c-0.7,0-1.2-0.1-1.8-0.2c0-1.1,0-2.2,0.2-3.3c0.2-1,0.5-2.1,0.9-3.3c0.6-0.1,1.2-0.2,1.9-0.3
			c0.7-0.1,1.2-0.1,1.8-0.1c0.5,0,1.1,0,1.7,0.1c0.6,0,1.2,0.1,1.8,0.3C254.9,22.2,254.8,23.3,254.6,24.4L254.6,24.4z"/>
	</g>
</g>
</svg>
