<svg version="1.1" id="Layer_1" xmlns="http://www.w3.org/2000/svg" xmlns:xlink="http://www.w3.org/1999/xlink" x="0px" y="0px"
	 width="232px" height="20px" viewBox="0 0 232 20" enable-background="new 0 0 232 20" xml:space="preserve">
<path fill="#FFFFFF" d="M130.105,13.647c-0.651,0.247-1.217,0.429-1.7,0.541c-0.482,0.111-1.048,0.168-1.699,0.168
	c-0.515,0-1.003-0.067-1.463-0.203c-0.46-0.135-0.864-0.359-1.211-0.676c-0.349-0.314-0.629-0.748-0.842-1.299
	c-0.213-0.552-0.319-1.245-0.319-2.077c0-1.575,0.353-2.685,1.061-3.327c0.706-0.642,1.598-0.962,2.675-0.962
	c0.29,0,0.565,0.005,0.823,0.017c0.259,0.011,0.521,0.039,0.792,0.084c0.269,0.045,0.554,0.107,0.857,0.186
	c0.303,0.079,0.645,0.185,1.026,0.32c0.381-0.72,0.661-1.458,0.842-2.211c0.178-0.754,0.246-1.515,0.201-2.28
	c-0.538-0.203-1.026-0.372-1.464-0.507c-0.437-0.134-0.864-0.236-1.279-0.303c-0.415-0.068-0.835-0.112-1.261-0.135
	c-0.428-0.023-0.875-0.034-1.346-0.034c-1.392,0-2.625,0.226-3.702,0.675c-1.076,0.451-1.985,1.075-2.726,1.875
	c-0.739,0.799-1.3,1.762-1.682,2.888c-0.381,1.125-0.572,2.363-0.572,3.714c0,1.396,0.191,2.651,0.572,3.765
	c0.382,1.115,0.948,2.071,1.699,2.871c0.751,0.799,1.677,1.412,2.775,1.841c1.1,0.427,2.367,0.642,3.803,0.642
	c0.852,0,1.704-0.057,2.557-0.169c0.853-0.113,1.795-0.372,2.827-0.777c0-0.968-0.113-1.828-0.337-2.583
	C130.789,14.937,130.486,14.255,130.105,13.647z"/>
<path fill="#FFFFFF" d="M161.871,1.051c-0.448,0-0.914,0.022-1.396,0.068s-0.971,0.124-1.463,0.236v12.798
	c-0.09,0.023-0.236,0.046-0.438,0.067c-0.201,0.023-0.493,0.034-0.874,0.034c-0.921,0-1.604-0.247-2.053-0.742
	c-0.449-0.495-0.674-1.419-0.674-2.77V1.355c-0.47-0.112-0.953-0.191-1.445-0.236c-0.494-0.045-0.954-0.068-1.38-0.068
	c-0.449,0-0.915,0.022-1.397,0.068c-0.481,0.045-0.97,0.124-1.463,0.236v9.861c0,1.756,0.235,3.157,0.706,4.204
	c0.472,1.047,1.105,1.846,1.901,2.397c0.796,0.553,1.721,0.917,2.776,1.098c1.054,0.181,2.153,0.27,3.297,0.27
	c0.605,0,1.222-0.033,1.852-0.101c0.627-0.067,1.238-0.164,1.833-0.288c0.594-0.123,1.155-0.252,1.683-0.388
	c0.526-0.135,0.98-0.27,1.363-0.404V1.355c-0.472-0.112-0.955-0.191-1.447-0.236C162.757,1.073,162.298,1.051,161.871,1.051z"/>
<path fill="#FFFFFF" d="M178.947,2.334c-0.797-0.54-1.688-0.895-2.675-1.063c-0.987-0.169-1.975-0.253-2.961-0.253
	c-1.683,0-3.084,0.129-4.206,0.389c-1.121,0.259-2.074,0.523-2.859,0.793v16.582c0.583,0.111,1.11,0.185,1.581,0.219
	c0.471,0.033,0.896,0.051,1.278,0.051c0.359,0,0.773-0.018,1.245-0.051c0.471-0.034,0.998-0.107,1.581-0.219V6.151
	c0.067-0.045,0.241-0.091,0.522-0.136c0.279-0.045,0.543-0.067,0.79-0.067c0.92,0,1.604,0.259,2.053,0.776
	c0.449,0.518,0.673,1.374,0.673,2.567v9.49c0.583,0.111,1.11,0.185,1.582,0.219c0.47,0.033,0.896,0.051,1.278,0.051
	c0.358,0,0.774-0.018,1.244-0.051c0.472-0.034,0.998-0.107,1.581-0.219V8.683c0-1.667-0.252-3.005-0.757-4.019
	C180.395,3.651,179.743,2.875,178.947,2.334z"/>
<path fill="#FFFFFF" d="M198.253,2.605c-0.035-0.383-0.107-0.8-0.22-1.25h-15.646c-0.113,0.45-0.186,0.867-0.219,1.25
	c-0.033,0.383-0.051,0.754-0.051,1.114c0,0.36,0.018,0.737,0.051,1.131s0.105,0.816,0.219,1.266h4.979v12.665
	c0.562,0.089,1.077,0.156,1.549,0.202c0.47,0.044,0.896,0.067,1.278,0.067c0.38,0,0.807-0.023,1.278-0.067
	c0.471-0.046,0.998-0.113,1.582-0.202V6.116h4.979c0.112-0.45,0.185-0.872,0.22-1.266c0.033-0.394,0.05-0.771,0.05-1.131
	C198.303,3.359,198.286,2.988,198.253,2.605z"/>
<g>
	<path fill="#FFFFFF" d="M213.965,5.796c-0.348-1.002-0.847-1.857-1.497-2.567c-0.649-0.709-1.441-1.267-2.372-1.671
		c-0.931-0.406-1.99-0.607-3.18-0.607c-1.436,0-2.69,0.241-3.769,0.726c-1.076,0.484-1.974,1.143-2.691,1.975
		c-0.718,0.833-1.256,1.812-1.614,2.938c-0.36,1.126-0.539,2.331-0.539,3.614c0,1.306,0.173,2.51,0.521,3.613
		c0.348,1.104,0.886,2.056,1.615,2.854c0.729,0.799,1.671,1.424,2.825,1.874c1.155,0.45,2.542,0.676,4.157,0.676
		c2.086,0,4.127-0.372,6.123-1.115c-0.021-0.878-0.151-1.722-0.388-2.532c-0.235-0.811-0.51-1.508-0.823-2.095
		c-0.785,0.316-1.582,0.553-2.39,0.711c-0.808,0.157-1.537,0.235-2.187,0.235c-1.01,0-1.822-0.19-2.439-0.573
		c-0.617-0.384-1.049-1.035-1.295-1.959h10.229c0.045-0.314,0.095-0.714,0.15-1.199c0.057-0.484,0.085-1.031,0.085-1.639
		C214.487,7.883,214.313,6.797,213.965,5.796z M203.955,8.006c0.09-0.944,0.393-1.642,0.909-2.092
		c0.517-0.451,1.132-0.675,1.851-0.675c0.83,0,1.464,0.264,1.9,0.793c0.438,0.529,0.679,1.187,0.724,1.974H203.955z"/>
</g>
<path fill="#FFFFFF" d="M228.164,11.385c0.156-0.135,0.359-0.315,0.605-0.541c0.247-0.225,0.482-0.523,0.706-0.895
	c0.225-0.371,0.415-0.815,0.572-1.334c0.156-0.517,0.235-1.125,0.235-1.824c0-1.845-0.679-3.28-2.035-4.305
	c-1.357-1.024-3.393-1.536-6.107-1.536c-1.01,0-2.08,0.045-3.213,0.134c-1.133,0.092-2.226,0.204-3.279,0.338v17.359
	c0.582,0.111,1.097,0.185,1.547,0.219c0.449,0.033,0.862,0.051,1.244,0.051c0.359,0,0.774-0.018,1.245-0.051
	c0.471-0.034,0.998-0.107,1.582-0.219V5.508c0.223-0.045,0.549-0.067,0.975-0.067c0.763,0,1.318,0.185,1.666,0.557
	c0.348,0.371,0.522,0.85,0.522,1.436c0,0.585-0.147,1.13-0.438,1.638c-0.293,0.506-0.83,0.984-1.615,1.435l-0.472,0.27l3.735,7.97
	c0.382,0.09,0.862,0.158,1.446,0.203c0.583,0.045,1.188,0.067,1.816,0.067c0.516,0,1.05-0.022,1.6-0.067
	c0.549-0.045,1.049-0.113,1.497-0.203L228.164,11.385z"/>
<path fill="#FFFFFF" d="M139.721,0c-4.285,0-7.778,5.629-7.957,10.702l3.322,1.357l2.271-2.442l3.051,1.724l2.677-3.044L142.082,7.4
	l2.963-1.213l-0.452,3.305l-0.992-0.812l-3.195,3.913l-2.62-1.08l-2.513,3.054l-3.076-0.52c1.11,3.583,4.201,5.953,7.71,5.953
	c4.399,0,7.779-3.721,7.779-8.894C147.686,5.933,144.119,0,139.721,0z"/>
<path fill="#5DC9E4" d="M15.915,1.355H0.269C0.157,1.806,0.084,2.223,0.05,2.605C0.016,2.988,0,3.359,0,3.719
	c0,0.36,0.016,0.737,0.05,1.131c0.034,0.394,0.107,0.817,0.219,1.267h4.979v12.664c0.56,0.089,1.078,0.156,1.548,0.202
	c0.471,0.045,0.896,0.067,1.278,0.067s0.808-0.022,1.279-0.067c0.471-0.046,0.998-0.113,1.581-0.202V6.117h4.98
	c0.112-0.45,0.185-0.873,0.218-1.267c0.034-0.394,0.05-0.771,0.05-1.131c0-0.359-0.016-0.731-0.05-1.114
	C16.1,2.223,16.027,1.806,15.915,1.355z"/>
<path fill="#5DC9E4" d="M40.174,1.152c-0.584,0-1.132,0.024-1.648,0.068c-0.516,0.046-0.864,0.09-1.043,0.135l-2.086,10.064
	L33.007,1.355c-0.47-0.112-0.937-0.185-1.396-0.219c-0.46-0.034-0.914-0.051-1.363-0.051c-0.449,0-0.903,0.017-1.362,0.051
	c-0.46,0.034-0.881,0.107-1.263,0.219l-2.422,10.334L23.015,1.355c-0.181-0.044-0.545-0.089-1.095-0.135
	c-0.55-0.044-1.115-0.068-1.698-0.068c-0.74,0-1.42,0.024-2.036,0.068c-0.617,0.046-1.048,0.09-1.295,0.135l5.283,17.391
	c0.381,0.112,0.795,0.187,1.245,0.22c0.448,0.034,0.897,0.052,1.345,0.052c0.449,0,0.903-0.018,1.363-0.052
	c0.46-0.033,0.925-0.107,1.397-0.22c0.403-1.462,0.825-3.026,1.262-4.693c0.437-1.666,0.868-3.253,1.295-4.762l2.457,9.455
	c0.492,0.112,0.969,0.187,1.43,0.22c0.459,0.034,0.913,0.052,1.362,0.052c0.449,0,0.897-0.018,1.346-0.052
	c0.45-0.033,0.864-0.107,1.245-0.22l5.452-17.391c-0.248-0.044-0.656-0.089-1.229-0.135C41.57,1.176,40.914,1.152,40.174,1.152z"/>
<path fill="#5DC9E4" d="M47.031,1.052c-0.449,0-0.915,0.022-1.396,0.067c-0.482,0.046-0.971,0.124-1.463,0.236v17.426
	c0.56,0.089,1.076,0.156,1.547,0.202c0.472,0.045,0.897,0.067,1.278,0.067c0.382,0,0.808-0.022,1.279-0.067
	c0.471-0.046,0.998-0.113,1.582-0.202V1.355c-0.471-0.112-0.954-0.19-1.447-0.236C47.917,1.074,47.458,1.052,47.031,1.052z"/>
<path fill="#5DC9E4" d="M78.447,2.605c-0.034-0.382-0.106-0.799-0.219-1.25H66.643h-4.061H50.997
	c-0.112,0.451-0.185,0.868-0.219,1.25c-0.033,0.383-0.05,0.754-0.05,1.114c0,0.36,0.017,0.737,0.05,1.131
	c0.034,0.394,0.107,0.817,0.219,1.267h4.98v12.664c0.56,0.089,1.077,0.156,1.547,0.202c0.471,0.045,0.897,0.067,1.279,0.067
	s0.808-0.022,1.279-0.067c0.47-0.046,0.998-0.113,1.581-0.202V6.117h0.919h4.061h0.918v12.664c0.561,0.089,1.078,0.156,1.548,0.202
	c0.471,0.045,0.897,0.067,1.279,0.067c0.38,0,0.808-0.022,1.279-0.067c0.471-0.046,0.998-0.113,1.581-0.202V6.117h4.98
	c0.112-0.45,0.185-0.873,0.219-1.267c0.033-0.394,0.049-0.771,0.049-1.131C78.496,3.359,78.48,2.988,78.447,2.605z"/>
<g>
	<path fill="#5DC9E4" d="M94.16,5.796c-0.348-1.001-0.847-1.857-1.497-2.566c-0.652-0.709-1.441-1.266-2.373-1.671
		c-0.931-0.407-1.991-0.608-3.18-0.608c-1.435,0-2.691,0.242-3.769,0.726c-1.077,0.485-1.974,1.143-2.691,1.975
		c-0.718,0.834-1.257,1.812-1.615,2.939c-0.359,1.126-0.539,2.33-0.539,3.614c0,1.305,0.174,2.51,0.522,3.613
		c0.348,1.104,0.886,2.055,1.615,2.854c0.729,0.799,1.67,1.424,2.826,1.873c1.155,0.451,2.541,0.676,4.156,0.676
		c2.085,0,4.127-0.372,6.124-1.114c-0.023-0.878-0.151-1.723-0.387-2.532c-0.236-0.812-0.511-1.509-0.824-2.095
		c-0.786,0.316-1.582,0.552-2.39,0.71c-0.807,0.157-1.537,0.236-2.187,0.236c-1.01,0-1.823-0.191-2.44-0.574
		s-1.048-1.035-1.295-1.959h10.229c0.044-0.314,0.095-0.714,0.15-1.199c0.056-0.484,0.085-1.031,0.085-1.639
		C94.681,7.884,94.506,6.798,94.16,5.796z M84.15,8.007c0.088-0.945,0.392-1.642,0.908-2.093c0.516-0.451,1.133-0.675,1.852-0.675
		c0.828,0,1.463,0.265,1.899,0.793c0.438,0.529,0.679,1.188,0.724,1.975H84.15z"/>
</g>
<path fill="#5DC9E4" d="M108.97,10.844c0.247-0.225,0.483-0.523,0.707-0.895c0.225-0.37,0.415-0.815,0.572-1.333
	c0.157-0.518,0.235-1.126,0.235-1.824c0-1.845-0.679-3.281-2.036-4.305c-1.357-1.024-3.393-1.537-6.107-1.537
	c-1.009,0-2.08,0.045-3.212,0.135c-1.133,0.091-2.227,0.203-3.28,0.338v17.358c0.582,0.112,1.098,0.185,1.547,0.219
	c0.449,0.033,0.863,0.051,1.245,0.051c0.359,0,0.774-0.018,1.245-0.051c0.47-0.034,0.998-0.106,1.582-0.219V5.508
	c0.225-0.045,0.549-0.067,0.975-0.067c0.763,0,1.318,0.186,1.666,0.557c0.347,0.371,0.521,0.85,0.521,1.436
	c0,0.585-0.146,1.13-0.438,1.638s-0.831,0.985-1.615,1.436l-0.472,0.27l3.735,7.969c0.382,0.091,0.864,0.158,1.447,0.203
	c0.584,0.046,1.189,0.068,1.818,0.068c0.515,0,1.048-0.022,1.598-0.068c0.549-0.045,1.048-0.112,1.497-0.203l-3.836-7.361
	C108.521,11.25,108.723,11.069,108.97,10.844z"/>
</svg>
